/* XPM */
static char *beer[] = {
/* columns rows colors chars-per-pixel */
"32 32 195 2 ",
"   c #593F29",
".  c #633E21",
"X  c #58432E",
"o  c #594634",
"O  c #664427",
"+  c #744D2D",
"@  c #7B4E29",
"#  c #784A24",
"$  c #7F522B",
"%  c #614D39",
"&  c #684C34",
"*  c #6B523B",
"=  c #7B5332",
"-  c #7F5837",
";  c #7C593C",
":  c #655341",
">  c #6D5B49",
",  c #6C5946",
"<  c #735C45",
"1  c #7A5D45",
"2  c #745E49",
"3  c #7B6047",
"4  c #76624D",
"5  c #7C624A",
"6  c #746351",
"7  c #7B6752",
"8  c #7D6A55",
"9  c #7D6D5D",
"0  c #80522B",
"q  c #895D34",
"w  c #835B38",
"e  c #815A37",
"r  c #8D633B",
"t  c #8E6136",
"y  c #92663A",
"u  c #946A3E",
"i  c #996D3E",
"p  c #835F43",
"a  c #846043",
"s  c #896545",
"d  c #82644C",
"f  c #89684E",
"g  c #906740",
"h  c #996E41",
"j  c #966D48",
"k  c #9D7143",
"l  c #96714B",
"z  c #9C744A",
"x  c #836A52",
"c  c #896B51",
"v  c #836E58",
"b  c #85715B",
"n  c #8B735C",
"m  c #8B7157",
"M  c #91755A",
"N  c #987656",
"B  c #A17444",
"V  c #A77847",
"C  c #A47A4A",
"Z  c #A97D4D",
"A  c #A47C52",
"S  c #827261",
"D  c #897762",
"F  c #8D7A65",
"G  c #8C7D6C",
"H  c #937E65",
"J  c #907F6A",
"K  c #8C7F70",
"L  c #AD8151",
"P  c #AA855B",
"I  c #AF8A5D",
"U  c #B58753",
"Y  c #B58957",
"T  c #B48A5B",
"R  c #BA8E5A",
"E  c #B98B56",
"W  c #BC925F",
"Q  c #93816C",
"!  c #9B856B",
"~  c #948473",
"^  c #9C8A75",
"/  c #978978",
"(  c #9E8F7A",
")  c #A68766",
"_  c #B59265",
"`  c #BC9563",
"'  c #B5936C",
"]  c #B99468",
"[  c #A58E71",
"{  c #AC9374",
"}  c #A2927D",
"|  c #A8957D",
" . c #AA957A",
".. c #B39977",
"X. c #C0945F",
"o. c #C49B65",
"O. c #C39D69",
"+. c #C69764",
"@. c #C4A16D",
"#. c #C9A26C",
"$. c #D1A56F",
"%. c #CAA972",
"&. c #C6A677",
"*. c #D3AB77",
"=. c #D5B07C",
"-. c #D7B97F",
";. c #A49582",
":. c #AC9A83",
">. c #AD9D89",
",. c #B29E83",
"<. c #B4A086",
"1. c #B8A68D",
"2. c #BEA98A",
"3. c #B6A385",
"4. c #B7A790",
"5. c #B6AA96",
"6. c #BAAA92",
"7. c #BBAD98",
"8. c #BFB199",
"9. c #BFB4A8",
"0. c #D5B583",
"q. c #DBBD8C",
"w. c #DBBB85",
"e. c #C1AF91",
"r. c #C4B094",
"t. c #C4B59C",
"y. c #CAB99E",
"u. c #D4BC92",
"i. c #C3B9A7",
"p. c #CCBCA2",
"a. c #C4BAAA",
"s. c #CBBDAE",
"d. c #C7BDB3",
"f. c #DFC58F",
"g. c #DAC49C",
"h. c #E0C692",
"j. c #E5CD9A",
"k. c #D0C0A5",
"l. c #D0C1A8",
"z. c #DBCCAF",
"x. c #DAC9A8",
"c. c #CBC1B5",
"v. c #CBC4BD",
"b. c #DACCB3",
"n. c #D5CABE",
"m. c #DED0B6",
"M. c #DDD1B9",
"N. c #E4CEA3",
"B. c #E9D4A5",
"V. c #EAD7AB",
"C. c #EBD6AD",
"Z. c #E3D4B7",
"A. c #E8D7B2",
"S. c #E7D8B7",
"D. c #ECDBB4",
"F. c #E8D7B9",
"G. c #EBDCBC",
"H. c #E4D5B9",
"J. c #EFE0BE",
"K. c #F2E2BD",
"L. c #D3CBC2",
"P. c #DACEC5",
"I. c #DAD0C5",
"U. c #DBD4CC",
"Y. c #DEDAD3",
"T. c #DDD7D0",
"R. c #ECDEC3",
"E. c #E7DCCB",
"W. c #E2DBD4",
"Q. c #E1DDD9",
"!. c #EEE1C4",
"~. c #EFE3C8",
"^. c #F3E4C3",
"/. c #F2E6CB",
"(. c #F6E9CB",
"). c #F8EBCE",
"_. c #F6E8C6",
"`. c #E5E1DD",
"'. c #E8E3DD",
"]. c #F6EAD1",
"[. c #FAEED2",
"{. c #F6EEDF",
"}. c #FCF1D6",
"|. c #FEF4DA",
" X c #EAE6E1",
".X c #ECE9E4",
"XX c #F1EFEB",
"oX c #F5EEE0",
"OX c #F6F0E4",
"+X c #F8F2E5",
"@X c #F5F1EB",
"#X c #F9F5ED",
"$X c #F9F6F1",
"%X c #FCF9F3",
"&X c None",
/* pixels */
"&X&X&X&X&X&X&X&X&X&X&X&X&X&X&X&X&X&X&X&X&X&X&X&X&X&X&X&X&X&X&X&X",
"&X&X&X&X&X&X&X&X&X&X&X&X&X&X&X&X&X&X&X&X&XXX@X@X&X&X&X&X&X&X&X&X",
"&X&X&X&X&X&X&X&X&X&X&X&X&X&X&X&X#X#X#X&XOX/.R./.+X&X&X&X&X&X&X&X",
"&X&X&X&X&X&X&X&X&X&X&X&X&X#X$XOXR.G.!.oX].(.).^./.$X&X&X&X&X&X&X",
"&X&X&X&X&X&X&X&X&X&X&XOXoXS.F.R.R.!.^.).).}.|.[.(.#X%X&X&X&X&X&X",
"&X&X&X&X&X&X&X&X&X&XI.g.x.A.G.^.(.(.[.[.[.|.|.|.[.].].#X&X&X&X&X",
"&X&X&X&X&X&XXX@X@XU.! _ f.S.^.K.^.(.[.[.[.}.|.|.|.}.).].%X&X&X&X",
"&X&X&X&X&X.Xc.i.a.1.e r &.u.g.N.B.J.).].).(.[.}.|.+X|.[.%X&X&X&X",
"&X&X&X&X Xc.5.5.5.:.- $ r j T ` *.j.K.K.V.V.K.[.|.|.|.}.#X#X&X&X",
"&X&X&X'.i.} ^ ^ ^ ! s r t y r k ` -.f.h.=.=.N.(.|.|.|.}.)./.@X&X",
"&X&X@Xi.( G ;.;.! G Q ^ N k B Z Z Y X.#.#.$.f.^.|.|.|.|.^.!.@X&X",
"&X&X.X>.D S U.T.D 3 8 Q | P L Z R +.+.R o.h.D.).|.|.|.|.).).@X&X",
"&X&X X;.v 9 Q. XQ 4 5 b } 3._ P @.$.$.$.f.V._.}.}.}.}.).).#X&X&X",
"&X&X X( 9 9 Q.&Xc.n d m Q | 6.t.p.0.0.w.j.D.K._._._.(._./.%X&X&X",
"&X&X X/ 8 9 Q.&XI.c 1 n H ^ <.7.p.z.m.H.S.B.V.C.V.V.D.^.{.&X&X&X",
"&X&X X~ 6 9 Q.&XW.p + f H ( >.6.y.s.l.b.b.m.m.m.m.z.C.D.!.#X&X&X",
"&X&X XK > 6 L. XW.a # w M ^ >.6.y.p.p.p.k.k.p.t.r.q.B.C.S.#X&X&X",
"&X&XY.K > o : K 9.; @ q u l { <.2.e.p.p.k.y.8.1...-.j.A.G.#X&X&X",
"&X&XY.9 : o X o * O $ y h y A Y T ] e.e.8.8.7.3...%.N.+X#X&X&X&X",
"&X&X X~ : o o o O # 0 y k y U +.O.O.] W I  ...) z ..E.&X&X&X&X&X",
"&X&X&XL.~ 9 8 % 1 # 0 t i y E o.$.%.%.@.C z l y l I.&X&X&X&X&X&X",
"&X&X&X&XY.Q.L.6 < = @ q u y U o.#.$.%.` z C k u ) '.&X&X&X&X&X&X",
"&X&X&X&X&X&XQ.6 & 3 w y q k E X.O.#.@.L L C i N L.&X&X&X&X&X&X&X",
"&X&X&X&X&X&XY.4 O < c l r V U E ` #.W k k i t M '.&X&X&X&X&X&X&X",
"&X&X&X&X&X&XQ.*   * 5 H ) P Y ` O.W k k h j s } .X&X&X&X&X&X&X&X",
"&X&X&X&X&X&XY.x . & 4 v F [ :.1.1...j z A [ Q J `.&X&X&X&X&X&X&X",
"&X&X&X&X&X&X&Xd.d O * 3 b Q ^ ;.:.<.,.<.| n 7 / Q.&X&X&X&X&X&X&X",
"&X&X&X&X&X&X&X&Xd.d ; + 1 b F ^ ( } ( ^ G D / L.&X&X&X&X&X&X&X&X",
"&X&X&X&X&X&X&X&X&XT.s.m a 0 e n F n b v ^ L.Q.&X&X&X&X&X&X&X&X&X",
"&X&X&X&X&X&X&X&X&X&X&X'.n.M p c c d d n L.&X&X&X&X&X&X&X&X&X&X&X",
"&X&X&X&X&X&X&X&X&X&X&X&X&XU.I.I.P.P.L.I.&X&X&X&X&X&X&X&X&X&X&X&X",
"&X&X&X&X&X&X&X&X&X&X&X&X&X&X&X&X&X&X&X&X&X&X&X&X&X&X&X&X&X&X&X&X"
};
