/* XPM */
static char *diamond[] = {
/* columns rows colors chars-per-pixel */
"32 32 97 2 ",
"   c #293B46",
".  c #2C3E4A",
"X  c #2C414E",
"o  c #34444F",
"O  c #2E4453",
"+  c #304552",
"@  c #364954",
"#  c #394B55",
"$  c #304758",
"%  c #334B5A",
"&  c #394E5A",
"*  c #3B515C",
"=  c #3D5461",
"-  c #445661",
";  c #455965",
":  c #4B5C66",
">  c #495E6A",
",  c #4C636E",
"<  c #53636D",
"1  c #4F6671",
"2  c #536772",
"3  c #546A75",
"4  c #5B6C75",
"5  c #556D79",
"6  c #5B6E79",
"7  c #57707F",
"8  c #5C717C",
"9  c #61737D",
"0  c #5B7381",
"q  c #5F7A89",
"w  c #637682",
"e  c #697781",
"r  c #657A84",
"t  c #6B7B85",
"y  c #647C89",
"u  c #697F8A",
"i  c #717F87",
"p  c #6C828D",
"a  c #75848D",
"s  c #78878F",
"d  c #6C8492",
"f  c #6F8896",
"g  c #758A95",
"h  c #7A8A94",
"j  c #748C99",
"k  c #798E99",
"l  c #7D929C",
"z  c #82969F",
"x  c #89959C",
"c  c #8397A1",
"v  c #859BA4",
"b  c #8C9CA4",
"n  c #8E9EA8",
"m  c #909CA4",
"M  c #8EA3AB",
"N  c #91A4AD",
"B  c #93A7B0",
"V  c #92A8B1",
"C  c #9AAAB2",
"Z  c #99AFB8",
"A  c #9DB2BA",
"S  c #A4B7BE",
"D  c #A7B8BF",
"F  c #A5B9C1",
"G  c #ABBDC4",
"H  c #AEC0C7",
"J  c #AFC1C8",
"K  c #B5C5CB",
"L  c #BBC6CB",
"P  c #BCC9CE",
"I  c #BDCCD1",
"U  c #C3CACD",
"Y  c #C2CFD3",
"T  c #C8CED1",
"R  c #C4D1D6",
"E  c #CBD2D5",
"W  c #C6D4D8",
"Q  c #C9D6DA",
"!  c #CDD9DD",
"~  c #D1DBDE",
"^  c #D9DDDF",
"/  c #D3DEE1",
"(  c #DADEE1",
")  c #D7E1E4",
"_  c #DCE3E5",
"`  c #DDE6E8",
"'  c #E0E4E6",
"]  c #E1E7E9",
"[  c #E3EAED",
"{  c #E7EFF1",
"}  c #EAEFF1",
"|  c #EDF3F4",
" . c #F1F5F7",
".. c #F4F7F8",
"X. c #F5F9F9",
"o. c #FBFDFD",
"O. c None",
/* pixels */
"O.O.O.O.O.O.O.O.O.O.O.O.O.O.O.O.O.O.O.O.O.O.O.O.O.O.O.O.O.O.O.O.",
"O.O.O.O.O.O.O.O.O.O.O.O.O.O.O.O.O.O.O.O.O.O.O.O.O.O.O.O.O.O.O.O.",
"O.O.O.O.O.O.O.O.O.O.O.O.O.O.O.O.O.O.O.O.O.O.O.O.O.O.O.O.O.O.O.O.",
"O.O.O.O.O.O.O.O.O.O.( X.o.O.O.O.O.O.O.O.O.O.O.O.O.O.O.O.O.O.O.O.",
"O.O.O.O.O.O.O.O.' T x T ] | X.X.O.O.O.O.O.O.O.O.O.O.O.O.O.O.O.O.",
"O.O.O.O.O.O.' U i 4 < i Q / / ( | o.O.O.O.O.O.O.O.O.O.O.O.O.O.O.",
"O.O.O.O.^ T i 4 - - : 6 L / Q ! / `  .o.O.O.O.O.O.O.O.O.O.O.O.O.",
"O.O.O.( s 4 ; - < 4 4 w b / ( / / ! / ` ..O.O.O.O.O.O.O.O.O.O.O.",
"O.O.O.( d 3 0 u c n N m C / [ [ ) / ! ) | o.o.O.O.O.O.O.O.O.O.O.",
"O.O.O.` b r u v N N n a u b I ! [ [ ` | |  .X.o.o.O.O.O.O.O.O.O.",
"O.O.O.O.~ z k c c d y w y l K Y W / ` |  ...X.X.o.o.O.O.O.O.O.O.",
"O.O.O.O.[ n j e w w w y y l K R I W ! ) | | X.X.....o.O.O.O.O.O.",
"O.O.O.O._ e 4 8 w u y u u l K R W W Q ! / ) |  .....o.o.O.O.O.O.",
"O.O.O.O._ < # 4 y d u d f v K R I W Q Q ! / / I ` | |  .X.O.O.O.",
"O.O.O.O.^ i @ # > y u d j v K Y I W W Q ! ! I H I ` ) / _ X.O.O.",
"O.O.O.O.O.U < o & = 5 y q j K I I I I ! ! K J H J Q / Q ! X.O.O.",
"O.O.O.O.O.^ 9 & * O * 0 q f H I I I Q ! K G F F F J ! ! / ..O.O.",
"O.O.O.O.O.~ 9 * * O O = 7 d H P Q ! / ! K G F F A F I W ! ..O.O.",
"O.O.O.O.O.^ 4 * = O O % * 1 D R W / / / W D A A A V B I / X.O.O.",
"O.O.O.O.O.( a ; = O O $ % 1 N S P I ! / Q G Z Z V l l K ! ..O.O.",
"O.O.O.O.O.O.T 4 * X X O * j B N V A I Q / I A M f p g D W ..O.O.",
"O.O.O.O.O.O.' 9 * X X X ; l M z l v M C P K M f p p r h P ..O.O.",
"O.O.O.O.O.O._ 4 @     * p l l h k g p r p p 8 8 7 7 8 k R X.O.O.",
"O.O.O.O.O.O._ p @   & 9 g g p p p 7 3 1 , , 3 p p p l E | O.O.O.",
"O.O.O.O.O.O.O.U : . 4 a p t 9 5 1 , 1 t p t k R _ _ ` O.O.O.O.O.",
"O.O.O.O.O.O.O.( < o 9 9 6 < , , e t h E ' ` ( O.O.O.O.O.O.O.O.O.",
"O.O.O.O.O.O.O.^ 4 < 4 2 w t 9 a U ` ] O.O.O.O.O.O.O.O.O.O.O.O.O.",
"O.O.O.O.O.O.O.] m s t s T ` _ ' O.O.O.O.O.O.O.O.O.O.O.O.O.O.O.O.",
"O.O.O.O.O.O.O.O.] ( ^ ) O.O.O.O.O.O.O.O.O.O.O.O.O.O.O.O.O.O.O.O.",
"O.O.O.O.O.O.O.O.O.O.O.O.O.O.O.O.O.O.O.O.O.O.O.O.O.O.O.O.O.O.O.O.",
"O.O.O.O.O.O.O.O.O.O.O.O.O.O.O.O.O.O.O.O.O.O.O.O.O.O.O.O.O.O.O.O.",
"O.O.O.O.O.O.O.O.O.O.O.O.O.O.O.O.O.O.O.O.O.O.O.O.O.O.O.O.O.O.O.O."
};
