/* XPM */
static char *wallmid[] = {
/* columns rows colors chars-per-pixel */
"32 32 95 2 ",
"   c #1F2020",
".  c #202021",
"X  c #202121",
"o  c #212121",
"O  c #222222",
"+  c #232222",
"@  c #242323",
"#  c #262424",
"$  c #262524",
"%  c #262525",
"&  c #272525",
"*  c #272625",
"=  c #282625",
"-  c #282626",
";  c #292626",
":  c #292726",
">  c #292727",
",  c #2A2727",
"<  c #2A2827",
"1  c #2B2828",
"2  c #2D2929",
"3  c #2E2A29",
"4  c #2F2B2A",
"5  c #302B2A",
"6  c #312C2B",
"7  c #312D2B",
"8  c #322D2B",
"9  c #322C2C",
"0  c #322D2C",
"q  c #342E2D",
"w  c #352F2D",
"e  c #362F2F",
"r  c #36302E",
"t  c #37302E",
"y  c #37302F",
"u  c #37312F",
"i  c #38312F",
"p  c #373030",
"a  c #383030",
"s  c #3A3230",
"d  c #3A3231",
"f  c #3E3433",
"g  c #3E3434",
"h  c #3E3534",
"j  c #3F3534",
"k  c #403535",
"l  c #403635",
"z  c #413635",
"x  c #413636",
"c  c #413736",
"v  c #443837",
"b  c #453938",
"n  c #463938",
"m  c #463A39",
"M  c #473B39",
"N  c #473B3A",
"B  c #483B39",
"V  c #483B3A",
"C  c #493B3A",
"Z  c #493B3B",
"A  c #493C3B",
"S  c #4A3C3B",
"D  c #4B3D3C",
"F  c #4F403E",
"G  c #52433F",
"H  c #53433F",
"J  c #544341",
"K  c #544440",
"L  c #554441",
"P  c #554442",
"I  c #564542",
"U  c #594743",
"Y  c #594843",
"T  c #5A4844",
"R  c #5B4945",
"E  c #5D4A45",
"W  c #5D4A46",
"Q  c #624E49",
"!  c #634E49",
"~  c #634F49",
"^  c #644F4A",
"/  c #654F4A",
"(  c #65504A",
")  c #66504B",
"_  c #6C544F",
"`  c #6C554F",
"'  c #6D554F",
"]  c #6E5550",
"[  c #6E5650",
"{  c #6F5650",
"}  c #6F5651",
"|  c #6F5751",
" . c #705751",
".. c #785D56",
"X. c #7A5E57",
/* pixels */
"..X.X.Q w w Q X.X.............X.X.Q w w Q X.X.X.X.Q w w Q X.X...",
"_ ' ] U 0 0 U ] ' _ ` ` _ _ _ ' ] U 0 0 U ] ' ' [ Y 0 0 U ] ' _ ",
"J L P M 2 2 M P L J L L J J J L P M 2 2 M P L L I B 2 2 M P L J ",
"N V V g , , g C V b l l b V V V V g , , g C V n z e = < g V V N ",
"V Z A h , , h S S z 6 6 z A C Z A h , , h S S x 9 & + 1 j A Z V ",
"f h j y * & e j k y & % e h g g h e & & e j k p *     = y h g f ",
"> , 1 ; + O & , 1 - O O & > > > > & O O & , 1 ; +     O & > > > ",
"t 6 # # 7 i u 6 $ $ 8 i t r r r r t y u y 6 $ $ 8 i i y t r r r ",
"( G 5 4 G ) ) G 5 5 H ( ^ ! ! ! ! ! ~ / ( G 5 5 H ( / ~ ! ! ! ! ",
" .W d s E  . .T 0 0 T | { ] ] ] ] ] ] { | T 0 0 T  .} [ ] ] ] ] ",
"P F v v F I I B 2 2 B I P L L L L L L P I B 2 2 B I I P L L L L ",
"N V A A V V V g , , g V V N N N N N N V V g , , g m z l b V V N ",
"V C A A C Z A h , , h A Z V V V V V V Z A h , 1 j c 9 6 z A C V ",
"f f f f f g h e & & e h g g h h g f f g h e & * y y & % y k j j ",
"> > > > > > > & O O & > > > 1 1 > > > > > & O O & & O O - 1 1 1 ",
"r r r r r r r t y y t t t 6 $ $ 6 t t r r t y y t t u 0 % X X X ",
"! ! ! ! ! ! ! ! ~ ~ ! ^ / G 5 5 G / ^ ! ! ! ~ ~ ! ^ ( K 7 . . X ",
"] ] ] ] ] ] [ [ ] ] ] { | T 0 0 T | { ] ] ] ] ] ] { | R q + - 1 ",
"L L L L L L P P L L L P I B 2 2 B I P L L L L L L P I B 3 - y k ",
"N N N V V b l l b V V V V g , , g V V N N N N N N V V g , 1 k D ",
"V V V C A z 6 6 z A C Z A h , , h A Z V V V V V V Z A h , 1 k D ",
"f f f h j y & % e h g g h e & & e h g g h h g f f g h e & * e h ",
"> > > , 1 - O O & > > > > & O O & > > > 1 1 > > > > > & O O & > ",
"r t t 6 $ $ 8 i t r r r r t y y t t t 6 $ $ 6 t t r r t y y t r ",
"! ^ / G 5 5 H ( ^ ! ! ! ! ! ~ ~ ! ^ / G 5 5 G / ^ ! ! ! ~ ~ ! ! ",
"] { | T 0 0 T | { ] ] ] ] ] ] ] [ }  .T 0 0 T  .} [ ] ] ] ] ] ] ",
"L P I B 2 2 B I P L L L L L L L P I I B 2 2 B I I P L L L L L L ",
"N V V g , , g V V N N N N V V b l z m g , , g m z l b V V N N N ",
"V Z A h , , h A Z V V V V C A z 6 9 c j 1 1 j c 9 6 z A C V V V ",
"h j j y - - y j j h h h h j j y = - a a ; ; a a - = y j j h h h ",
"1 1 1 ; @ @ ; 1 1 1 1 1 1 1 1 ; @ @ ; : @ @ : ; @ @ ; 1 1 1 1 1 ",
"o o o o O O o o o o o o o o o o O O o o O O o o O O o o o o o o "
};
