/* XPM */
static char *chest_50[] = {
/* columns rows colors chars-per-pixel */
"50 50 220 2 ",
"   c #452B13",
".  c #442710",
"X  c #46311B",
"o  c #4B331B",
"O  c #53371B",
"+  c #54391E",
"@  c #5D3D1F",
"#  c #603E1E",
"$  c #4E3924",
"%  c #4C3722",
"&  c #533B23",
"*  c #5C3E22",
"=  c #533F2A",
"-  c #603F20",
";  c #5E4024",
":  c #55412D",
">  c #5A432D",
",  c #544533",
"<  c #5B4633",
"1  c #5D4836",
"2  c #5B4B3A",
"3  c #634324",
"4  c #694625",
"5  c #6C4927",
"6  c #65472A",
"7  c #684728",
"8  c #6B4A2A",
"9  c #65482C",
"0  c #714D2A",
"q  c #79542E",
"w  c #604A35",
"e  c #644E3A",
"r  c #684D32",
"t  c #6D5136",
"y  c #66513D",
"u  c #6C543B",
"i  c #6D583F",
"p  c #745534",
"a  c #71573C",
"s  c #74593C",
"d  c #7A5B3A",
"f  c #7F5A33",
"g  c #6B5642",
"h  c #6C5843",
"j  c #735C44",
"k  c #7A5E41",
"l  c #735F49",
"z  c #76624B",
"x  c #7B644A",
"c  c #7B6246",
"v  c #7D6A53",
"b  c #776654",
"n  c #6E6354",
"m  c #825B32",
"M  c #835E37",
"N  c #8E5F2B",
"B  c #8C653A",
"V  c #8A6338",
"C  c #946A3B",
"Z  c #9A6D3D",
"A  c #916638",
"S  c #9D703E",
"D  c #836545",
"F  c #846A4C",
"G  c #8A6E4D",
"H  c #876846",
"J  c #946E43",
"K  c #986F40",
"L  c #8B704E",
"P  c #9D7443",
"I  c #94734C",
"U  c #9B754B",
"Y  c #99764B",
"T  c #826D55",
"R  c #8B6F50",
"E  c #816E58",
"W  c #8D7152",
"Q  c #85725B",
"!  c #8A755C",
"~  c #8C785F",
"^  c #877157",
"/  c #927352",
"(  c #9A7D5B",
")  c #977A56",
"_  c #A17644",
"`  c #A57A46",
"'  c #A57C4A",
"]  c #A97E4A",
"[  c #A97D47",
"{  c #A27D52",
"}  c #8D7A62",
"|  c #88796A",
" . c #927E64",
".. c #987F60",
"X. c #9C815D",
"o. c #AC824C",
"O. c #B1854D",
"+. c #B58A4F",
"@. c #AD8551",
"#. c #A3835C",
"$. c #A88556",
"%. c #B48B53",
"&. c #B98D54",
"*. c #B28C5A",
"=. c #B08751",
"-. c #BA9156",
";. c #B6905A",
":. c #BC945A",
">. c #BD9A5E",
",. c #B79156",
"<. c #958166",
"1. c #9D8362",
"2. c #96826A",
"3. c #9A856B",
"4. c #9E896D",
"5. c #9E8B73",
"6. c #9B8B7A",
"7. c #978974",
"8. c #A48661",
"9. c #A38C6C",
"0. c #AA8D69",
"q. c #A98A65",
"w. c #B08F64",
"e. c #AB906C",
"r. c #AE9066",
"t. c #BE9C61",
"y. c #B49569",
"u. c #A38E73",
"i. c #A59176",
"p. c #AB9474",
"a. c #A4927A",
"s. c #AB957A",
"d. c #AC9A7D",
"f. c #B29D7D",
"g. c #B49874",
"h. c #BCA27C",
"j. c #B5A07E",
"k. c #BFA064",
"l. c #C29A5E",
"z. c #C0935A",
"x. c #C39E61",
"c. c #C19F70",
"v. c #C4A263",
"b. c #CAAC6D",
"n. c #C5A96A",
"m. c #CDB472",
"M. c #9F9588",
"N. c #9A8C80",
"B. c #A39583",
"V. c #AE9D82",
"C. c #A69988",
"Z. c #B29E82",
"A. c #B5A284",
"S. c #BAA584",
"D. c #BAA68B",
"F. c #BDAB8B",
"G. c #B7A78B",
"H. c #B6A994",
"J. c #BCAC92",
"K. c #B4A897",
"L. c #BEB299",
"P. c #BDB197",
"I. c #AEA295",
"U. c #B5ADA4",
"Y. c #B8ADA4",
"T. c #BCB5AC",
"R. c #BEB2A4",
"E. c #C2AE8D",
"W. c #C2B18D",
"Q. c #C2AE91",
"!. c #C4B393",
"~. c #C3B59B",
"^. c #CABB9D",
"/. c #C7B89C",
"(. c #CBBDA4",
"). c #C8BCA9",
"_. c #C4BCB4",
"`. c #CEC1A4",
"'. c #CDC1A9",
"]. c #D2C3A5",
"[. c #D2C5AC",
"{. c #D5C9AF",
"}. c #D8C9AD",
"|. c #CAC3BB",
" X c #CAC2B5",
".X c #D6CBB3",
"XX c #DACFB8",
"oX c #D4C9B6",
"OX c #DCD2BA",
"+X c #DBD1B7",
"@X c #E3D3BE",
"#X c #D2CBC2",
"$X c #D6CFC6",
"%X c #DBD2C4",
"&X c #D7D1CA",
"*X c #DED9D5",
"=X c #CCC8C2",
"-X c #E5DCC6",
";X c #E1D6C9",
":X c #E5DDCB",
">X c #E0D5C4",
",X c #E3DDD4",
"<X c #E4DED7",
"1X c #E9E1CD",
"2X c #E7E0CA",
"3X c #E6E1D5",
"4X c #EBE4D2",
"5X c #E6E2DB",
"6X c #E9E5DD",
"7X c #EEE8D7",
"8X c #EFECEA",
"9X c #EBE8E3",
"0X c #F1EFEB",
"qX c #F3EFE4",
"wX c #F4F1ED",
"eX c #F6F4F2",
"rX c #FAF9F6",
"tX c #FFFFFE",
"yX c #F9F7F2",
"uX c None",
/* pixels */
"uXuXuXuXuXuXuXuXuXuXuXuXuXuXuXuXuXuXuXuXuXuXuXuXuXuXuXuXuXuXuXuXuXuXuXuXuXuXuXuXuXuXuXuXuXuXuXuXuXuX",
"uXuXuXuXuXuXuXuXuXuXuXuXuXuXuXuXuXuXuXuXuXuXuXuXuXuXuXuXuXuXuXuXuXuXuXuXuXuXuXuXuXuXuXuXuXuXuXuXuXuX",
"uXuXuXuXuXuXuXuXuXuXuXuXuXuXuXuXuXuXuXuXuXuXuXuXuXuXuXuXuXuXuXuXuXuXuXuXuXuXuXuXuXuXuXuXuXuXuXuXuXuX",
"uXuXuXuXuXuXuXuXuXuXuXuXuXuXuXuXuXuXuXuXuXuXuXuXuXuXuXuXuXuXuXtXtXtXtXtXtXtXtXtXuXuXuXuXuXuXuXuXuXuX",
"uXuXuXuXuXuXuXuXuXuXuXuXuXuXuXuXuXuXuXuXuXuXuXuXuXuXuXuXuXuXuX9X6X6X6X6X6X6X3X6X9XuXuXuXuXuXuXuXuXuX",
"uXuXuXuXuXuXuXuXuXuXuXuXuXuXuXuXuXuXuXuXuXuXuXuXuXuXuXuXyXrXwXoXP.P.L.L.P.P.L.L.%XrXuXuXuXuXuXuXuXuX",
"uXuXuXuXuXuXuXtXtXtXtXtXuXuXuXuXuXuXuXuXuXtXtXtXtXtXtXwX].E.S.y.*.r.r.#.~ d.'.L.(.%X0XuXuXuXuXuXuXuX",
"uXuXuXuXuXuX9X5X5X5X*X5X9XuXuXuXuXuXuXuX<X;X>X;X;X:X1X@Xc.o.o.o.o.o.O.o.C 9.L.'.(.).,XwXuXuXuXuXuXuX",
"uXuXuXrXtXeXT.M.C.M.M.M.|.tXtXrXrXrXtXeXE.' { U { *.;.;.:.>.v.,.O.+.,.>.,.o.1.`.XX).'.%XrXuXuXuXuXuX",
"uXuX8XU.M.M.| n b 2.a.a.K. X|.R.C.Z.D.D.#.Z _ ] ] ` o.+.,.>.k.v.v.v.>.-.>.%.@.j./.XX{.{.:XwXuXuXuXuX",
"uX8X=Xb , , 2 2 y Q 6.a.a.M.C.<.d q m B Z ` =.*.*.o.@.%.-.:.>.n.m.m.l.+.>.x.:.@.f.}..X[.'.3XyXuXuXuX",
"tXT.n 2 , 2 y g i z n b 7.H.V.M.u.H m C _ ` ] O.%.:.%.o.,.>.t.k.n.m.l.&.k.v.l.-.*.y.}.%X{.OX4XrXuXuX",
"tXU., , 2 2 y h h h h j Q a.H.H.C.u.U C S ` ] o.%.x.&.` ,.l.x.t.v.b.v.v.z.l.x.l.@.#..X1X+X+X1XrXuXuX",
"tXU.2 , 2 2 1 y i j j z z ^ V.P.H.H.s.U P _ ] O.&.l.;.o.,.l.l.v.v.v.m.b.-.z.x.l.*.( /.-X-X2X4XyXtXuX",
"tXU.2 , : % % $ : t x c c x <.V.).P.D.f.$.S [ O.+.-.>.t.O.+.l.v.v.v.m.b.+.-.x.x.:.@.) S.2X1X1X1XqXtX",
"tXU.2 2 : X X + O > u a k v x X.Z.J.(.J.f.#.` [ +.+.x.n.o.O.l.l.v.v.n.b.l.:.:.l.:.o.B 9.2X4X2X-XqXtX",
"tXU.2 , : X + ; * - * 3 p F G R ( ~. X~.~.Z._ _ ] &.z.v.=.O.:.l.l.l.l.v.m.>.@.>.:.` H e.2X4X2X-XqXtX",
"tXY.2 < : o & ; 3 3 3 7 8 p H G ) ~.{.~.).Q.U K ] ] &.z.>.,.O.&.l.l.z.l.b.-.o.&.+.` B u.-X7X2XOX7XtX",
"tXY.1 < : X + 3 3 3 7 8 7 8 F L ( /.oX).oXQ.J C [ ] [ &.x.:.` &.:.:.-.:.t.=.` ' *.y.8.G.2X2XOX.X6XtX",
"tXY.1 < : X + ; 3 6 7 8 7 0 D W ( ~.+X.XXX!.J C _ ` ] ] :.&.` O.&.&.&.,.:.$.K ` g.(.(..X1XOX'.'.6XtX",
"tXY.1 1 1 > O o o ; 7 4 5 0 p V / 9.F..XXX(.D.{ C S _ ` -.O.K _ o.o.S =.c.S.h.h.!.[.[.OX:XOX'.'.3XtX",
"tXY.1 1 y y : o & ; ; 7 4 5 4 d / / p.}.XXXXXX0.m C Z _ ] ] { { $.$.$.r./.'.'.].].[.'..X-XXX'.(.3XtX",
"tXY.1 1 e y y y i > & > 6 4 4 d / / p..XXX.X.X9.m A A C Z $.E.E.F.W.W.!.^.^.].].].].(.}.>X.X(.^.3XtX",
"tXY.w < e y a k c u u s t 7 7 d R / p..XXX{.(.8.m #.0.q.w.f.!.S.p.y.^.OX+X.X].].].^.f.F.OX{./.^.3XtX",
"tXY.1 1 w 1 p s c c x F k t t c R I p.{..X(.E.#.I S.!.!.!./.W.q./ 1./.-XOXXX.X!.E.S.) 9.XX[.!.!.:XtX",
"tXY.1 < : % * 9 i c x x x D x G W G p.'.^.J.F.A.f.E.W.W.W.!.J.#.1.J.[.(.E.(..Xy.U U J 0.{.(.E.Q.:XtX",
"tXU.< < = X O 6 r t s x G G L W L L i.(.~.F.F.F.J.E.F.J.J.!.W.X.8.^.[.~.8.F.}.*.S S Z w.[.(.E.E.:XtX",
"tXU.< < = X O ; ; ; 8 c x H G G L F 9.(./.S.F.F.F.F.S.S.j.S.j.X.( !.(.Q.0.F.].y.O.] Z w.[.^.S.E.&XtX",
"tXU.< < &   + - ; 4 4 7 8 p D L L H 9.`.~.A.G.F.F.F.e.Y Y I L c / Q.^.^./.(.(.x.O.o.Z $.(.Q.Z.Z.%XtX",
"tXU.< < $   + 3 3 4 4 ; 3 8 p d d H 4.^.!.A.S.p.q.0.) Z Z C B m J 0.Z.Q./.Q.f.*.O.O.Z 8.(.Q.s.g.%XtX",
"tXU.< = $ . O - 4 7 4 4 4 4 - # 4 k 9.~.Q.A.S.) M V C P o.o.P A N A ( s.g.{ _ ] %.O.Z #.(.Q.p.s.%XtX",
"tXU.= = $ . & 3 7 7 8 4 4 4 4 # ; d 4.~.F.Z.f./ m V C ` o.o.S _ [ ] { U U ' [ +.+.] K { ~.F.p.p.%XtX",
"tXU.= = $   O 3 6 7 7 6 7 7 4 - 3 s 3.P.G.d.s./ m V K _ =.] P ] &.&.o.Y Y o.o.O.=.o.B X.P.G.p.p.%XtX",
"tXK.= = $   O 3 3 6 7 8 3 3 4 4 3 s <.J.Z.s.s.R m A K _ =.] _ @.&.:.*.;.>.,.o.o.o.X.B X.F.j.9.u.#XtX",
"tXI.% $ : o + O O ; 3 3 3 3 3 - 3 s ..G.V.s.i.R q A K _ =.@.` O.%.&.,.;.>.$.` S S C k X.F.f.4.4.#XtX",
"tXT.b , : : o o o + ; ; 3 3 3 - - a  .Z.B.u.i.R q B K _ =.] U ] %.%.=.%.,.o.S X.Y I L X.f.p.2.3.|.tX",
"uXeX&Xb = : : , > + + ; 3 ; - - - s } Z.a.9.u.F q M J K ] ' P ` @.@.o.U @.P J p.A.A.d.s.u.7.<.<.oXtX",
"uXuX8XT.| : $ : > : : + ; ; - # - a ! d.i.3.3.D 0 M A K ' P M Z S Y $.r.j.e.q.d.A.d.s.5.2.K. X X*XuX",
"uXuXuXtX|.n l h 1 < > + + - ; @ - a ! a.u. ...D 8 p M M K K H J Y I e.G.G.G.A.a.4.4.a.a.B.%XtXtXuXuX",
"uXuXuXuX5X*X*XU.y : 1 < > : ; @ - s ^ a.u. .} k 7 0 0 0 q I g.f.j.j.a.i.u.u.5.3.<.5.oX9X6X8XuXuXuXuX",
"uXuXuXuXuXtXtX*XC.b = 1 < = 9 * = j ^ u. . .~ s 7 D F F G <.s.V.V.d.u.<. .} 2.K.)._.5XtXtXuXuXuXuXuX",
"uXuXuXuXuXuXuXuXeXC.g 1 w g g e - t T 3. .} ! j t 2.u.a.a.5... .} }  .2.4.3.B.5XtXrXuXuXuXuXuXuXuXuX",
"uXuXuXuXuXuXuXuXuX*XY.h = e e w e g E  . .Q Q T F }  .<.2. .} ! ^ Q E 5.#X,X,XuXuXuXuXuXuXuXuXuXuXuX",
"uXuXuXuXuXuXuXuXuXuX<XC.E < 1 w y u b } } Q Q Q Q E E v E E Q B.K.I.I.R.8XtXtXuXuXuXuXuXuXuXuXuXuXuX",
"uXuXuXuXuXuXuXuXuXuXuXeXI.g g g e e l } E T T T T R E Q } v | #XrXeXeXyXuXuXuXuXuXuXuXuXuXuXuXuXuXuX",
"uXuXuXuXuXuXuXuXuXuXuXuX&X_._.N.w 1 j Q E v x l z x B.#X#X#X$X5XuXuXuXuXuXuXuXuXuXuXuXuXuXuXuXuXuXuX",
"uXuXuXuXuXuXuXuXuXuXuXuXuXtXtX_.| g g E v E 7.N.N.6._.tXtXtXtXuXuXuXuXuXuXuXuXuXuXuXuXuXuXuXuXuXuXuX",
"uXuXuXuXuXuXuXuXuXuXuXuXuXuXuXuX<X| e E l 7.<XwX0X8X0XuXuXuXuXuXuXuXuXuXuXuXuXuXuXuXuXuXuXuXuXuXuXuX",
"uXuXuXuXuXuXuXuXuXuXuXuXuXuXuXuXuX_.T._._. X0XuXuXuXuXuXuXuXuXuXuXuXuXuXuXuXuXuXuXuXuXuXuXuXuXuXuXuX",
"uXuXuXuXuXuXuXuXuXuXuXuXuXuXuXuXuXtXtXtXtXtXuXuXuXuXuXuXuXuXuXuXuXuXuXuXuXuXuXuXuXuXuXuXuXuXuXuXuXuX"
};
