/* XPM */
static char *coin50[] = {
/* columns rows colors chars-per-pixel */
"50 50 204 2 ",
"   c #7C460A",
".  c #744205",
"X  c #834B0C",
"o  c #894F0B",
"O  c #8C510C",
"+  c #92530F",
"@  c #864F14",
"#  c #8D5B1D",
"$  c #8D5515",
"%  c #935917",
"&  c #9A5C15",
"*  c #935C1A",
"=  c #9A5E1A",
"-  c #925712",
";  c #9B621E",
":  c #A2651E",
">  c #8B5B22",
",  c #935D22",
"<  c #8A602B",
"1  c #9C6524",
"2  c #986628",
"3  c #9F722F",
"4  c #976A38",
"5  c #A56A23",
"6  c #A96D24",
"7  c #A46D2A",
"8  c #A06622",
"9  c #AB7126",
"0  c #AB732C",
"q  c #AB7629",
"w  c #B27A2C",
"e  c #BA7E2F",
"r  c #B17629",
"t  c #A27534",
"y  c #AB7730",
"u  c #AD7B34",
"i  c #B27D33",
"p  c #B37E38",
"a  c #A47D44",
"s  c #B6802F",
"d  c #B58135",
"f  c #BB8435",
"g  c #BC8936",
"h  c #B3823A",
"j  c #BA863A",
"k  c #BC8B3C",
"l  c #C38D35",
"z  c #C28D3B",
"x  c #C5943C",
"c  c #CA933B",
"v  c #C5983E",
"b  c #CB963A",
"n  c #D19538",
"m  c #CEA23F",
"M  c #B78F48",
"N  c #B98D47",
"B  c #BC9248",
"V  c #AA865E",
"C  c #A9845B",
"Z  c #B3895B",
"A  c #BE9650",
"S  c #B7935A",
"D  c #A98761",
"F  c #AC8964",
"G  c #A68662",
"H  c #BB9C79",
"J  c #BC9973",
"K  c #BDA07F",
"L  c #C08F43",
"P  c #CA9542",
"I  c #C59844",
"U  c #CA9D44",
"Y  c #C2954B",
"T  c #C59B4B",
"R  c #CA9D4A",
"E  c #C39344",
"W  c #D19B48",
"Q  c #C29B54",
"!  c #CB9F58",
"~  c #CEA545",
"^  c #CDA34D",
"/  c #D3A246",
"(  c #D2A34D",
")  c #D3AC4C",
"_  c #D7A546",
"`  c #D9B24E",
"'  c #CBA452",
"]  c #CEA65A",
"[  c #CEA95C",
"{  c #C8A458",
"}  c #D3AC52",
"|  c #D9AB54",
" . c #D4AC5C",
".. c #DAA95A",
"X. c #D6B255",
"o. c #D9B454",
"O. c #DEBC55",
"+. c #D6B35B",
"@. c #DBB55B",
"#. c #DBBA5B",
"$. c #E1BD56",
"%. c #C09F7B",
"&. c #D2AE63",
"*. c #D9AF61",
"=. c #D5B264",
"-. c #DAB564",
";. c #DCBB64",
":. c #D6B46A",
">. c #DAB66B",
",. c #DCBB6B",
"<. c #C0A07B",
"1. c #DCBC73",
"2. c #CDA865",
"3. c #E1B868",
"4. c #E1BD72",
"5. c #E2C156",
"6. c #E3C35C",
"7. c #DEC16D",
"8. c #DFC272",
"9. c #DBC07E",
"0. c #E5C464",
"q. c #E8C966",
"w. c #E1C46C",
"e. c #E6C967",
"r. c #E2C374",
"t. c #E6CB75",
"y. c #E4C47B",
"u. c #E6CA7B",
"i. c #E9CC7D",
"p. c #E8C875",
"a. c #EBD37A",
"s. c #BBA385",
"d. c #C2AC90",
"f. c #CCB496",
"g. c #CDB18B",
"h. c #CFBFAB",
"j. c #E6CA83",
"k. c #E9CD83",
"l. c #E2C789",
"z. c #E6CC8A",
"x. c #E7CB88",
"c. c #ECD284",
"v. c #EDD38A",
"b. c #EFD98E",
"n. c #F1D68E",
"m. c #F2DA8C",
"M. c #F0D984",
"N. c #EDD493",
"B. c #ECD598",
"V. c #F3DC93",
"C. c #F4DE9B",
"Z. c #F0D590",
"A. c #E6CF99",
"S. c #F5E294",
"D. c #F5E39C",
"F. c #F9E59B",
"G. c #FAE99D",
"H. c #F9E496",
"J. c #D8C5AC",
"K. c #DBCCBB",
"L. c #D9C8B6",
"P. c #DED0BF",
"I. c #EAD6A4",
"U. c #ECDAA6",
"Y. c #EAD5A8",
"T. c #F4DEA3",
"R. c #E8D7B9",
"E. c #F1DFB0",
"W. c #F5E3A2",
"Q. c #F8E5A2",
"!. c #F7EAA3",
"~. c #F9EAA5",
"^. c #F6E4AA",
"/. c #F8E7AB",
"(. c #FBEDAB",
"). c #F7EAAB",
"_. c #FCF1AD",
"`. c #EFE1B4",
"'. c #F9EBB1",
"]. c #FCECBB",
"[. c #F5E6BA",
"{. c #FEF4B4",
"}. c #FEF5BA",
"|. c #FFFABA",
" X c #E9DED3",
".X c #E4DBD0",
"XX c #F5E9C8",
"oX c #FEF4C3",
"OX c #FFF8C0",
"+X c #FEF6C9",
"@X c #EDE5DB",
"#X c #F6EEDA",
"$X c #F5EBD5",
"%X c #FBF3DC",
"&X c #FEF7D5",
"*X c #FBF4E1",
"=X c #FEFAE4",
"-X c #F6F3EF",
";X c #FEFBEB",
":X c #FCF7EA",
">X c #FDFBF5",
",X c #FFFEFE",
"<X c #F8F5F2",
"1X c None",
/* pixels */
"1X1X1X1X1X1X1X1X1X1X1X1X1X1X1X1X1X1X1X1X1X1X1X1X1X1X1X1X1X1X1X1X1X1X1X1X1X1X1X1X1X1X1X1X1X1X1X1X1X1X",
"1X1X1X1X1X1X1X1X1X1X1X1X1X1X1X1X1X1X1X1X1X1X1X1X1X1X1X1X1X1X1X1X1X1X1X1X1X1X1X1X1X1X1X1X1X1X1X1X1X1X",
"1X1X1X1X1X1X1X1X1X1X1X1X1X1X1X1X1X1X1X1X1X1X1X1X1X1X1X1X1X1X1X1X1X1X1X1X1X1X1X1X1X1X1X1X1X1X1X1X1X1X",
"1X1X1X1X1X1X1X1X1X1X1X1X1X1X1X1X1X1X1X1X1X1X1X1X1X1X1X1X1X1X1X1X1X1X1X1X1X1X1X1X1X1X1X1X1X1X1X1X1X1X",
"1X1X1X1X1X1X1X1X1X1X1X1X1X1X1X1X1X1X1X1X1X1X1X1X1X1X1X1X1X1X1X1X1X1X1X1X1X1X1X1X1X1X1X1X1X1X1X1X1X1X",
"1X1X1X1X1X1X1X1X1X1X1X1X1X1X1X1X1X1X1X1X1X1X1X1X1X1X1X1X1X1X1X1X1X1X1X1X1X1X1X1X1X1X1X1X1X1X1X1X1X1X",
"1X1X1X1X1X1X1X1X1X1X1X1X1X1X,X,X,X,X,X,X,X,X,X,X,X,X,X,X1X1X1X1X1X1X1X1X1X1X1X1X1X1X1X1X1X1X1X1X1X1X",
"1X1X1X1X1X1X1X1X1X1X1X1X1X1X*X%X*X*X*X*X*X=X=X=X=X;X;X;X1X1X1X1X1X1X1X1X1X1X1X1X1X1X1X1X1X1X1X1X1X1X",
"1X1X1X1X1X1X1X1X1X1X1X>X>X;XT.Z.C.V.C.C.T.T.T.^.'.}.}.oX;X,X,X1X1X1X1X1X1X1X1X1X1X1X1X1X1X1X1X1X1X1X",
"1X1X1X1X1X1X1X1X1X1X@Xf.J.E.v.u.k.j.v.n.V.V.C.T.'.}.OXoX&X%X&X;X,X,X1X1X1X1X1X1X1X1X1X1X1X1X1X1X1X1X",
"1X1X1X1X1X1X1X1X1X@XL.A ] u.y.y.4.k.j.1.4.4.j.x.N.T.T.^.oXoX].%X;X>X>X1X1X1X1X1X1X1X1X1X1X1X1X1X1X1X",
"1X1X1X1X1X1X1X1X>XK C :.y.1.8.y.y.y.&.p p j k z E P R ..T.oX].].oX+X;X,X1X1X1X1X1X1X1X1X1X1X1X1X1X1X",
"1X1X1X1X1X1X1X.Xs.S M 1.8.1.r.&.Y Y N i L [ &.' x v U ) 4.y.y.T.}.oX&X=X>X1X1X1X1X1X1X1X1X1X1X1X1X1X",
"1X1X1X1X1X1X,XK.< M r.:.:.:.>.B 6 8 w R r.V./.k.@.X.#.o./ b W j./.}.}.oX;X>X1X1X1X1X1X1X1X1X1X1X1X1X",
"1X1X1X1X1X1X,XK.< M y.:.:.&.h y w i T 4.v.D.~.!.b.;.#.#.@.o.$.| r.].OX}.+X=X,X1X1X1X1X1X1X1X1X1X1X1X",
"1X1X1X1X1X1X,XK.< M y.:.=.[ y 7 g ( 4.m.Z.Z.Q.(.!.c.w.#.3.w.i.| | j./.|.{.+X=X>X1X1X1X1X1X1X1X1X1X1X",
"1X1X1X1X1X1X<XJ.< M r.&.=.[ h w k ;.c.v.v.v.D.Q.Q.Q.c.0.,.k.D.i.@._ j.'.{.{.}.=X>X1X1X1X1X1X1X1X1X1X",
"1X1X1X1X1X-Xs.4 > A r.:.=.] h w g j z L 4.F.F.F.!.(.c.w.v.C.W.W.c.X.( 4.).{.(.'.$X,X1X1X1X1X1X1X1X1X",
"1X1X1X1X1X<XC . # A r.=.[ [ d w f r 6 w ] 4.4.v.~.(.Z.k.C.^.D.).D.a.} / y.C.!.V.[.,X1X1X1X1X1X1X1X1X",
"1X1X1X1X1X<XG   < A r.=.=.{ d w f z c U g e f >.G.~.Q.W.C.C.D.Q.(.D.u.} P 3.V.n.XX>X1X1X1X1X1X1X1X1X",
"1X1X1X1X1X-XG   # Q r.=.&.{ d r g x U ~ U U ~ ( -.C.!.W.C.C.T.).'._.F.p.( R  .y.V.E.*X1X1X1X1X1X1X1X",
"1X1X1X1X1X-XG   # Q r.=.=.[ k g f x v ( } #.7. . .V.!.C.C.C.C.Z.v.n.c.p.X.c z 4.i.j.#X,X1X1X1X1X1X1X",
"1X1X1X1X1X-XF   * Q r.=.=.+.+.T g x U ) X.#.7.c.W.~.!.D.C.C.V.*.P P P P ) P z ,.u.z.%X,X1X1X1X1X1X1X",
"1X1X1X1X1X-XF   , u Q =.=.=.;.^ g x x x ,.c.c.D._.~.D.C.D.C.V.u.@.R U R ( x g -.t.u.#X,X1X1X1X1X1X1X",
"1X1X1X1X1X-XF @ = 1 u >.r.=.;.' l x l s y.(.^.!.(.~.D.D.D.D.S.!.S.w.;.#. .c l ( +.8.XX;X1X1X1X1X1X1X",
"1X1X1X1X1X-XF @ , = u >.8.,.>.} g b l s y.'.D.!._.~.F.D.!.!.V.D.F.m.c.w.X.) v g I ;.j.`.>X1X1X1X1X1X",
"1X1X1X1X1X-XV o = 8 i >.r.,.,.-.} U b l  .j.!.{._.~.~.G.i.i.D.G.G.F.m.i.;.X.U w k ;.w.U.>X1X1X1X1X1X",
"1X1X1X1X1X-XJ 1 , = y *.r.7.7.8.8.} / / l R Z.(._._.{.~.|  .S.G.G.S.M.i.i.-.U w k +.8.Y.>X1X1X1X1X1X",
"1X1X1X1X1X1X Xf.1 = 7 p ] u.8.8.u.t.;.~ m m U x.|._.{.(.p.| ( c.~.G.m.c.u.7.m q j +.7.U.>X1X1X1X1X1X",
"1X1X1X1X1X1X,XK., & 6 5 j  .r.u.u.z.u.;.X.m c | v.~.|._.M.@.W $.i.!.H.c.a.#.v 9 h } 7.U.>X1X1X1X1X1X",
"1X1X1X1X1X1X,XP.3 = 6 6 9 h 1.c.u.c.b.m.7.) ) b W n.(.~.a.q.3.n ( Z.S.c.8.+.v q d ' :.U.>X1X1X1X1X1X",
"1X1X1X1X1X1X1X@XJ.Z & : 6 i =.i.k.c.b.F.S.a.` _ _ W ..$.3.q.0.$./ ^ c.v.Y v k 3 s ' =.U.>X1X1X1X1X1X",
"1X1X1X1X1X1X1X1X>XJ + : 6 w R 4.v.v.V.~.{.!.t.6.` n n m $.6.6.6.| l  .>.f w g q h ' =.I.>X1X1X1X1X1X",
"1X1X1X1X1X1X1X1X>X%.% : 6 6 r ! Z.C.T.'.}.{.{.a.5.O.$.5.5.5.6.5.O.` z f I d 7 k B ^ &.I.>X1X1X1X1X1X",
"1X1X1X1X1X1X1X1X1X.X%.1 & 6 6 p ! x.).}.}.|.}.!.m.S.a.5.5.$.$.$.O.o.U x ~ i 1 k ^ B +.A.>X1X1X1X1X1X",
"1X1X1X1X1X1X1X1X1X1X XZ 7 : 6 5 9 2.x.N.).{.}.{.|.{.H.q.q.q.6.$.o.} } } ^ k y B B ^ 1.E.>X1X1X1X1X1X",
"1X1X1X1X1X1X1X1X1X1X1X@X%.% ; 5 5 0 0 p l.}.{.}.{.|.).S.V.V.M.3.) ) ) } =.&.{ ' Y { R.>X1X1X1X1X1X1X",
"1X1X1X1X1X1X1X1X1X1X1X1XK.%.2 - ; ; & : N 9._.|.|.{.(.Q.Q.F.C.c.t.t.;.-.,.>. .{ T &.$X,X1X1X1X1X1X1X",
"1X1X1X1X1X1X1X1X1X1X1X1X1X@XV , % % ; : & h z.W.W.{.(.Q.F.F.C.F.F.m.c.r.,.=. .' :.l.#X,X1X1X1X1X1X1X",
"1X1X1X1X1X1X1X1X1X1X1X1X1X1X XH @ X $ * * ; y u A S._.D.C.C.V.H.H.H.c.r.,.=. .=.A.#X1X1X1X1X1X1X1X1X",
"1X1X1X1X1X1X1X1X1X1X1X1X1X1X1XK.H H a @ @ o o + 1 { :.2.&.4.m.F.H.H.M.r.,.l.Y.Y.XX>X1X1X1X1X1X1X1X1X",
"1X1X1X1X1X1X1X1X1X1X1X1X1X1X1X1X>X,XL.4 , < < , $ % % * 1 B y.c.m.n.c.k.j.[.>X,X,X1X1X1X1X1X1X1X1X1X",
"1X1X1X1X1X1X1X1X1X1X1X1X1X1X1X1X1X1X@XK.K.P.K.D       X X # 7 t 7 t f.%X#X*X1X1X1X1X1X1X1X1X1X1X1X1X",
"1X1X1X1X1X1X1X1X1X1X1X1X1X1X1X1X1X1X1X,X,X,X,Xf.F F F F F F D D D F J.,X,X1X1X1X1X1X1X1X1X1X1X1X1X1X",
"1X1X1X1X1X1X1X1X1X1X1X1X1X1X1X1X1X1X1X1X1X1X1X-X<X-X-X-X<X-X-X-X-X-X1X1X1X1X1X1X1X1X1X1X1X1X1X1X1X1X",
"1X1X1X1X1X1X1X1X1X1X1X1X1X1X1X1X1X1X1X1X1X1X1X1X1X1X1X1X1X1X1X1X1X1X1X1X1X1X1X1X1X1X1X1X1X1X1X1X1X1X",
"1X1X1X1X1X1X1X1X1X1X1X1X1X1X1X1X1X1X1X1X1X1X1X1X1X1X1X1X1X1X1X1X1X1X1X1X1X1X1X1X1X1X1X1X1X1X1X1X1X1X",
"1X1X1X1X1X1X1X1X1X1X1X1X1X1X1X1X1X1X1X1X1X1X1X1X1X1X1X1X1X1X1X1X1X1X1X1X1X1X1X1X1X1X1X1X1X1X1X1X1X1X",
"1X1X1X1X1X1X1X1X1X1X1X1X1X1X1X1X1X1X1X1X1X1X1X1X1X1X1X1X1X1X1X1X1X1X1X1X1X1X1X1X1X1X1X1X1X1X1X1X1X1X",
"1X1X1X1X1X1X1X1X1X1X1X1X1X1X1X1X1X1X1X1X1X1X1X1X1X1X1X1X1X1X1X1X1X1X1X1X1X1X1X1X1X1X1X1X1X1X1X1X1X1X"
};
