/* XPM */
static char *helmet50[] = {
/* columns rows colors chars-per-pixel */
"50 50 150 2 ",
"   c #3B2C1F",
".  c #3D2D23",
"X  c #423325",
"o  c #453529",
"O  c #483729",
"+  c #47382B",
"@  c #4A3A2D",
"#  c #513E2E",
"$  c #4D3E31",
"%  c #503F32",
"&  c #4E4134",
"*  c #524335",
"=  c #594635",
"-  c #5A4937",
";  c #544639",
":  c #56493B",
">  c #5C4C3C",
",  c #604E3E",
"<  c #63503E",
"1  c #5C4E41",
"2  c #5E5144",
"3  c #645344",
"4  c #695746",
"5  c #6B5847",
"6  c #635648",
"7  c #695748",
"8  c #66594B",
"9  c #6B5B4B",
"0  c #715E4E",
"q  c #6D5F50",
"w  c #715F50",
"e  c #6F604F",
"r  c #73604E",
"t  c #6E6153",
"y  c #746453",
"u  c #786655",
"i  c #766856",
"p  c #7A6956",
"a  c #736658",
"s  c #786758",
"d  c #76695A",
"f  c #7C6C5B",
"g  c #7E705F",
"h  c #746960",
"j  c #7A6E61",
"k  c #7D7163",
"l  c #7D736B",
"z  c #806F5D",
"x  c #82715E",
"c  c #816F60",
"v  c #847463",
"b  c #887766",
"n  c #877967",
"m  c #897966",
"M  c #82766A",
"N  c #857A6C",
"B  c #8C7C6A",
"V  c #907E6B",
"C  c #847B72",
"Z  c #887D73",
"A  c #8E806E",
"S  c #93826D",
"D  c #99856F",
"F  c #8E8173",
"G  c #8D847B",
"H  c #948572",
"J  c #988771",
"K  c #968975",
"L  c #9B8B75",
"P  c #90867C",
"I  c #968978",
"U  c #9C8D79",
"Y  c #9D917D",
"T  c #A08F79",
"R  c #A3937D",
"E  c #A8967E",
"W  c #958C83",
"Q  c #9F9481",
"!  c #9C9389",
"~  c #A49681",
"^  c #A89781",
"/  c #A59984",
"(  c #AA9B84",
")  c #A69B89",
"_  c #AB9E89",
"`  c #A49B93",
"'  c #A59F99",
"]  c #ACA18D",
"[  c #B0A087",
"{  c #B2A38D",
"}  c #B7A88E",
"|  c #AEA492",
" . c #A7A09A",
".. c #AAA199",
"X. c #B2A692",
"o. c #B5A993",
"O. c #BAAC94",
"+. c #B5AB99",
"@. c #B8AD99",
"#. c #BDB39C",
"$. c #B5ADA6",
"%. c #BAAFA4",
"&. c #BDB4A3",
"*. c #B6B1AD",
"=. c #BBB4AC",
"-. c #BEB8A9",
";. c #BBB5B0",
":. c #BFB9B3",
">. c #C1B59C",
",. c #C0B7A4",
"<. c #C4BBA5",
"1. c #C3B7A9",
"2. c #C5BDAB",
"3. c #C8BDAD",
"4. c #C3BCB4",
"5. c #C8BFB2",
"6. c #C3BEBA",
"7. c #C7C0AC",
"8. c #C8C0AE",
"9. c #CAC2B2",
"0. c #C6C2BD",
"q. c #CBC4BC",
"w. c #CEC8BA",
"e. c #D1CABC",
"r. c #C7C3C0",
"t. c #C8C4C1",
"y. c #CCC8C4",
"u. c #D2CBC1",
"i. c #D1CDCA",
"p. c #D4D1CD",
"a. c #DAD4CC",
"s. c #DCD8CE",
"d. c #D9D6D3",
"f. c #DDD8D2",
"g. c #DEDBD9",
"h. c #E2DCD4",
"j. c #E2DFDB",
"k. c #E5E1DB",
"l. c #E9E4DE",
"z. c #E7E4E2",
"x. c #E9E6E1",
"c. c #ECEAE6",
"v. c #EDEBE9",
"b. c #F0EEEC",
"n. c #F1F0EF",
"m. c #F4F3F1",
"M. c #F8F7F5",
"N. c #F9F8F7",
"B. c #FFFEFE",
"V. c None",
/* pixels */
"V.V.V.V.V.V.V.V.V.V.V.V.V.V.V.V.V.V.V.V.B.B.B.B.B.B.B.B.B.B.B.B.B.B.V.V.V.V.V.V.V.V.V.V.V.V.V.V.V.V.",
"V.V.V.V.V.V.V.V.V.V.V.V.V.V.V.V.V.V.V.V.0.=.=.4.4.4.4.4.0.9.q.q.q.u.j.V.V.V.V.V.V.V.V.V.V.V.V.V.V.V.",
"V.V.V.V.V.V.V.V.V.V.V.V.V.V.V.V.V.v.b.z.! e i g x g k v B B H K I Q a.B.V.V.V.V.V.V.V.V.V.V.V.V.V.V.",
"V.V.V.V.V.V.V.V.V.V.V.V.V.V.B.B.n.` Z F F S K I U U Y Q ) ] ) | | +.f.B.V.V.V.V.V.V.V.V.V.V.V.V.V.V.",
"V.V.V.V.V.V.V.V.V.V.V.V.V.V.q.0.;.N 9 e n K K U Y Y Y / ) ] | ..+.-.k.B.V.V.V.V.V.V.V.V.V.V.V.V.V.V.",
"V.V.V.V.V.V.V.V.V.V.V.V.B.g.N 2 9 v A B g y i g g v n m N A H L / %.g.B.V.V.V.V.V.V.V.V.V.V.V.V.V.V.",
"V.V.V.V.V.V.V.V.V.V.V.B.:.F d a a f f f e 3 4 5 5 9 9 9 9 r i A ~ ) 2.s.M.V.V.V.V.V.V.V.V.V.V.V.V.V.",
"V.V.V.V.V.V.V.V.V.V.V.i.W 6 i g a 9 6 8 3 < 3 < < 3 < 3 < < 5 g S U ] w.M.V.V.V.V.V.V.V.V.V.V.V.V.V.",
"V.V.V.V.V.V.V.V.V.B.f.j 9 i y e , , > < 5 r r y y r 0 0 0 0 0 5 f R +.u.m.B.V.V.V.V.V.V.V.V.V.V.V.V.",
"V.V.V.V.V.V.V.V.V.B.d.8 & 2 > , 6 9 t y y i p p p i u u 0 0 5 B ) +.&.2.5.f.B.B.V.V.V.V.V.V.V.V.V.V.",
"V.V.V.V.V.V.V.V.V.z.:.q * - > 8 i g v g x g z f f p p u r 9 p ) ,.,.2.&.{ 5.x.x.z.V.V.V.V.V.V.V.V.V.",
"V.V.V.V.V.V.V.V.N.' 8 3 8 t f k m n n v v v x x z f z u 5 f _ { ] ] &.7.,.O._ T 2.B.V.V.V.V.V.V.V.V.",
"V.V.V.V.V.V.V.V.N.! * e i k n A F A B m b v v x x g y r v Y ] [ ( E } #.8.#.[ E +.u.b.V.V.V.V.V.V.V.",
"V.V.V.V.V.V.V.V.j.! 6 f n n N A A A A m b b b x f p r i E { ( ( ( ( ^ { 2.8.<.<.o.{ k.B.V.V.V.V.V.V.",
"V.V.V.V.V.V.B.i.l t d k n N A A B m m m x x x x i 5 x E / E E E ^ ( ^ } 2.9.7.2.O.} k.B.V.V.V.V.V.V.",
"V.V.V.V.V.V.B.y.2 6 g n A A A n n v v z z p r r r x K [ R Y R E ^ ^ ^ { 3.9.7.7.>.O.e.k.V.V.V.V.V.V.",
"V.V.V.V.V.V.N.6.t 8 g n n N v v k f i y r 0 5 < u T R L L T R E E E E [ <.7.8.7.<.>.} 8.N.V.V.V.V.V.",
"V.V.V.V.V.m. .k t t d d k f a 5 4 3 3 < < 0 x S V D D D J L T R R R R E _ >.8.8.<.>.} 9.N.V.V.V.V.V.",
"V.V.V.V.V.m.G ; t t a t t t 9 9 0 9 0 5 5 u V S S S m D D J L T R R R T R @.9.9.3.>.>.<.h.b.V.V.V.V.",
"V.V.V.V.V.m.P > t a y t 6 2 a g x x x b x z z z x x x S S S J T T T L T R O.9.9.7.<.>.} O.h.B.V.V.V.",
"V.V.V.V.V.m.P > t t t t 3 > a d r y p s f z u z x x x V A S S D L L L L R o.9.8.7.>.>.} [ h.B.V.V.V.",
"V.V.V.V.V.m.P : t t 9 6 > ; 5 5 3 4 5 5 0 u z z x x V x A S S S J J D T R o.0.7.7.7.>.} [ h.B.V.V.V.",
"V.V.V.V.V.m.F * 8 e 2 & @ & ; ; - 3 5 5 0 r r z x V A A D D S S D D J L E @.8.7.7.7.7.O.} h.B.V.V.V.",
"V.V.V.V.V.n.F & 2 8 : o * 8 y 9 < , 3 5 0 0 r 5 < < 5 < r x T E ( _ R U E @.9.9.[ L w.k.a.l.V.V.V.V.",
"V.V.V.V.V.m.Z $ 2 6 1 + 1 h N v 5 3 3 5 5 9 3 %     X @ # 0 T E [ [ ( ( [ #.3.&.m 6 1.M.B.V.V.V.V.V.",
"V.V.V.V.V.m.C @ 6 2 1 . 1 t k h 0 0 5 , , = O X     o @ # , 5 0 r u Y #.#.7.&.b 1 1 B 5.N.V.V.V.V.V.",
"V.V.V.V.V.m.F + 2 2 1 + + 1 6 q 0 y w 5 3 4 3 6 5 q > @ # = = , - < v U I Y A 3 5 m S #.M.V.V.V.V.V.",
"V.V.V.V.V.m.l + 1 1 1 + . $ ; 1 0 w u f z c V H L Y z : , < < 5 r r u s i y y 5 D @.[ 2.N.V.V.V.V.V.",
"V.V.V.V.V.m.l . 1 1 % % @ O = 3 7 w u f j v b B V V H H T ~ ~ ) ] | | | X.X.| | +.>.[ 3.N.V.V.V.V.V.",
"V.V.V.V.V.m. .j 1 & ; ; % $ % > 3 9 y s s s v b b b H / ( { X.o.+.#.&.2.9.9.8.3.2.>.[ 3.N.V.V.V.V.V.",
"V.V.V.V.V.V.B.0.; o : ; ; % % % 2 4 w s 7 9 c b b B V H H K L U R ~ _ o.5.3.>.#.#.O._ 3.N.V.V.V.V.V.",
"V.V.V.V.V.V.B.r.; o ; ; ; ; % % % 1 9 w 6 6 f b b B B B H B v H U E _ o.2.2.>.#.( J T 3.N.V.V.V.V.V.",
"V.V.V.V.V.V.B.t.& o ; * ; * ; & @ * 3 5 9 w s c b m B V H M s V T ~ _ o.2.2.#.#.L p D 3.N.V.V.V.V.V.",
"V.V.V.V.V.V.B.t.& o ; ; * ; * * % @ * 4 y f s s c v b Z V v f V T ~ ( } 2.2.#.@.J r V 3.N.V.V.V.V.V.",
"V.V.V.V.V.V.B.r.$ o ; ; * ; * * * # # = 5 u y u f y f N B H H J U ^ ( o.,.2.#.O.E V D 1.N.V.V.V.V.V.",
"V.V.V.V.V.V.B.r.& . & & ; * ; * * * @ # 1 9 0 u y 7 w b b H ~ U J U ^ } ,.,.#.O._ E { 9.N.V.V.V.V.V.",
"V.V.V.V.V.V.B.r.&   + & * & ; * * * $ @ > 7 9 y w 2 q v b B H U V z J } 1.,.@.} ( ( a.M.V.V.V.V.V.V.",
"V.V.V.V.V.m.*.Z 2 & & $ @ & * ; * * @ @ % 1 5 r w s f c M b B L B w V X.&.,.o.U D _ k.B.V.V.V.V.V.V.",
"V.V.V.V.V.d.l & 8 t 2 & + $ & * * * $ O o $ 4 9 s v v c v b B L V s V X.&.,._ f f ^ k.B.V.V.V.V.V.V.",
"V.V.V.B.6.h 8 8 t t 8 2 1 : @ + O % % O . $ 4 9 9 s f f c b B K U T ~ ] %.#._ p y L h.B.V.V.V.V.V.V.",
"V.V.V.r.W 2 t h t t t 2 8 2 ; & & @ @ X X @ 3 5 9 w y s d f B H U / _ ] O.+.( z H 1.z.V.V.V.V.V.V.V.",
"V.V.v.l 2 k l j t t t 2 8 2 1 2 > & @ @ O & , 3 7 9 y y 6 9 n F H U _ o.{ [ ^ V %.M.V.V.V.V.V.V.V.V.",
"V.V.c.l & 2 2 8 a d a a t 2 2 2 2 3 5 8 * X @ # - 7 q 0 : 3 v B H K ( X._ ( ~ B &.B.V.V.V.V.V.V.V.V.",
"V.V.v.' G W W Z t 8 8 8 t t 2 t 8 8 8 q v Z Z P Z 9 3 7 6 y v B B H / X.) R T X.u.N.V.V.V.V.V.V.V.V.",
"V.V.V.m.m.m.N.r.t 2 6 2 2 t a a d 6 1 8 ;.M.m.N.d.j 3 0 v v v n m B ~ | / K ~ j.B.V.V.V.V.V.V.V.V.V.",
"V.V.V.V.V.V.V.g.:.:.6.0.W 1 1 1 9 ' 6.6.d.V.V.V.V.0.6.=.M 4 9 g N A Y ) Y B I z.B.V.V.V.V.V.V.V.V.V.",
"V.V.V.V.V.V.V.V.B.B.B.B.;.C C l G p.B.B.V.V.V.V.V.B.B.v.` Z Z v s k K Y H I | z.V.V.V.V.V.V.V.V.V.V.",
"V.V.V.V.V.V.V.V.V.V.V.V.v.v.v.v.v.V.V.V.V.V.V.V.V.V.V.V.v.b.j.P , 3 v K m =.b.V.V.V.V.V.V.V.V.V.V.V.",
"V.V.V.V.V.V.V.V.V.V.V.V.V.V.V.V.V.V.V.V.V.V.V.V.V.V.V.V.V.V.V.6.$.*.5.y.0.a.V.V.V.V.V.V.V.V.V.V.V.V.",
"V.V.V.V.V.V.V.V.V.V.V.V.V.V.V.V.V.V.V.V.V.V.V.V.V.V.V.V.V.V.V.B.B.B.B.B.B.V.V.V.V.V.V.V.V.V.V.V.V.V."
};
