/* XPM */
static char *skull50[] = {
/* columns rows colors chars-per-pixel */
"50 50 133 2 ",
"   c #5C4632",
".  c #5E4935",
"X  c #62472C",
"o  c #644B33",
"O  c #694F34",
"+  c #634D38",
"@  c #6B5136",
"#  c #66503B",
"$  c #6B543D",
"%  c #71573C",
"&  c #73583D",
"*  c #6B5642",
"=  c #6E5943",
"-  c #6F5A48",
";  c #725C44",
":  c #795E42",
">  c #735E49",
",  c #7D6246",
"<  c #76614C",
"1  c #7A634C",
"2  c #7F684C",
"3  c #756354",
"4  c #7B6652",
"5  c #7E6954",
"6  c #7E6B58",
"7  c #82674B",
"8  c #856A4D",
"9  c #886C4E",
"0  c #836C54",
"q  c #8A6E51",
"w  c #826E59",
"e  c #8C7255",
"r  c #86725C",
"t  c #8B755C",
"y  c #8C785F",
"u  c #927456",
"i  c #937659",
"p  c #957A5C",
"a  c #997D5E",
"s  c #867361",
"d  c #8A7661",
"f  c #8D7A64",
"g  c #8F7E69",
"h  c #927C65",
"j  c #9A7E61",
"k  c #917E69",
"l  c #9D8264",
"z  c #94826C",
"x  c #9A856C",
"c  c #9B886F",
"v  c #968573",
"b  c #998771",
"n  c #978873",
"m  c #9B8A74",
"M  c #96877A",
"N  c #97887C",
"B  c #9D8D79",
"V  c #9E907A",
"C  c #A18566",
"Z  c #A08669",
"A  c #A58A6B",
"S  c #A88E6D",
"D  c #A38D74",
"F  c #A08E79",
"G  c #A2927C",
"H  c #A8957C",
"J  c #AB987F",
"K  c #B09C7F",
"L  c #9D8E81",
"P  c #9E9082",
"I  c #A49582",
"U  c #A69984",
"Y  c #AB9A84",
"T  c #A79C89",
"R  c #AC9D8A",
"E  c #B29E82",
"W  c #A79A90",
"Q  c #AC9F91",
"!  c #ADA18D",
"~  c #B4A186",
"^  c #B2A38D",
"/  c #B8A588",
"(  c #AEA293",
")  c #ACA298",
"_  c #B2A592",
"`  c #B5A995",
"'  c #B9AB96",
"]  c #B6AB9A",
"[  c #B9AE9B",
"{  c #BCB19E",
"}  c #B9AFA3",
"|  c #BDB4A3",
" . c #BDB4A8",
".. c #BFB9A9",
"X. c #C0B399",
"o. c #C1B6A4",
"O. c #C1B9A6",
"+. c #C1B5A8",
"@. c #C3BBAB",
"#. c #C8BFAE",
"$. c #C5BEB3",
"%. c #C7C0AF",
"&. c #C8C0AF",
"*. c #C6C1B2",
"=. c #CAC3B4",
"-. c #CCC6B9",
";. c #CEC9BB",
":. c #D0C6B6",
">. c #D1CBBE",
",. c #D2CDC2",
"<. c #D5CFC9",
"1. c #D6D1C5",
"2. c #D8D3C6",
"3. c #D7D3C9",
"4. c #DAD6CB",
"5. c #DCD9CE",
"6. c #DCD7D2",
"7. c #DEDBD2",
"8. c #E1DED5",
"9. c #E4DFD9",
"0. c #E2E1D7",
"q. c #E5E3DA",
"w. c #E9E5DE",
"e. c #E8E8DF",
"r. c #EAE7E1",
"t. c #ECE9E5",
"y. c #EEECE9",
"u. c #F2F0ED",
"i. c #F5F3F2",
"p. c #F8F7F5",
"a. c #F9F8F7",
"s. c #FEFEFE",
"d. c None",
/* pixels */
"d.d.d.d.d.d.d.d.d.d.d.d.d.d.d.d.d.d.d.d.d.d.d.d.d.d.d.d.d.d.d.d.d.d.d.d.d.d.d.d.d.d.d.d.d.d.d.d.d.d.",
"d.d.d.d.d.d.d.d.d.d.d.d.d.d.d.d.d.d.d.d.d.d.d.d.d.d.d.d.d.d.d.d.d.d.d.d.d.d.d.d.d.d.d.d.d.d.d.d.d.d.",
"d.d.d.d.d.d.d.d.d.d.d.d.d.d.d.d.d.d.d.d.d.d.d.d.d.d.d.d.d.d.d.d.d.d.d.d.d.d.d.d.d.d.d.d.d.d.d.d.d.d.",
"d.d.d.d.d.d.d.d.d.d.d.d.d.d.d.d.d.d.d.d.d.d.d.d.d.d.d.d.d.d.d.d.d.d.d.d.d.d.d.d.d.d.d.d.d.d.d.d.d.d.",
"d.d.d.d.d.d.d.d.d.d.d.d.d.d.d.d.d.d.d.d.d.d.d.d.d.d.d.d.d.d.d.d.d.d.d.d.d.d.d.d.d.d.d.d.d.d.d.d.d.d.",
"d.d.d.d.d.d.d.d.d.d.d.d.d.d.d.d.d.d.d.d.d.d.d.d.d.d.d.d.d.d.d.d.d.d.d.d.d.d.d.d.d.d.d.d.d.d.d.d.d.d.",
"d.d.d.d.d.d.d.d.d.d.d.d.d.d.d.d.d.d.d.s.s.s.s.s.s.s.s.s.s.s.s.s.d.d.d.d.d.d.d.d.d.d.d.d.d.d.d.d.d.d.",
"d.d.d.d.d.d.d.d.d.d.d.d.d.d.d.d.d.d.y.9.9.q.w.w.r.r.r.r.r.r.r.r.t.d.d.d.d.d.d.d.d.d.d.d.d.d.d.d.d.d.",
"d.d.d.d.d.d.d.d.d.d.d.d.d.d.d.d.s.s.5.! J ^ ' ' { { { | | X.O.{ ;.p.s.a.d.d.d.d.d.d.d.d.d.d.d.d.d.d.",
"d.d.d.d.d.d.d.d.d.d.d.d.d.d.d.6.o.O.{ ! ! ` { ..@.#.%.%.&.%.%.%.&.>.>.2.i.d.d.d.d.d.d.d.d.d.d.d.d.d.",
"d.d.d.d.d.d.d.d.d.d.d.d.d.d.r.@.z x ! ` ..%.>.1.2.4.4.4.4.2.>.1.:.{ ' o.q.i.d.d.d.d.d.d.d.d.d.d.d.d.",
"d.d.d.d.d.d.d.d.d.d.d.d.d.y.Q v G R ` | %.:.>.4.5.7.8.8.7.5.5.5.5.>.:.#.X.5.s.d.d.d.d.d.d.d.d.d.d.d.",
"d.d.d.d.d.d.d.d.d.d.d.d.3.} b b R `  .@.-.>.4.7.0.0.0.q.0.0.7.0.7.7.2.:.o.%.4.u.d.d.d.d.d.d.d.d.d.d.",
"d.d.d.d.d.d.d.d.d.d.d.t.] w x I _ [ ..=.>.2.5.7.0.0.q.q.q.q.0.0.0.7.5.2.>.| o.9.a.d.d.d.d.d.d.d.d.d.",
"d.d.d.d.d.d.d.d.d.d.q.I k k B T `  .*.-.>.5.5.7.0.q.q.e.e.q.q.q.0.0.7.5.1.=.O.| 2.a.d.d.d.d.d.d.d.d.",
"d.d.d.d.d.d.d.d.d.3.} s r m I ( { $.*.,.>.5.7.0.q.e.e.e.e.e.q.q.q.q.0.7.2.2.=.~ :.s.d.d.d.d.d.d.d.d.",
"d.d.d.d.d.d.d.d.y.( 4 d b G U ` ..*.-.;.;.;.2.3.4.5.5.5.7.0.0.0.q.q.5.,.>.:.%.` :.i.d.d.d.d.d.d.d.d.",
"d.d.d.d.d.d.d.6.P d w f n P T ` @.*.;.;.^ A F H H J J J ~ o.4.0.q.0.o.G F c B { @.&.t.d.d.d.d.d.d.d.",
"d.d.d.d.d.d.s.<.4 2 y z m U ( } @.=.*.] l q u i a a l l l H { >.8.8.^ e e e i ^ ' { w.s.d.d.d.d.d.d.",
"d.d.d.d.d.d.s.,.r 4 f x V ! [ @.$.@._ y u l C A S S S S S l l o.7.9.R u l l l Z Y @.r.s.d.d.d.d.d.d.",
"d.d.d.d.d.i. .n w r h c G R { @. .I h e u l C C S S S S A a u ` 2.8.E q j Z Z l Z I o.4.a.d.d.d.d.d.",
"d.d.d.d.d.i.L * w f k n F R { @.| h , e i p l C C C A A C p u ^ ,.8.R 9 p l l l j j D =.a.d.d.d.d.d.",
"d.d.d.d.d.i.P - y f z z B R { @.{ y , e u i l l l C C C C i i _ ,.8.Y 9 p j j j p j H =.a.d.d.d.d.d.",
"d.d.d.d.d.i.P ; r f z b G T [ @.} y , 9 q u u a a a a l i a D ' o.` ' R h e i t e y F -.a.d.d.d.d.d.",
"d.d.d.d.d.6.N 1 y f z b V Y [ @.[ y : 7 8 8 e e u u i i i A / X.! h o.2.H t 8 8 7 q G =.t.d.d.d.d.d.",
"d.d.d.s.-.s w r d f z z V U ] O.[ y ; , , 7 7 8 9 9 9 q S K / X.E j o.q.2.I : : ; 2 T | o.q.s.d.d.d.",
"d.d.d.s.$.$ > d d f z b B U ! { | I y ; & & : : : , q C K / ~ K D p G @.0.-.B 1 O = B _ _ 8.s.d.d.d.",
"d.d.d.s.$.= > d y d z x F G I ^ | ..T 2 & & & & & & p K / / E Z i u 9 x -.0.>.f % 1 m R ` 8.s.d.d.d.",
"d.d.d.s.$.* > s d d k b F I F R `  .| ! 6 o @ @ @ @ e E E / / x u u 9 e x ..5. .( _ [ ] ` 9.s.d.d.d.",
"d.d.d.s.$.* - w d d k x m F F I _ [ @.#.P 4 O X @ 0 c ~ ^ ' ` l 8 9 9 8 2 _ 7.2.>.-.$.{ ` 8.s.d.d.d.",
"d.d.d.s.$.* = 6 r f k x m m x F ^ [  .@.*.( > o < Y ' / ' { [ l 8 0 q r d ] 7.3.,.;.*.{ ] 9.s.d.d.d.",
"d.d.d.s.$.* = 4 w r d k x k f m R [ | ..%.| T V U ' ' ' [ { | ] _ _ ` { @.>.7.4.2.,.*.{ ] 0.s.d.d.d.",
"d.d.d.s.$.* * 4 0 w t d d h h F ! ` | ........%...[ [ ` ` { O.%.=.;.>.2.7.0.5.5.3.1.*.| ] 0.a.d.d.d.",
"d.d.d.s.$.- * 3 4 6 w w w d k I ! ` } | | | | [ ] ` ` ` ` X.O.@.%.=.;.2.4.5.5.5.3.1.*...| 0.s.d.d.d.",
"d.d.d.d.6.} s * > 4 4 > w k I R ! ` [ | ..` z z r z V ^ ` [ | ..%.;.>.2.4.5.5.5.5.1.,.*.} 0.s.d.d.d.",
"d.d.d.d.d.y.L   * - > > r k H I U ! ! ! ! n = # # $ r G ! ] X.| O.;.>.1.1.4.5.5.3.,.,.*.*.w.s.d.d.d.",
"d.d.d.d.d.i.L   + * - 0 d k L F z n d > ; ; ; ; ; ; ; 2 V ` [ ` [ =.;.>.>.1.4.4.;.%.*.4.u.d.d.d.d.d.",
"d.d.d.d.d.i...L * + > w f g k s 4 4 > # # * > < < < $ = n ` ` G T %.;.;.;.>.1.1.*.} ..7.a.d.d.d.d.d.",
"d.d.d.d.d.d.s.,.- # 4 w d f s -   . # ; > ; > > < > $ = n ! ^ z V ..*.*...*.;.;. .! } 6.s.d.d.d.d.d.",
"d.d.d.d.d.d.s.,.* + 4 0 d d w -   # $ = = - = - = ; $ = n ! ! z z | *...( [ ..%.! n ` 4.a.d.d.d.d.d.",
"d.d.d.d.d.d.d.6.W s - > 3 3 * .   + + * v ) Q ) _ ) ) Q V G I Q ` | ..[ n I ] ] ] } | 7.s.d.d.d.d.d.",
"d.d.d.d.d.d.d.d.p.Q 3 3 4 4 * * > < < 6 *.s.s.s.a.a.s.y.] F R 8.t. .] ( z n T T ;.a.d.d.s.d.d.d.d.d.",
"d.d.d.d.d.d.d.d.d.6.<.<.<.<.,.,.<.<.<.3.9.d.d.d.d.d.d.d.q.8.q.a.q.( V ) ,. .V B *.s.s.s.d.d.d.d.d.d.",
"d.d.d.d.d.d.d.d.d.d.s.s.s.s.s.s.s.s.s.s.d.d.d.d.d.d.d.d.s.s.s.s.r.@. .-.u.4. . .,.s.s.d.d.d.d.d.d.d.",
"d.d.d.d.d.d.d.d.d.d.d.d.d.d.d.d.d.d.d.d.d.d.d.d.d.d.d.d.d.d.d.d.d.a.a.a.d.d.a.a.a.d.d.d.d.d.d.d.d.d.",
"d.d.d.d.d.d.d.d.d.d.d.d.d.d.d.d.d.d.d.d.d.d.d.d.d.d.d.d.d.d.d.d.d.d.d.d.d.d.d.d.d.d.d.d.d.d.d.d.d.d.",
"d.d.d.d.d.d.d.d.d.d.d.d.d.d.d.d.d.d.d.d.d.d.d.d.d.d.d.d.d.d.d.d.d.d.d.d.d.d.d.d.d.d.d.d.d.d.d.d.d.d.",
"d.d.d.d.d.d.d.d.d.d.d.d.d.d.d.d.d.d.d.d.d.d.d.d.d.d.d.d.d.d.d.d.d.d.d.d.d.d.d.d.d.d.d.d.d.d.d.d.d.d.",
"d.d.d.d.d.d.d.d.d.d.d.d.d.d.d.d.d.d.d.d.d.d.d.d.d.d.d.d.d.d.d.d.d.d.d.d.d.d.d.d.d.d.d.d.d.d.d.d.d.d.",
"d.d.d.d.d.d.d.d.d.d.d.d.d.d.d.d.d.d.d.d.d.d.d.d.d.d.d.d.d.d.d.d.d.d.d.d.d.d.d.d.d.d.d.d.d.d.d.d.d.d."
};
