/* XPM */
static char *attack_right_44[] = {
/* columns rows colors chars-per-pixel */
"32 32 14 1 ",
"  c #2F2F2E",
". c #624023",
"X c #6F4827",
"o c #69483A",
"O c #463A46",
"+ c #916451",
"@ c #E59363",
"# c #FFC078",
"$ c #4C5F80",
"% c #6E9FBA",
"& c #D4D4D7",
"* c #CAE5E6",
"= c white",
"- c None",
/* pixels */
"--------------------------------",
"--------------------------------",
"--------------------------------",
"--------------------------------",
"--------------------------------",
"--------------------------------",
"---------------=&&--------------",
"--------------  =&&-------------",
"------------  $*%=&&------------",
"----------- %**$*==&&-----------",
"---------- %***%$*==&&----------",
"---------- %**%%$*%==&&---------",
"---------- %%$$$$%$&==&&--------",
"---------- %%   $%  ===&&-------",
"---------- $$ oo  oo====&&------",
"---------  %% ++@##+o====&&-----",
"-------- #@  Oo++++o #====&&----",
"-------- ##@   + ++o @=====&&---",
"--------- ###%# . o  @#=====&&--",
"---------- ##%#  . #%#=======&&-",
"--------- %    oo . $=======&&--",
"--------- XXXX.++X . =====&&&---",
"-------- XXXX....X  ====&&&-----",
"-------- ..       &&==&&&-------",
"---------  ----- ===&&&---------",
"---------------- =&&& ----------",
"---------------- =&  -----------",
"-----------------  -------------",
"--------------------------------",
"--------------------------------",
"--------------------------------",
"--------------------------------"
};
