/* XPM */
static char *attack_right_2[] = {
/* columns rows colors chars-per-pixel */
"64 32 16 1 ",
"  c #2F2F2E",
". c #624023",
"X c #6F4827",
"o c #69483A",
"O c #463A46",
"+ c #4D404D",
"@ c #916451",
"# c #E59363",
"$ c #FFC078",
"% c #4C5F80",
"& c #6E9FBA",
"* c #9299A4",
"= c #D4D4D7",
"- c #CAE5E6",
"; c white",
": c None",
/* pixels */
"::::::::::::::::::::::::::::::::::::::::::::::::::::::::::::::::",
"::::::::::::::::::::::::::::::::::::::::::::::::::::::::::::::::",
"::::::::::::::::::::::::::::::::::::::::::::::::::::::::::::::::",
"::::::::::::::::::::::::::::::::::::::::::::::::::::::::::::::::",
"::::::::::::::::::::::::::::::::::::::::::::::::::::::::::::::::",
"::::::::::::::::::::::::::::::::::::::::::::::::::::::::::::::::",
":::::::::::::   ::::::::::::::::::::::::::::::::::::::::::::::::",
":::::::::::  %-&  ::::::::::::::::::::::::::::::::::::::::::::::",
":::::::::: &--%-&% :::::::::::::::::::::::::::::::::::::::::::::",
"::::::::: &---&%-&% ::::::::::::::::::::::::::::::::::::::::::::",
"::::::::: &--&&%-&& ::::::::::::::::::::::::::::::::::::::::::::",
"::::::::: &&%%%%&%% ::::::::::::::::::::::::::::::::::::::::::::",
"::::::::: &&   %&   ::::::::::::::::::::::::::::::::::::::::::::",
"::::::::: %% ##  ## ::::::::::::::::::::::::::::::::::::::::::::",
":::::::: %&& o@#$$@     ::::    ::::::::::::::::::::::::::::::::",
"::::::: $   o@@@@@@o$$$&    ==== :::::::::::::::::::::::::::::::",
":::::: $$#OOOo@@@@o ##%.$..*;;;;= ::::::::::::::::::::::::::::::",
"::::: $$# ++Oo@@@@o   %#$   =;;;;=::::::::::::::::::::::::::::::",
":::: $$#  +++OOo@@o ::    :: ;;;;;=:::::::::::::::::::::::::::::",
"::: &%  : +++++Ooo+ ::::::::::;;;;;=::::::::::::::::::::::::::::",
"::: $# :: &&&&%%%oo ::::::::::;;;;==::::::::::::::::::::::::::::",
"::::  ::: XXXX...@@ ::::::::::;;;;=:::::::::::::::::::::::::::::",
"::::::::: XX.....XX :::::::::;;;;==:::::::::::::::::::::::::::::",
"::::::::: ..     .. ::::::;;;;;===::::::::::::::::::::::::::::::",
"::::::::::  :::::  :::;;;;;;==::::::::::::::::::::::::::::::::::",
"::::::::::::::::::::;;=;==::::::::::::::::::::::::::::::::::::::",
"::::::::::::::::::::::::::::::::::::::::::::::::::::::::::::::::",
"::::::::::::::::::::::::::::::::::::::::::::::::::::::::::::::::",
"::::::::::::::::::::::::::::::::::::::::::::::::::::::::::::::::",
"::::::::::::::::::::::::::::::::::::::::::::::::::::::::::::::::",
"::::::::::::::::::::::::::::::::::::::::::::::::::::::::::::::::",
"::::::::::::::::::::::::::::::::::::::::::::::::::::::::::::::::"
};
