/* XPM */
static char *attack_right_222[] = {
/* columns rows colors chars-per-pixel */
"32 32 18 1 ",
"  c #2F2F2E",
". c #624023",
"X c #6F4827",
"o c #644E2A",
"O c #69483A",
"+ c #463A46",
"@ c #4D404D",
"# c #50565D",
"$ c #916451",
"% c #E59363",
"& c #FFC078",
"* c #4C5F80",
"= c #6E9FBA",
"- c #9299A4",
"; c #D4D4D7",
": c #CAE5E6",
"> c white",
", c None",
/* pixels */
",,,,,,,,,,,,,,,,,,,,,,,,,,,,,,,,",
",,,,,,,,,,,,,,,,,,,,,,,,,,,,,,,,",
",,,,,,,,,,,,,, ,,,,,,,,,,,,,,,,,",
",,,,,,,,,,,,, X    ,,,,,,,,,,,,,",
",,,,,,,,,,,, #;;;> ,,,,,,,,,,,,,",
",,,,,,,,,,,, #-;;> ,,,,,,,,,,,,,",
",,,,,,,,,,,, #-;;> ,,,,,,,,,,,,,",
",,,,,,,,,,,   .   ,,,,,,,,,,,,,,",
",,,,,,,,,, =::*. * ,,,,,,,,,,,,,",
",,,,,,,,, =::  .   ,,,,,,,,,,,,,",
",,,,,,,,, =: &% &%* ,,,,,,,,,,,,",
",,,,,,,,,   &=* &&*% ,,,,,,,,,,,",
",,,,,,,,, &&&% *  &% ,,,,,,,,,,,",
",,,,,,,, &&&% o . && ,,,,,,,,,,,",
",,,,,,,, &&% O$% & & ,,,,,,,,,,,",
",,,,,,,, &&  $$$$$$ ,,,,,,,,,,,,",
",,,,,,,,,  ++O$$$$O ,,,,,,,,,,,,",
",,,,,,,,, @@+O$$$$O ,,,,,,,,,,,,",
",,,,,,,,, @@@+O$$O+ ,,,,,,,,,,,,",
",,,,,,,,, @@@@+OO+@ ,,,,,,,,,,,,",
",,,,,,,,, ====*OO*= ,,,,,,,,,,,,",
",,,,,,,,, XXXX.$$XX ,,,,,,,,,,,,",
",,,,,,,, XXX.....XXX ,,,,,,,,,,,",
",,,,,,,, ..       .. ,,,,,,,,,,,",
",,,,,,,,,  ,,,,,,,  ,,,,,,,,,,,,",
",,,,,,,,,,,,,,,,,,,,,,,,,,,,,,,,",
",,,,,,,,,,,,,,,,,,,,,,,,,,,,,,,,",
",,,,,,,,,,,,,,,,,,,,,,,,,,,,,,,,",
",,,,,,,,,,,,,,,,,,,,,,,,,,,,,,,,",
",,,,,,,,,,,,,,,,,,,,,,,,,,,,,,,,",
",,,,,,,,,,,,,,,,,,,,,,,,,,,,,,,,",
",,,,,,,,,,,,,,,,,,,,,,,,,,,,,,,,"
};
