/* XPM */
static char *beer50[] = {
/* columns rows colors chars-per-pixel */
"50 50 231 2 ",
"   c None",
".  c #58361A",
"X  c #51290C",
"o  c #683C1A",
"O  c #66360F",
"+  c #563D27",
"@  c #4F3B29",
"#  c #663F22",
"$  c #6D401E",
"%  c #74451F",
"&  c #54422F",
"*  c #5D462F",
"=  c #594634",
"-  c #5A4835",
";  c #6B462B",
":  c #684427",
">  c #754924",
",  c #7C4C25",
"<  c #7B4D29",
"1  c #754A29",
"2  c #7C512C",
"3  c #634E39",
"4  c #674B33",
"5  c #724E31",
"6  c #64503B",
"7  c #6C533C",
"8  c #78573B",
"9  c #665442",
"0  c #6A5642",
"q  c #6C5A48",
"w  c #725B44",
"e  c #725E4A",
"r  c #795E45",
"t  c #75614C",
"y  c #7C644C",
"u  c #7C6047",
"i  c #746351",
"p  c #7A6652",
"a  c #7E6A54",
"s  c #7D6C59",
"d  c #7F705D",
"f  c #82542C",
"g  c #885A2F",
"h  c #855B33",
"j  c #8C5E33",
"k  c #845935",
"l  c #8D6134",
"z  c #8E623A",
"x  c #87603C",
"c  c #916437",
"v  c #92653A",
"b  c #956A3D",
"n  c #996B3D",
"m  c #9A703C",
"M  c #83644C",
"N  c #89664D",
"B  c #856548",
"V  c #9A6E42",
"C  c #966B46",
"Z  c #9C7242",
"A  c #9B744B",
"S  c #9D794D",
"D  c #836B53",
"F  c #8C6C53",
"G  c #826E5A",
"H  c #936E53",
"J  c #84715C",
"K  c #8B735C",
"L  c #8D765A",
"P  c #937354",
"I  c #977859",
"U  c #8F704F",
"Y  c #A17545",
"T  c #A47A4A",
"R  c #AA7C4D",
"E  c #A47747",
"W  c #A47E55",
"Q  c #857562",
"!  c #8C7A66",
"~  c #8E7D69",
"^  c #8B7660",
"/  c #927D64",
"(  c #927E69",
")  c #9A7F60",
"_  c #8A7E71",
"`  c #AA804E",
"'  c #B2824D",
"]  c #AA8358",
"[  c #B38554",
"{  c #B68954",
"}  c #B98C56",
"|  c #B58B5A",
" . c #BB8D5C",
".. c #B18758",
"X. c #BD925C",
"o. c #B9955E",
"O. c #94836D",
"+. c #9A866D",
"@. c #9C8366",
"#. c #968671",
"$. c #9C8A74",
"%. c #9E8E7A",
"&. c #988774",
"*. c #9F907A",
"=. c #8E8276",
"-. c #AC8B63",
";. c #A58866",
":. c #B18A61",
">. c #BD9562",
",. c #B89667",
"<. c #A68E72",
"1. c #A3927B",
"2. c #AC997E",
"3. c #AB9478",
"4. c #B79D7A",
"5. c #BBA27B",
"6. c #C08F5D",
"7. c #C49C64",
"8. c #C69B67",
"9. c #C5A16A",
"0. c #CBA36D",
"q. c #C6A067",
"w. c #D3A46E",
"e. c #CBAB73",
"r. c #CAA876",
"t. c #D3A671",
"y. c #D5AC76",
"u. c #CDB17D",
"i. c #D3B37A",
"p. c #DCBA7F",
"a. c #DCC07F",
"s. c #9D9081",
"d. c #AD9B85",
"f. c #AC9B8A",
"g. c #A39681",
"h. c #B29C83",
"j. c #A6968B",
"k. c #B5A286",
"l. c #B5A38B",
"z. c #BCA98D",
"x. c #BCA586",
"c. c #AEA396",
"v. c #BCAD94",
"b. c #B9AD99",
"n. c #B4A896",
"m. c #BAB09A",
"M. c #AFA18C",
"N. c #B8ADA3",
"B. c #BCB4AC",
"V. c #BDB3A2",
"C. c #C1AA8B",
"Z. c #D7B686",
"A. c #C3AE98",
"S. c #C4B49A",
"D. c #CBBA9E",
"F. c #C6B499",
"G. c #CFB78A",
"H. c #C2B8A4",
"J. c #CDBDA3",
"K. c #C8B9AA",
"L. c #CABEAF",
"P. c #DBC599",
"I. c #DFC28C",
"U. c #E2C486",
"Y. c #E6CC96",
"T. c #E4CA9C",
"R. c #E9D399",
"E. c #CAC0AE",
"W. c #D2C2A5",
"Q. c #D2C2A9",
"!. c #C9C2BC",
"~. c #D5C9B8",
"^. c #DDD2BC",
"/. c #E2CDA5",
"(. c #E9D4A3",
"). c #E5D3AD",
"_. c #EAD6AB",
"`. c #EDDAAB",
"'. c #E8D5A4",
"]. c #E3D4B2",
"[. c #ECDBB5",
"{. c #E3D5B9",
"}. c #EDDDBB",
"|. c #E9D6B5",
" X c #F1DEB5",
".X c #F0DDB9",
"XX c #F4E4BD",
"oX c #F1E1B6",
"OX c #CEC8C1",
"+X c #D2CBC3",
"@X c #D6CFC8",
"#X c #DAD4CD",
"$X c #DAD3C6",
"%X c #DDD8D1",
"&X c #EADDC3",
"*X c #E5D8C0",
"=X c #E2DBD4",
"-X c #E3DFDB",
";X c #E8DFD8",
":X c #F0DFC1",
">X c #EFE2C5",
",X c #EEE2CD",
"<X c #F3E4C4",
"1X c #F4E6CA",
"2X c #F6E9CC",
"3X c #F9EBCD",
"4X c #F4E8C6",
"5X c #EAE3DE",
"6X c #E7E3DB",
"7X c #F5EAD2",
"8X c #FAEED3",
"9X c #F4EDDC",
"0X c #FDF1D6",
"qX c #FFF6DD",
"wX c #FEF4DA",
"eX c #FFF8DF",
"rX c #ECE7E3",
"tX c #EDE9E5",
"yX c #EFEDE8",
"uX c #F0EFEC",
"iX c #F4EEE1",
"pX c #F7F2E5",
"aX c #F9F3E6",
"sX c #FAF5EC",
"dX c #F3F0EC",
"fX c #FCFAF5",
"gX c #FCF9F5",
"hX c white",
"jX c #FEFDFC",
"kX c #FFFEFE",
"lX c #F7F5F4",
/* pixels */
"                                                                                                    ",
"                                                                                                    ",
"                                                                  lXlXlXlXlX                        ",
"                                                  jXjXjXjX      sX>X&X&X&X9XjX                      ",
"                                                  iX9XiXiXpX  sX9X}.}.}.[.2XpXlX                    ",
"                                        jXjXjXjXsX{.).].).,XlX7X<X2X8X8X2X}.&XsXjX                  ",
"                                    jXjX,X{.&X,X,X}.[.}.}.<X7X2X2X8XwX0X8X<X<XlXjXjX                ",
"                                  9X9X9X].P./.|.}.<X<X2X2X2X<X2X0XwXwXwXwX2X2XaXsXsXlX              ",
"                                dXW.G.P.).}.:X<X<X2X2X2X2X8X8X8X0XwXwXwXwX0X8X7X<X<XsXjX            ",
"                    jXjXjXjXjX~.h.5.u.P.).}.<X<X<X2X2X2X8X0X0X0X0XwXwXwXwXwXwX8X2X<X7XaXjX          ",
"                  dXyXyXyXuXdXn.< A r.P.).[.}.}.}.<X<X2X8X8X8X8X8X0X0X0XwXwXwXwXwX8X<X7XjX          ",
"                jX$XV.H.H.H.H.;.< < S G././.).).).|.}.<X2X8X8X8X2X2X8X8XwXwXqXaXwXwX2X8XjX          ",
"              lX-XE.n.b.b.m.m.@.1 1 z ] -.,.u.Z.Z.Z.T. X<X2X2X<XXXXX<X2X0XwXwXwXwXwX2XwXjXjX        ",
"            lX-XV.n.b.b.b.m.b.@.1 2 f f f z W ..| >.Z.'. XXX X`.'.'.`.<X2XwXwXwXwXwX8XwXlXlXlX      ",
"          jX$Xm.1.%.%.%.*.*.%.P 2 f h l z z z v V  .i.Y.R.(.R.Z.y.y.T.oX2X0XwXwXwXwX0X8X7X<X2XlX    ",
"        uX%XV.1.#.O.( ( O.O.#./ P I I b b b v b Y [ >.0.e.i.Z.y.8.0.i.T.<X0XwXqXqXwXwX8X2X[.>XlX    ",
"      jX6Xn.*.O.~ #.%.1.%.O.O.O.%.j.1.A V Z Y ` [ R R R R  .0.0.0.t.t.Z.<XwXwXwXwXwXwX0X2X}.>XlX    ",
"      jX%X1.O.Q i n.-X-Xc.y y D J ! %.2.] Y ` R T |  .6.7.6. .[ 7.I.T.[.2XwXwXwXwXwXwX0X2X}.<XlX    ",
"      jX$X&.O.J 0 B.jXjXb.7 8 r y a O.c.2.-.| E Y X.8.w.w.8. . .e.'.XX2X0XwXwXwXwXwXwX0X2X2X7XlX    ",
"      jX@X#.~ s 9 B.jXjXN.w w y y D ! g.n.z.>.R T 7.0.w.t.t.t.p.Y. X<X2X0X0X0X0X0X0X0X2X<XaXjX      ",
"      jX@X( ! a 9 B.jX  $XV.L r M D ^ O.1.l.C.x.C.D.Z.w.w.w.y.U.R. X<X2X2X2X2X8X8X8X2X<X}.aXjX      ",
"      jX+X~ Q p 9 B.jX    tX( 8 D F L / +.1.b.H.E.~.J.Z.Z.Z.Z.T.'.`. XXXXXXXXXXX<X4X<X<X2XaXjX      ",
"      jX+XQ J p 9 B.jX    5XF ; M J L / +.1.d.l.b.S.Q.^.*X*X&X&X[.R.R.'._.).'.R.`.oX[.2XlX          ",
"      jX+XQ J i 6 B.jX    5XN o 8 D L / +.1.d.l.b.F.J.~.^.^.{.^.{.].).).{.{.].].).`.[.<X7XsX        ",
"      jXOXd a t 3 B.jX  jX5XN o < B L / %.1.d.l.b.S.D.J.W.W.Q.Q.~.$X^.^.^.^.^.~.)._. X[.).9XjX      ",
"      jXOXs p q - B.jXjXjX5XN o < 2 B / %.1.d.l.b.S.D.J.J.W.W.W.W.Q.J.J.S.A.F.Z.Y._.[.[.).9XjX      ",
"      jX!.p t q = _ N.N.-XrXN o f f h U I @.d.l.b.S.D.J.J.J.J.J.J.J.D.A.b.l.k.i.U.'._.)./.9XjX      ",
"      jX!.i e q & & = = c.@XB o f h v z z A 3.h.k.z.C.F.D.J.J.D.D.D.S.C.z.k.5.i.U.T.).).).9XjX      ",
"      jX!.e q 9 @ @ @ & q s : $ f l b Z v v W ....:.:.,.C.J.D.D.S.S.F.b.x.h.2.i.a.P.2XsXpXsX        ",
"      jX!.q 9 9 = = = & + . o > f l n E v v R [ { |  . .4.k.k.5.k.b.b.x.k.3.;.| u.}.sXjXjX          ",
"      jX!.i 9 9 6 9 6 & + o % , f h n Y v v  .7.7.0.0.0.X.| | ` -.h.l.h.3.W V v C.lX                ",
"        6XL.Q & - 3 3 * 7 r 1 , f h n Y c v  .7.7.0.e.e.9.9.9.` A W S P C z C A.-X                  ",
"          jXc._ =.&.~ 3 e G < > f g v Y l c { 7.7.0.0.e.e.u.u.` b V V v z f C ;XjX                  ",
"            uXuXuXlX+Xe 0 a 1 1 , f v Y h v { 6.7.9.0.e.e.e.e.W V ` T Y Z h H -XjX                  ",
"                  jX%Xe * w u 8 , l v h v Y } 6.7.q.0.0.e.9...T T R T Z b <.L.5X                    ",
"                  jX%Xe + 3 p M k n v < n ' } X.6.7.9.9.e.,.b Y ` E Z v k A.jX                      ",
"                  jX%Xe + 4 7 y L S c < n ' [ } X.o.7.q.e.o.v Z T Z b h 2 b.jX                      ",
"                  jX$X7 . 4 7 e J I I P E R ' { } X.7.7.| T n Z Z b k k F L.jX                      ",
"                  jX$X4 X 4 4 0 y / %.1.;.` [ | X.>.9.,.b l Y Z V C x B +.+XjX                      ",
"                  jX$X4 X : 4 0 t D L ! <.2.k.z.z.b.C.,.v g m b A 3.2.+.a B.jX                      ",
"                    -Xs.8 . : 7 e p a J #.g.d.M.n.n.z.5.;.] -.-.;.1.1.! 0 n.jX                      ",
"                      jXf.# o : w t p J ^ ~ O.%.%.%.d.b.b.b.b.b.1.J p t t N.jX                      ",
"                        -XN.: X o : 8 G Q ! O.#.%.%.1.1.g.1.1.%.! w 6 G L.-X                        ",
"                          tX&.K I 1 > 8 M F J / #.%.%.%.#.O.~ G Q %.s.c.uX                          ",
"                            dXlX6XI o 1 2 f g U O.O.O.O.( ! ^ a s.rXlXlX                            ",
"                                  ~.L.H.U O o > 5 5 5 ; : : 4 f.$X                                  ",
"                                  jXjXjXf.N F F F H F M M M F ~.jX                                  ",
"                                        tXrXtXtXtXrXrXrXrXrXrX                                      ",
"                                                                                                    ",
"                                                                                                    "
};
