/* XPM */
static char *beer50[] = {
/* columns rows colors chars-per-pixel */
"50 50 230 2 ",
"   c #58361A",
".  c #51290C",
"X  c #683C1A",
"o  c #66360F",
"O  c #4F3B29",
"+  c #563D27",
"@  c #663F22",
"#  c #6D401E",
"$  c #74451F",
"%  c #54422F",
"&  c #5D462F",
"*  c #594634",
"=  c #5A4835",
"-  c #6B462A",
";  c #684427",
":  c #754924",
">  c #7C4C25",
",  c #764B2B",
"<  c #7B4E2A",
"1  c #734521",
"2  c #7D512B",
"3  c #634E39",
"4  c #674B33",
"5  c #724E31",
"6  c #64503C",
"7  c #6C533C",
"8  c #77573B",
"9  c #665442",
"0  c #6A5642",
"q  c #6C5A47",
"w  c #6B5D4C",
"e  c #725B44",
"r  c #725E4A",
"t  c #795E45",
"y  c #75614C",
"u  c #7C644C",
"i  c #7C6047",
"p  c #746351",
"a  c #7A6652",
"s  c #7E6A54",
"d  c #7D6C59",
"f  c #7F705D",
"g  c #82542C",
"h  c #885A2F",
"j  c #855B33",
"k  c #8C5E33",
"l  c #845935",
"z  c #8D6134",
"x  c #8E623A",
"c  c #87603C",
"v  c #916437",
"b  c #92653A",
"n  c #956A3D",
"m  c #996B3D",
"M  c #9A703C",
"N  c #83644C",
"B  c #87664A",
"V  c #9A6E42",
"C  c #966B46",
"Z  c #9C7242",
"A  c #9B744B",
"S  c #9D794D",
"D  c #836B53",
"F  c #8C6C53",
"G  c #826E5A",
"H  c #936E53",
"J  c #84715C",
"K  c #8B735C",
"L  c #8D765A",
"P  c #937354",
"I  c #977859",
"U  c #8F704F",
"Y  c #A17545",
"T  c #A47A4A",
"R  c #AA7C4D",
"E  c #A47747",
"W  c #A47E55",
"Q  c #857562",
"!  c #8C7A66",
"~  c #8E7D69",
"^  c #8B7660",
"/  c #937D65",
"(  c #917F69",
")  c #9A7F60",
"_  c #8A7E71",
"`  c #AA804E",
"'  c #B2824D",
"]  c #AA8358",
"[  c #B38554",
"{  c #B68954",
"}  c #B98C56",
"|  c #B58B5A",
" . c #BB8D5C",
".. c #B18758",
"X. c #BD925C",
"o. c #B9955E",
"O. c #94836D",
"+. c #9A866D",
"@. c #9C8366",
"#. c #968671",
"$. c #9C8A74",
"%. c #9E8E7A",
"&. c #988774",
"*. c #9F907A",
"=. c #8E8276",
"-. c #AC8B63",
";. c #A58866",
":. c #B18A61",
">. c #BD9562",
",. c #B89667",
"<. c #A68E72",
"1. c #A3927B",
"2. c #AC997E",
"3. c #AB9478",
"4. c #B79D7A",
"5. c #BBA27B",
"6. c #C08F5D",
"7. c #C49C64",
"8. c #CB9D6A",
"9. c #C29965",
"0. c #C5A16A",
"q. c #CBA36D",
"w. c #C6A067",
"e. c #D3A46E",
"r. c #CBAB73",
"t. c #CAA876",
"y. c #D3A671",
"u. c #D5AC76",
"i. c #CDB17D",
"p. c #D3B37A",
"a. c #DCBA7F",
"s. c #DCC07F",
"d. c #9D9081",
"f. c #AD9B85",
"g. c #A89986",
"h. c #B29C83",
"j. c #A6968B",
"k. c #B5A286",
"l. c #B5A38B",
"z. c #BCA98D",
"x. c #BCA586",
"c. c #ADA295",
"v. c #BCAD94",
"b. c #B9AE98",
"n. c #B4A796",
"m. c #BAB19B",
"M. c #AFA18C",
"N. c #B8ADA3",
"B. c #BCB4AC",
"V. c #BCB2A4",
"C. c #C1AA8B",
"Z. c #D7B686",
"A. c #C3AE98",
"S. c #C4B49A",
"D. c #CBBA9E",
"F. c #C6B499",
"G. c #CFB78A",
"H. c #C2B8A4",
"J. c #CDBDA3",
"K. c #C8B9AA",
"L. c #C5BEB7",
"P. c #D5BFA0",
"I. c #DBC599",
"U. c #DFC28C",
"Y. c #E2C486",
"T. c #E6CC96",
"R. c #E4CA9C",
"E. c #E9D399",
"W. c #CAC0AE",
"Q. c #D2C2A5",
"!. c #D2C2A9",
"~. c #CCC3BB",
"^. c #D7CAB7",
"/. c #DDD2BC",
"(. c #E2CDA5",
"). c #E9D4A3",
"_. c #E5D3AD",
"`. c #EAD6AB",
"'. c #EDDAAB",
"]. c #E8D5A4",
"[. c #E3D4B2",
"{. c #ECDBB5",
"}. c #E3D5B9",
"|. c #EDDDBB",
" X c #E9D6B5",
".X c #F1DEB5",
"XX c #F0DDB9",
"oX c #F4E4BD",
"OX c #F1E1B6",
"+X c #CEC8C1",
"@X c #D2CBC3",
"#X c #D6CFC8",
"$X c #DAD3CC",
"%X c #DBD5C8",
"&X c #DCD7D2",
"*X c #EADDC3",
"=X c #E4D8C5",
"-X c #E2DBD4",
";X c #E2DEDA",
":X c #F0DFC1",
">X c #EEE2C5",
",X c #EEE2CC",
"<X c #F3E4C4",
"1X c #F3E6CA",
"2X c #F6E9CC",
"3X c #F9EBCD",
"4X c #F4E8C6",
"5X c #E5E1DC",
"6X c #E9E3DE",
"7X c #EFE9DB",
"8X c #F5EAD2",
"9X c #FAEED3",
"0X c #F4ECDC",
"qX c #F8EFDA",
"wX c #FDF1D6",
"eX c #FFF5DB",
"rX c #FFF8DF",
"tX c #ECE7E3",
"yX c #EDE8E4",
"uX c #EFEDE8",
"iX c #F0EFEC",
"pX c #F4EEE1",
"aX c #F7F2E5",
"sX c #F9F5EC",
"dX c #F6F2E9",
"fX c #F9F7F4",
"gX c #FCFAF5",
"hX c #FFFFFE",
"jX c #F6F4F3",
"kX c None",
/* pixels */
"kXkXkXkXkXkXkXkXkXkXkXkXkXkXkXkXkXkXkXkXkXkXkXkXkXkXkXkXkXkXkXkXkXkXkXkXkXkXkXkXkXkXkXkXkXkXkXkXkXkX",
"kXkXkXkXkXkXkXkXkXkXkXkXkXkXkXkXkXkXkXkXkXkXkXkXkXkXkXkXkXkXkXkXkXkXkXkXkXkXkXkXkXkXkXkXkXkXkXkXkXkX",
"kXkXkXkXkXkXkXkXkXkXkXkXkXkXkXkXkXkXkXkXkXkXkXkXkXkXkXkXkXkXkXkXkXgXgXgXgXgXkXkXkXkXkXkXkXkXkXkXkXkX",
"kXkXkXkXkXkXkXkXkXkXkXkXkXkXkXkXkXkXkXkXkXkXkXkXkXhXhXhXhXkXkXkXsX:X*X*X*X0XhXkXkXkXkXkXkXkXkXkXkXkX",
"kXkXkXkXkXkXkXkXkXkXkXkXkXkXkXkXkXkXkXkXkXkXkXkXkXaX0XpXpXaXkXsX0X|.|.|.{.1XaXgXkXkXkXkXkXkXkXkXkXkX",
"kXkXkXkXkXkXkXkXkXkXkXkXkXkXkXkXkXkXkXkXgXgXgXhXsX}._.[.[.1XgX8X:X8X8X8X1X|.|.fXhXkXkXkXkXkXkXkXkXkX",
"kXkXkXkXkXkXkXkXkXkXkXkXkXkXkXkXkXkXhXhX,X X*X1X1X|.{.|.|.<X8X1X2XwXeXwXwX<X>XfXhXhXkXkXkXkXkXkXkXkX",
"kXkXkXkXkXkXkXkXkXkXkXkXkXkXkXkXkX0X7X0X}.Q.(. X|.*X<X2X1X1X<X8X9XwXeXeXeX2X2XaXsXsXgXkXkXkXkXkXkXkX",
"kXkXkXkXkXkXkXkXkXkXkXkXkXkXkXkXsXQ.i.P._.|.:X<X<X1X1X2X9X9X9X9XwXeXeXeXeXwXwX2X<X<XaXhXkXkXkXkXkXkX",
"kXkXkXkXkXkXkXkXkXkXhXhXhXgXhX^.h.0.i.P._.:X:X<X<X1X1X3X9X9XwXwXwXeXeXeXeXeXwXwX3X4X8XaXhXkXkXkXkXkX",
"kXkXkXkXkXkXkXkXkXiXuXuXuXuXiXz.< S t.P._. X|.|.XXXX2X3X9X9XwXwX9XwXwXeXeXeXeXeXeX9XoX8XhXkXkXkXkXkX",
"kXkXkXkXkXkXkXkXhX%XV.H.W.V.V.+., < W G.(.(._.(._. XXX<X3X9X9X8X3X3X3X9XwXeXaXrXeXwX3X8XhXkXkXkXkXkX",
"kXkXkXkXkXkXkXiX&XW.n.b.b.b.b.@.: 1 x ] -.4.t.Z.Z.G.R.XX<X3X2X<XoXoX4X3XwXeXrXrXaXeX3XwXhXhXkXkXkXkX",
"kXkXkXkXkXkXfX5Xm.n.b.b.b.b.b.@., < l 2 g x W ..[  .Z.).XXXX.X'.).).'.oX3XwXeXeXeXeX9XqXgXgXgXkXkXkX",
"kXkXkXkXkXgX%Xm.2.$.*.$.*.*.*.U 2 g j z x v b k V | p.T.E.).E.Z.u.i.T.OX3X9XwXrXrXeXwX9X8X<X1XgXkXkX",
"kXkXkXkXiX&Xm.1.#.O.~ O.O.#.#.@.U I I n b C b C Y [ >.q.u.u.Y.u.8.8.p.R.4XwXwXrXrXeXeXwX4X{.>XgXkXkX",
"kXkXkXhX;Xb.*.O.~ &.%.*.&.O.O.+.$.g.1.A C M Y ` [ W R R R  .8.e.y.y.r.Z.<XwXeXrXrXrXeXwX3XOX>XhXkXkX",
"kXkXkXhX%X*.#.J p n.;X-Xc.u N D K ! $.2.] Y ` R T } 6.6.6.6.:.R 9.Y.(.'.3XeXeXeXeXeXeXwX3X|.>XgXkXkX",
"kXkXkXhX%X&.O.d q B.hXhXn.7 e t u u O.c.2.:.| E Y 6.8.8.e.8.6.6.r.).oX3X9XeXeXeXeXwXeXwX2X1X8XgXkXkX",
"kXkXkXhX%X#.O.d 9 B.hXhXN.e e t u D ! g.n.z.>.R T 9.e.e.e.y.y.Z.T.OX4X3X9XeXwXwXwXwXwX3X4XaXhXkXkXkX",
"kXkXkXhX#X=.! d 9 B.hXkX$XV.^ t D D L #.1.M.C.z.C.P.Z.e.e.e.u.Y.E.OXoX2X3X3X3XwX9X3X3XoX|.aXhXkXkXkX",
"kXkXkXhX@X~ J a 9 B.hXkXkXtX/ 8 D K K L +.1.b.H.K.L.P.Z.Z.Z.U.T.].].OXOXoXoXoX4X4X4X4X<X4XaXhXkXkXkX",
"kXkXkXhX@XQ J a 9 B.hXkXkXtXF , N K L O.+.3.f.z.A.A.P.=X=X=X:X:X{.E.E.].`.`.E.E.'.OXOX1XfXkXkXkXkXkX",
"kXkXkXhX+XQ f p 6 B.hXkXkX6XB X 8 D L @.+.1.f.l.v.A.P.^.^././././.[.`.`.}.}./._.`.'.{.>X8XaXkXkXkXkX",
"kXkXkXhX+Xf d y = B.hXkXhX6XC X : N L / <.1.f.l.A.A.D.J.Q.!.!.!.^./.}././.^.^./._.`.{.{.`.aXhXkXkXkX",
"kXkXkXhX+Xd a q = B.hXhXhX6XB X < < B / &.1.f.l.v.A.D.D.J.!.!.!.!.J.J.K.H.A.A.U.T.`.OX X_.0XhXkXkXkX",
"kXkXkXhX~.d y q * _ N.N.;X5XN X g g j U I ;.f.l.v.A.D.J.J.Q.J.J.J.J.D.A.v.x.k.p.Y.].`.].(.0XhXkXkXkX",
"kXkXkXhX~.p w q % % * = c.#XN X g k x x v H 3.h.x.z.C.A.D.Q.D.D.D.D.S.A.z.h.4.p.Y.R._._._.0XhXkXkXkX",
"kXkXkXhX~.w w 9 O O O O w d ; $ g z m Z b C R ..:.:.:.,.C.J.D.D.S.S.S.v.l.h.4.p.s.I.1XsXdXsXkXkXkXkX",
"kXkXkXhXL.q 9 9 * * * * O   X 1 g z M E b b R [ [ | | | 4.5.x.5.x.A.v.l.k.<.;.{ G.[.aXhXhXkXkXkXkXkX",
"kXkXkXhX+Xp 9 9 9 9 3 % + X $ 1 g k m E b b } 7.7.q.r.q.>...| [ :.h.h.h.3.W C C C.fXkXkXkXkXkXkXkXkX",
"kXkXkXkX;XL.f * = 3 3 * 6 t > $ g h m E v b } 7.8.q.r.r.9.0.0.` Y W I H A B C A.-XkXkXkXkXkXkXkXkXkX",
"kXkXkXkXkXjXc._ =.d.! 3 r G < 1 g g v Y k v { 7.7.w.e.y.r.p.i.` n Z C c b g C -XhXkXkXkXkXkXkXkXkXkX",
"kXkXkXkXkXkXiXiXiXjX@Xr 9 a , > g g v Z k v { 7.7.w.q.r.0.s.r.` M ` ` S V k H -XhXkXkXkXkXkXkXkXkXkX",
"kXkXkXkXkXkXkXkXkXhX&Xr 4 e i 8 g k v k m Y 6.6.7.w.q.q.r.,.] ` S ` ` M b <.K.tXkXkXkXkXkXkXkXkXkXkX",
"kXkXkXkXkXkXkXkXkXhX&Xr + 4 a B j m v < m ' ' 6.o.7.w.q.5.o.n ` ` S M x j A.hXkXkXkXkXkXkXkXkXkXkXkX",
"kXkXkXkXkXkXkXkXkXhX&Xr + 4 7 s L S v < m ' { } o.o.7.,.p.o.n M ` M M z 2 b.hXkXkXkXkXkXkXkXkXkXkXkX",
"kXkXkXkXkXkXkXkXkXhX$X0   = 4 y J @.] L Y E ' { } X.o.7.] ` M Z M v h j U K.hXkXkXkXkXkXkXkXkXkXkXkX",
"kXkXkXkXkXkXkXkXkXhX$X- . & 4 0 y ~ $.*.] ` ..| o.>.0.7.M v Y M Z C c i +.^.hXkXkXkXkXkXkXkXkXkXkXkX",
"kXkXkXkXkXkXkXkXkXhX$X- . ; 4 0 u D J O.1.2.k.z.C.C.C.7.z 2 M M S 2.2.O.d B.hXkXkXkXkXkXkXkXkXkXkXkX",
"kXkXkXkXkXkXkXkXkXkX-Xd.8   @ 5 r a D K #.j.f.M.n.c.z.5.;.W -.;.;.1.1.~ q n.hXkXkXkXkXkXkXkXkXkXkXkX",
"kXkXkXkXkXkXkXkXkXkXkXgXM.@ X - r t a G Q ~ O.#.$.*.f.b.b.v.v.v.2.J a y p N.hXkXkXkXkXkXkXkXkXkXkXkX",
"kXkXkXkXkXkXkXkXkXkXkXkX;XA.- . X - 8 G Q ! O.O.$.$.1.2.g.1.1.&.! q 3 d L.;XkXkXkXkXkXkXkXkXkXkXkXkX",
"kXkXkXkXkXkXkXkXkXkXkXkXkXtX_ K K , @ 8 N F U O.#.$.$.$.#.#.~ G Q %.d.c.yXkXkXkXkXkXkXkXkXkXkXkXkXkX",
"kXkXkXkXkXkXkXkXkXkXkXkXkXkXjXjX6XI X , 2 g h F O.O.O.O.( ~ ^ G d.tXfXjXkXkXkXkXkXkXkXkXkXkXkXkXkXkX",
"kXkXkXkXkXkXkXkXkXkXkXkXkXkXkXkXkX~.K.K.B o X : 5 5 5 - - @ 5 j.$XkXkXkXkXkXkXkXkXkXkXkXkXkXkXkXkXkX",
"kXkXkXkXkXkXkXkXkXkXkXkXkXkXkXkXkXhXhXfXh.B F F F H F N N N F +XhXkXkXkXkXkXkXkXkXkXkXkXkXkXkXkXkXkX",
"kXkXkXkXkXkXkXkXkXkXkXkXkXkXkXkXkXkXkXkXyXyXyXyXyXyXyXyXtXtXtXkXkXkXkXkXkXkXkXkXkXkXkXkXkXkXkXkXkXkX",
"kXkXkXkXkXkXkXkXkXkXkXkXkXkXkXkXkXkXkXkXkXkXkXkXkXkXkXkXkXkXkXkXkXkXkXkXkXkXkXkXkXkXkXkXkXkXkXkXkXkX",
"kXkXkXkXkXkXkXkXkXkXkXkXkXkXkXkXkXkXkXkXkXkXkXkXkXkXkXkXkXkXkXkXkXkXkXkXkXkXkXkXkXkXkXkXkXkXkXkXkXkX"
};
