/* XPM */
static char *chest[] = {
/* columns rows colors chars-per-pixel */
"32 32 179 2 ",
"   c #41240D",
".  c #422710",
"X  c #432C14",
"o  c #482E15",
"O  c #422F1C",
"+  c #473115",
"@  c #44301A",
"#  c #4C331B",
"$  c #5E3D1E",
"%  c #52371C",
"&  c #613F1F",
"*  c #513B26",
"=  c #5D3E22",
"-  c #533E2A",
";  c #613F22",
":  c #5E4024",
">  c #54422D",
",  c #594329",
"<  c #574534",
"1  c #5B4532",
"2  c #564937",
"3  c #5D4936",
"4  c #574939",
"5  c #5C4B3A",
"6  c #634425",
"7  c #694625",
"8  c #6A4826",
"9  c #674728",
"0  c #69472A",
"q  c #6C4A29",
"w  c #714C29",
"e  c #7A542E",
"r  c #75512C",
"t  c #624932",
"y  c #684C31",
"u  c #624C39",
"i  c #65523D",
"p  c #68523D",
"a  c #7E5832",
"s  c #7C5D3C",
"d  c #6D5742",
"f  c #6E5A42",
"g  c #735C43",
"h  c #725E49",
"j  c #746047",
"k  c #7C6346",
"l  c #7C644A",
"z  c #7F684B",
"x  c #74604C",
"c  c #7A6651",
"v  c #7F6C56",
"b  c #8E5B24",
"n  c #805730",
"m  c #825C32",
"M  c #885F33",
"N  c #8D6337",
"B  c #85623D",
"V  c #8C6539",
"C  c #8E683C",
"Z  c #93663A",
"A  c #946B3D",
"S  c #9A6B3E",
"D  c #9B713E",
"F  c #856641",
"G  c #80674B",
"H  c #856A4B",
"J  c #8A6E4B",
"K  c #896B45",
"L  c #966D41",
"P  c #88704C",
"I  c #8B7045",
"U  c #967041",
"Y  c #9D7443",
"T  c #9F7846",
"R  c #9F7B4A",
"E  c #91724E",
"W  c #826C55",
"Q  c #8B6E50",
"!  c #806E58",
"~  c #8E7151",
"^  c #86735B",
"/  c #89755D",
"(  c #8E7A5F",
")  c #937453",
"_  c #967B57",
"`  c #9D7E54",
"'  c #A27645",
"]  c #A57945",
"[  c #A97F4B",
"{  c #A77B48",
"}  c #8C7960",
"|  c #937D63",
" . c #AD824C",
".. c #B1864D",
"X. c #B5894E",
"o. c #AC8451",
"O. c #A38155",
"+. c #B18651",
"@. c #B48B54",
"#. c #B98C53",
"$. c #B88E58",
"%. c #B89156",
"&. c #BB945A",
"*. c #BE9A5C",
"=. c #B6935D",
"-. c #958267",
";. c #97836A",
":. c #9A856C",
">. c #9E8B6D",
",. c #9C8A72",
"<. c #968A79",
"1. c #9C927E",
"2. c #A18B6F",
"3. c #AC926A",
"4. c #BA9760",
"5. c #BE9F63",
"6. c #A48D73",
"7. c #A48F78",
"8. c #A79272",
"9. c #AE9875",
"0. c #A7937A",
"q. c #AA947B",
"w. c #AD9A7E",
"e. c #AA9475",
"r. c #B19576",
"t. c #B0977C",
"y. c #B39B7C",
"u. c #C2965D",
"i. c #C39B5E",
"p. c #C59C61",
"a. c #C6A263",
"s. c #C6A76A",
"d. c #C5A96A",
"f. c #C8AB6C",
"g. c #CCB473",
"h. c #CFB875",
"j. c #D1B976",
"k. c #D0B978",
"l. c #A69884",
"z. c #AB9E8A",
"x. c #A89A85",
"c. c #B79D81",
"v. c #B4A384",
"b. c #BAA586",
"n. c #B0A38D",
"m. c #B8A68A",
"M. c #B6A88E",
"N. c #BCAB8B",
"B. c #BAAE91",
"V. c #BCB096",
"C. c #BDB29B",
"Z. c #C1AE8E",
"A. c #C3B08F",
"S. c #C4B593",
"D. c #C7B896",
"F. c #C9BB97",
"G. c #C2B59C",
"H. c #C6B99A",
"J. c #C9BC9D",
"K. c #C6BAA3",
"L. c #CBBDA6",
"P. c #CDBEA9",
"I. c #CDC09F",
"U. c #CEC1A3",
"Y. c #CEC1A9",
"T. c #D0C2A4",
"R. c #D1C4AC",
"E. c #D3C6B0",
"W. c #D5CAB3",
"Q. c #D9CDB5",
"!. c #D6CFB8",
"~. c #DAD0B7",
"^. c #DCD2B9",
"/. c #DED6C2",
"(. c #E5DCC5",
"). c #E9E2CD",
"_. c #EEE6D1",
"`. c white",
"'. c None",
/* pixels */
"'.'.'.'.'.'.'.'.'.'.'.'.'.'.'.'.'.'.'.'.'.'.'.'.'.'.'.'.'.'.'.'.",
"'.'.'.'.'.'.'.'.'.'.'.'.'.'.'.'.'.'.'.'.'.'.'.'.'.'.'.'.'.'.'.'.",
"'.'.'.'.'.'.'.'.'.'.'.'.'.'.'.'.'.'.'.'.`.`.`.`.`.`.'.'.'.'.'.'.",
"'.'.'.'.'.'.'.'.'.'.'.'.'.'.'.'.'.'.`.`.C.C.G.V.B.V.`.'.'.'.'.'.",
"'.'.'.'.`.`.`.`.'.'.'.'.'.`.`.`.`.`.@.T  . .{ s !.G.K.`.'.'.'.'.",
"'.'.`.`.1.1.<.<.`.`.`.`.`.Y Z L  ...&.d.....i.&.I /.L.P.`.'.'.'.",
"'.`.4 5 5 i x.z.1.x.q a C Y @.=.] %.&.*.g.h...5.u.O.(.Y.Y.`.'.'.",
"`.2 4 4 d d f h C.x.z.m A ] [ ..5.] &.5.5.h.X.a.p.&.O.).R.^.`.'.",
"`.2 4 u i f h j l K.n.M.Z ' [ X.a.] i.i.a.a.j.X.a.*.) _.(.(.`.'.",
"`.2 3 O # % j l z W P.M.B.D [ X.#.f.] i.a.a.k...p.p...F _.).(.`.",
"`.4 5 @ : : = : H Q ) W.G.G.S [ #.f.] u.i.i.p.g. .p.[ F _.).(.`.",
"`.1 3 @ : : 9 q 7 Q ) !.G.E.Z ] ..X.s.] u.u.&.d.[ @.[ F _.).W.`.",
"`.< u X : 6 9 q 7 ~ ) ^.W.W.M Y ] [ i.] #.#.#.$.A ' R.R.).R.R.`.",
"`.1 u p X + 9 8 w 8 ) ) ^.W.W.M D ] #.Z Y Y Y J.T.T.R.Y.).R.K.`.",
"`.1 u p p j % 1 7 7 ) ) ^.W.Q.n N N Z D.D.F.F.J.I.U.T.U.(.L.J.`.",
"`.3 u u s g l H y y ~ ) ~.E.Z.n S.A.S.S._ E ).(.Q.J.J.K /.H.D.`.",
"`.1 3 @ = g k z H Q ~ ) E.N.N.N.Z.Z.A.A.E P.R.3.(.S A L !.A.Z.`.",
"`.> u X : = 6 z H Q P P R.N.N.N.N.N.N.Z.J F.L._ ~... .S Q.Z.b.`.",
"`.< 1 . : 6 7 : 7 H J J R.v.b.b.b.N N s s S.D.R.R.....Z R.y.y.`.",
"`.> 1   : 7 7 8 7 & & J L.v.b.m N Y +.' b M r.r.D ..+.Z R.t.e.`.",
"`.- <   : 9 0 9 7 7 = H K.w.t.a Z Y @.U +.%.A C  .#. .N K.r.e.`.",
"`.* > . 6 6 9 9 6 7 & z V.q.q.e A Y @.Y #.%.=.5.[ ..O.B D.6.2.`.",
"`.* > > + o : 6 6 6 $ G M.6.0.r L Y @.Y @.@.@.4.Y A C s N.2.:.`.",
"'.`.> , 1 1 # 6 : & & k v.:.2.w V A o.U  .o.T o.V B.N.m.,.-.| `.",
"'.'.`.> > 1 1 # 6 = $ j w.:.:.8 s V { n A C N.V.N.6.>.-.| `.`.'.",
"'.'.'.`.`.1 t u * = = k 0.| } 7 w q r N.B.B.:.;.;.:.;.`.`.'.'.'.",
"'.'.'.'.'.`.1 1 p p , g ,.( } : 0.0.x.| | } -.| } `.`.'.'.'.'.'.",
"'.'.'.'.'.'.`.t u u p d :.^ ^ ^ ^ ^ / } / / / `.`.'.'.'.'.'.'.'.",
"'.'.'.'.'.'.'.`.3 u u p } v W v Q v v W `.`.`.'.'.'.'.'.'.'.'.'.",
"'.'.'.'.'.'.'.'.`.`.u u / c l c c `.`.`.'.'.'.'.'.'.'.'.'.'.'.'.",
"'.'.'.'.'.'.'.'.'.'.`.3 v x `.`.`.'.'.'.'.'.'.'.'.'.'.'.'.'.'.'.",
"'.'.'.'.'.'.'.'.'.'.'.`.`.`.'.'.'.'.'.'.'.'.'.'.'.'.'.'.'.'.'.'."
};
