/* XPM */
static char *crystal50[] = {
/* columns rows colors chars-per-pixel */
"50 50 167 2 ",
"   c #1D5F6E",
".  c #1F606F",
"X  c #1B6375",
"o  c #1E677A",
"O  c #236673",
"+  c #246877",
"@  c #216778",
"#  c #256B7A",
"$  c #2C6D7B",
"%  c #326F7C",
"&  c #2E717E",
"*  c #32717E",
"=  c #256C80",
"-  c #2C6F80",
";  c #237283",
":  c #2C7283",
">  c #257789",
",  c #297488",
"<  c #257A8C",
"1  c #2B7B8C",
"2  c #327382",
"3  c #397784",
"4  c #347A86",
"5  c #3B7885",
"6  c #337D8C",
"7  c #3A7D8B",
"8  c #2C7E91",
"9  c #317E91",
"0  c #447D8A",
"q  c #36818E",
"w  c #3B828E",
"e  c #2B8192",
"r  c #338495",
"t  c #3D8593",
"y  c #3D8895",
"u  c #328699",
"i  c #398698",
"p  c #368899",
"a  c #3B8C9C",
"s  c #3F91A0",
"d  c #43838E",
"f  c #4B828E",
"g  c #438592",
"h  c #488691",
"j  c #438A95",
"k  c #4C8A96",
"l  c #4C8798",
"z  c #448D99",
"x  c #4D8D99",
"c  c #508A96",
"v  c #528F98",
"b  c #44909C",
"n  c #4C929C",
"m  c #52939D",
"M  c #5A929C",
"N  c #4493A2",
"B  c #4B95A1",
"V  c #4699A6",
"C  c #4D99A5",
"Z  c #4D9EAA",
"A  c #5197A2",
"S  c #5A96A1",
"D  c #549BA4",
"F  c #5B9BA3",
"G  c #539DA9",
"H  c #589FAA",
"J  c #6896A0",
"K  c #639CA2",
"L  c #6B9BA4",
"P  c #6B9EA8",
"I  c #729FA8",
"U  c #4CA2AC",
"Y  c #5FA0A7",
"T  c #54A2AC",
"R  c #5BA3AC",
"E  c #56A7B0",
"W  c #5CA7B0",
"Q  c #55AAB3",
"!  c #5CAAB2",
"~  c #5EAFB8",
"^  c #63A0A7",
"/  c #6AA0A7",
"(  c #63A3AB",
")  c #6BA4AB",
"_  c #65A8AF",
"`  c #6BA8AF",
"'  c #74A2AB",
"]  c #79A3AB",
"[  c #75A8AE",
"{  c #63ABB4",
"}  c #6CACB4",
"|  c #73ADB4",
" . c #7CACB2",
".. c #65B0B7",
"X. c #64B2BA",
"o. c #6CB3BA",
"O. c #71B0B7",
"+. c #74B4BB",
"@. c #7BB5BC",
"#. c #74B8BF",
"$. c #7BB8BF",
"%. c #74B9C0",
"&. c #7EBCC2",
"*. c #7FC1C7",
"=. c #82ACB3",
"-. c #83B2B7",
";. c #84B4BA",
":. c #8AB5BB",
">. c #8BB9BF",
",. c #97B5BC",
"<. c #84BDC3",
"1. c #8BBDC2",
"2. c #93BEC3",
"3. c #98BEC3",
"4. c #86C0C6",
"5. c #8BC1C5",
"6. c #86C4CA",
"7. c #8CC5CB",
"8. c #8CC8CE",
"9. c #95C1C5",
"0. c #9AC1C6",
"q. c #93C5CA",
"w. c #9BC5CA",
"e. c #96C8CD",
"r. c #9BC9CE",
"t. c #9BCBD0",
"y. c #A4C1C6",
"u. c #A3C5CA",
"i. c #ABC6CB",
"p. c #A3CACE",
"a. c #A8CCCF",
"s. c #B2C9CE",
"d. c #A3CDD1",
"f. c #AACED1",
"g. c #A5D0D5",
"h. c #ACD1D5",
"j. c #ADD5D9",
"k. c #B2D2D5",
"l. c #BAD1D6",
"z. c #B4D6DA",
"x. c #B6D9DC",
"c. c #BBDADE",
"v. c #BEDEE1",
"b. c #C0D3D7",
"n. c #C4D6DA",
"m. c #C1DCDF",
"M. c #C9DBDE",
"N. c #C2DEE1",
"B. c #CBDDE1",
"V. c #C5E1E3",
"C. c #CAE3E5",
"Z. c #CDE6E8",
"A. c #D2E4E6",
"S. c #D4E6E8",
"D. c #D8E6E8",
"F. c #D4E9EB",
"G. c #DCEBED",
"H. c #DFEFF1",
"J. c #E0EEEF",
"K. c #E3EFF0",
"L. c #E5F1F3",
"P. c #EAF4F5",
"I. c #F1F5F6",
"U. c #F0F7F8",
"Y. c #F4F9FA",
"T. c #FEFEFE",
"R. c None",
/* pixels */
"R.R.R.R.R.R.R.R.R.R.R.R.R.R.R.R.R.R.R.R.R.R.R.R.R.R.R.R.R.R.R.R.R.R.R.R.R.R.R.R.R.R.R.R.R.R.R.R.R.R.",
"R.R.R.R.R.R.R.R.R.R.R.R.R.R.R.R.R.R.R.R.R.R.R.R.R.R.R.R.R.R.R.R.R.R.R.R.R.R.R.R.R.R.R.R.R.R.R.R.R.R.",
"R.R.R.R.R.R.R.R.R.R.R.R.R.R.R.R.R.R.R.R.R.R.R.R.R.R.R.R.R.R.R.R.R.R.R.R.R.R.R.R.R.R.R.R.R.R.R.R.R.R.",
"R.R.R.R.R.R.R.R.R.R.R.R.R.R.R.R.R.R.R.R.R.R.R.R.R.R.R.R.R.R.R.R.R.R.R.R.R.R.R.R.R.R.R.R.R.R.R.R.R.R.",
"R.R.R.R.R.R.R.R.R.R.R.R.R.R.R.R.R.R.R.R.R.R.R.R.R.R.R.R.R.R.R.R.R.R.R.R.R.R.R.R.R.R.R.R.R.R.R.R.R.R.",
"R.R.R.R.R.R.R.R.R.R.R.R.R.R.R.R.R.R.R.Y.T.T.T.R.R.R.R.R.R.R.R.R.R.R.R.R.R.R.R.R.R.R.R.R.R.R.R.R.R.R.",
"R.R.R.R.R.R.R.R.R.R.R.R.R.R.R.R.R.R.U.F.A.Z.Z.K.T.R.R.R.R.R.R.R.R.R.R.R.R.R.R.R.R.R.R.R.R.R.R.R.R.R.",
"R.R.R.R.R.R.R.R.R.R.R.R.R.R.R.R.R.Y.H.N.c.z.z.G.T.R.R.R.R.R.R.R.R.R.R.R.R.R.R.R.R.R.R.R.R.R.R.R.R.R.",
"R.R.R.R.R.R.R.R.R.R.R.R.R.R.R.R.Y.H.C.V.m.c.c.J.T.R.R.R.R.R.R.R.R.R.R.R.R.R.R.R.R.R.R.R.R.R.R.R.R.R.",
"R.R.R.R.R.R.R.R.R.R.R.R.R.R.R.Y.H.Z.C.C.N.m.c.C.G.Y.R.R.R.R.T.T.R.R.R.R.R.R.R.R.R.R.R.R.R.R.R.R.R.R.",
"R.R.R.R.R.R.R.R.R.R.R.R.R.R.Y.L.Z.C.Z.C.C.m.c.z.m.P.T.R.R.Y.Y.Y.U.R.R.R.R.R.R.R.R.R.R.R.R.R.R.R.R.R.",
"R.R.R.R.R.R.R.R.R.R.R.R.R.Y.F.C.C.C.C.C.V.m.c.x.N.Y.T.R.T.P.C.N.F.T.R.R.R.R.R.R.R.R.R.R.R.R.R.R.R.R.",
"R.R.R.R.R.R.R.R.R.R.R.R.T.U.j.q.t.v.Z.Z.V.V.c.h.z.Y.T.R.T.P.N.c.V.F.P.R.R.R.R.R.R.R.R.R.R.R.R.R.R.R.",
"R.R.R.R.R.R.R.R.R.R.R.R.T.P.<.{ %.g.V.V.V.V.c.p.t.G.Y.R.T.P.V.c.c.c.H.Y.R.R.R.R.R.R.R.R.R.R.R.R.R.R.",
"R.R.R.R.R.R.R.R.R.R.R.R.T.L.<.! o.%.e.v.V.N.c.d.q.p.C.T.T.P.V.m.c.x.v.Z.Y.R.R.R.R.R.R.R.R.R.R.R.R.R.",
"R.R.R.R.R.R.R.R.R.R.R.R.T.P.<.! { X.%.t.x.m.x.p.5.4.V.Y.Z.v.V.m.c.x.j.x.F.P.R.R.R.R.R.R.R.R.R.R.R.R.",
"R.R.R.R.R.R.R.R.R.R.R.R.T.P.&.W { ..{ o.e.x.x.p.5.5.V.P.8.*.x.c.c.c.z.j.j.F.T.T.Y.T.Y.Y.Y.R.R.R.R.R.",
"R.R.R.R.R.T.T.T.T.R.R.R.T.L.&.E { { { { +.q.k.p.<.<.V.P.6.X.*.j.v.x.z.j.g.F.Y.F.Z.C.C.C.V.L.T.R.R.R.",
"R.R.R.R.L.J.G.G.G.L.R.R.T.L.&.H ! ! { { _ o.q.q.<.<.m.P.8.~ X.t.N.x.x.j.j.Z.H.V.x.x.j.j.z.L.T.R.R.R.",
"R.R.R.T.G.0.2.2.w.A.T.T.T.K.%.U R W ! ! ! { } +.@.<.c.L.6.Q X.t.c.x.z.j.g.v.V.V.v.x.x.x.x.L.T.R.R.R.",
"R.R.R.T.S.2.:.>.>.h.C.A.S.c.} Z T R W ! W W _ o.$.$.5.e.X.Q ~ %.7.z.x.j.t.g.v.V.v.v.c.x.x.L.T.R.R.R.",
"R.R.R.T.S.2.:.1.2.u.a.h.k.d.@.W T T T R W W W } @.+...E Q ~ Q Q %.h.j.t.4.g.V.V.V.v.v.x.v.L.T.R.R.R.",
"R.R.R.T.A.>.:.>.0.p.a.h.k.k.h.<.T T T T R R R } +.O.{ E Q Q Q Q #.h.t.4.4.g.C.V.V.v.v.c.c.L.T.R.R.R.",
"R.R.R.T.A.>.-.>.w.a.a.a.f.k.z.9.{ T G G T T R } +.o.W U U U U U ..7.6.&.*.g.V.V.V.V.V.v.v.L.T.R.R.R.",
"R.R.R.T.A.;.@.>.w.p.d.f.f.f.k.w.| H G C G G H _ } } T N V Z U U ! %.&.<.4.g.V.V.V.V.V.c.N.L.T.R.R.R.",
"R.R.R.T.A.-.>.3.3.w.u.f.f.f.h.9.| } ( C B A C R } ..G s s V Z U W %.&.&.<.t.V.V.V.V.V.m.N.P.T.R.R.R.",
"R.R.R.R.G.l.-.P ' 1.d.f.f.k.k.9.| } _ B n B N G ` { C p a s V T ..#.%.<.t.x.V.B.C.B.C.m.V.L.T.R.R.R.",
"R.R.R.R.R.P. .2 7 P 3.3.0.0.u.>.} ` K n n z u V _ W B p p p s ! #.%.%.6.x.N.N.N.m.c.m.c.m.L.T.R.R.R.",
"R.R.R.R.R.I.] $ 2 0 c l l l l S P ) ( H A j e N T z q r u r a W o.#.o.<.t.g.g.g.h.g.d.t.d.G.T.R.R.R.",
"R.R.R.R.R.I.y.L 5 - 2 2 : - = g P _ ( K m t e a b 1 1 1 e p V ! o.o.%.<.t.t.t.t.q.5.<.e.c.K.R.R.R.R.",
"R.R.R.R.R.R.T.b.0 % 2 2 2 2 2 l ( ( Y H x i < e 1 > , 1 1 b { { { o.<.e.e.e.q.q.1.+.@.d.U.R.R.R.R.R.",
"R.R.R.R.R.R.T.n.0 $ 2 2 - 3 M / / ( K F k t < e < ; ; > p Z { ..o.<.q.e.r.<.@.@.} | z.G.R.R.R.R.R.R.",
"R.R.R.R.R.R.R.B.] 0 2 2 2 h  .-.` ^ F F v w > e ; # < e b T ! o.@.9.5.1.<.+.` 5.e.p.G.R.R.R.R.R.R.R.",
"R.R.R.R.R.R.R.R.P.=.2 2 0 F  .:.-.` ^ F M n e < < o q b n T _ $.1.1.| _ ` _ @.D.Y.I.R.R.R.R.R.R.R.R.",
"R.R.R.R.R.R.R.R.Y.=.2 g x F P  .:. .) F Y m e > e q y b n Y +.O.} } _ Y R q.C.P.R.R.R.R.R.R.R.R.R.R.",
"R.R.R.R.R.R.R.R.T.,.7 v S S F ` :.:. .( F n : > q j j b n Y | Y m T Y R Y r.G.R.R.R.R.R.R.R.R.R.R.R.",
"R.R.R.R.R.R.R.R.Y.3.n m D F F ` >.:.-. .) n > q w j n n y j m n m T Y T m T @.G.R.R.R.R.R.R.R.R.R.R.",
"R.R.R.R.R.R.R.D.u.[ m m D S F ( [ -.-. .[ M y y j j j w w y j b n D b z n n R p.A.R.R.R.R.R.R.R.R.R.",
"R.R.R.R.R.R.T.B.m j n m m D F m M [ -. . .) M m j j w w w y j b n b q 1 V T R ` d.P.R.R.R.R.R.R.R.R.",
"R.R.R.R.R.R.T.B.v t n m m D F k q / -. .[ [ / m w 4 4 4 w w y b s q > q n ! } O.@.e.G.T.R.R.R.R.R.R.",
"R.R.R.R.R.R.T.M.k q j n n m k 4 $ f M M K [ ' v 4 2 2 4 6 6 6 7 9 , , 9 z R O.O.1.j.J.R.R.R.R.R.R.R.",
"R.R.R.R.R.R.T.M.M k m M m j : # # # # $ c / K d $ : 2 2 4 : # = = , , 8 u G @.<.z.Y.R.R.R.R.R.R.R.R.",
"R.R.R.R.R.R.R.J.C.M.B.C. .& # + O O O O * 5 * % + # - - @ X X o = , 8 9 u G <.N.L.R.R.R.R.R.R.R.R.R.",
"R.R.R.R.R.R.R.R.T.T.T.T.i./ ' ' J 0 O O . . O f ' ] ] I L L P ' S 9 < 8 9 } z.P.R.R.R.R.R.R.R.R.R.R.",
"R.R.R.R.R.R.R.R.R.R.R.R.I.I.I.Y.J.J $ % % % % ,.I.I.I.I.I.I.I.Y.l.l 8 i a r.Y.R.R.R.R.R.R.R.R.R.R.R.",
"R.R.R.R.R.R.R.R.R.R.R.R.R.R.R.R.R.l.s.s.s.s.s.M.R.R.R.R.R.R.R.R.S.l.l.k.l.C.R.R.R.R.R.R.R.R.R.R.R.R.",
"R.R.R.R.R.R.R.R.R.R.R.R.R.R.R.R.R.T.T.T.T.T.T.R.R.R.R.R.R.R.R.R.R.T.T.T.T.R.R.R.R.R.R.R.R.R.R.R.R.R.",
"R.R.R.R.R.R.R.R.R.R.R.R.R.R.R.R.R.R.R.R.R.R.R.R.R.R.R.R.R.R.R.R.R.R.R.R.R.R.R.R.R.R.R.R.R.R.R.R.R.R.",
"R.R.R.R.R.R.R.R.R.R.R.R.R.R.R.R.R.R.R.R.R.R.R.R.R.R.R.R.R.R.R.R.R.R.R.R.R.R.R.R.R.R.R.R.R.R.R.R.R.R.",
"R.R.R.R.R.R.R.R.R.R.R.R.R.R.R.R.R.R.R.R.R.R.R.R.R.R.R.R.R.R.R.R.R.R.R.R.R.R.R.R.R.R.R.R.R.R.R.R.R.R."
};
