/* XPM */
static char *diamond50[] = {
/* columns rows colors chars-per-pixel */
"50 50 129 2 ",
"   c #212F3A",
".  c #23333E",
"X  c #263642",
"o  c #263A47",
"O  c #2A3B46",
"+  c #2B3E4A",
"@  c #2C414E",
"#  c #33444E",
"$  c #2E4452",
"%  c #314653",
"&  c #384751",
"*  c #354954",
"=  c #394C56",
"-  c #304758",
";  c #334B59",
":  c #3B4E59",
">  c #3C525D",
",  c #3E5561",
"<  c #41525E",
"1  c #425662",
"2  c #435964",
"3  c #495A65",
"4  c #445C6A",
"5  c #4C5E6A",
"6  c #4B626D",
"7  c #53636D",
"8  c #4F6671",
"9  c #4F6872",
"0  c #526671",
"q  c #526974",
"w  c #596B75",
"e  c #566E7B",
"r  c #5A6D79",
"t  c #57707B",
"y  c #5C727D",
"u  c #63747D",
"i  c #69767F",
"p  c #577280",
"a  c #5D7583",
"s  c #5D7887",
"d  c #5E7989",
"f  c #627582",
"g  c #647985",
"h  c #6A7B85",
"j  c #657D8B",
"k  c #6A7E8B",
"l  c #6C828D",
"z  c #71858E",
"x  c #7A858E",
"c  c #678291",
"v  c #6C8492",
"b  c #728793",
"n  c #798692",
"m  c #748A95",
"M  c #7B8C95",
"N  c #748D9B",
"B  c #7D8D98",
"V  c #7C929C",
"C  c #7D94A0",
"Z  c #838F97",
"A  c #828E99",
"S  c #83949D",
"D  c #8A969D",
"F  c #8E999E",
"G  c #8296A0",
"H  c #859AA3",
"J  c #8B9CA3",
"K  c #889EA8",
"L  c #919CA2",
"P  c #8CA0A6",
"I  c #8CA2AB",
"U  c #95A1A7",
"Y  c #93A4AC",
"T  c #9CA5AB",
"R  c #93A9AF",
"E  c #99A8AF",
"W  c #8FA6B0",
"Q  c #90A6B0",
"!  c #95AAB2",
"~  c #9BADB5",
"^  c #99AFB8",
"/  c #9CB0B6",
"(  c #9DB2BB",
")  c #A5ADB2",
"_  c #AAB1B6",
"`  c #A2B5BC",
"'  c #AAB6BA",
"]  c #A6B8BF",
"[  c #A9BABF",
"{  c #B1B7BC",
"}  c #A4B7C0",
"|  c #A6BAC2",
" . c #ABBDC4",
".. c #B2BCC0",
"X. c #ADC0C7",
"o. c #AEC1C8",
"O. c #BDC3C7",
"+. c #B4C4CA",
"@. c #B9C6CB",
"#. c #BAC9CE",
"$. c #BDCCD1",
"%. c #C3C9CE",
"&. c #C8CDCF",
"*. c #C1CED3",
"=. c #C9CED0",
"-. c #C4D2D6",
";. c #CBD1D5",
":. c #C7D5D8",
">. c #CAD6DA",
",. c #CDD9DD",
"<. c #D2D6D8",
"1. c #D3DBDE",
"2. c #D9DCDF",
"3. c #CFDBE0",
"4. c #D2DEE1",
"5. c #D9DEE1",
"6. c #D6E1E4",
"7. c #DAE2E5",
"8. c #DEE7E9",
"9. c #E3EAED",
"0. c #E8EDEF",
"q. c #E5EEF0",
"w. c #E9EFF1",
"e. c #EDF2F4",
"r. c #F2F5F6",
"t. c #F2F7F8",
"y. c #F5F9FA",
"u. c #FDFEFE",
"i. c None",
/* pixels */
"i.i.i.i.i.i.i.i.i.i.i.i.i.i.i.i.i.i.i.i.i.i.i.i.i.i.i.i.i.i.i.i.i.i.i.i.i.i.i.i.i.i.i.i.i.i.i.i.i.i.",
"i.i.i.i.i.i.i.i.i.i.i.i.i.i.i.i.i.i.i.i.i.i.i.i.i.i.i.i.i.i.i.i.i.i.i.i.i.i.i.i.i.i.i.i.i.i.i.i.i.i.",
"i.i.i.i.i.i.i.i.i.i.i.i.i.i.i.i.i.i.i.i.i.i.i.i.i.i.i.i.i.i.i.i.i.i.i.i.i.i.i.i.i.i.i.i.i.i.i.i.i.i.",
"i.i.i.i.i.i.i.i.i.i.i.i.i.i.i.i.i.i.i.i.i.i.i.i.i.i.i.i.i.i.i.i.i.i.i.i.i.i.i.i.i.i.i.i.i.i.i.i.i.i.",
"i.i.i.i.i.i.i.i.i.i.i.i.i.i.i.i.i.i.i.i.i.i.i.i.i.i.i.i.i.i.i.i.i.i.i.i.i.i.i.i.i.i.i.i.i.i.i.i.i.i.",
"i.i.i.i.i.i.i.i.i.i.i.i.i.i.i.i.r.u.u.u.i.i.i.i.i.i.i.i.i.i.i.i.i.i.i.i.i.i.i.i.i.i.i.i.i.i.i.i.i.i.",
"i.i.i.i.i.i.i.i.i.i.i.i.i.u.u...L 1.t.9.e.u.u.u.u.i.i.i.i.i.i.i.i.i.i.i.i.i.i.i.i.i.i.i.i.i.i.i.i.i.",
"i.i.i.i.i.i.i.i.i.i.i.i.2.;.=.L 7 U ;.4.0.e.r.r.r.i.i.i.i.i.i.i.i.i.i.i.i.i.i.i.i.i.i.i.i.i.i.i.i.i.",
"i.i.i.i.i.i.i.i.i.u.u.r.) 7 7 7 5 0 J 5.5.>.;.3.7.y.u.u.i.i.i.i.i.i.i.i.i.i.i.i.i.i.i.i.i.i.i.i.i.i.",
"i.i.i.i.i.i.i.u.u.{ F L h < < 3 5 3 A 9.4.*.>.>.,.9.0.w.y.u.u.i.i.i.i.i.i.i.i.i.i.i.i.i.i.i.i.i.i.i.",
"i.i.i.i.i.i.5.5.<.x & : < 1 3 3 5 5 k ;.3.3.>.>.,.,.,.4.w.u.y.i.i.i.i.i.i.i.i.i.i.i.i.i.i.i.i.i.i.i.",
"i.i.i.i.i.r.D 7 7 3 < < 1 3 3 5 0 0 f n ..9.3.3.,.,.<.3.4.4.6.r.u.i.i.i.i.i.i.i.i.i.i.i.i.i.i.i.i.i.",
"i.i.i.i.i.r.S 1 3 6 0 q f k n n k B B A ;.t.9.9.8.4.,.3.,.>.3.w.y.u.u.i.i.i.i.i.i.i.i.i.i.i.i.i.i.i.",
"i.i.i.i.i.r.K p s f j k G E ~ ~ } ) T } *.9.w.e.w.6.4.6.3.4.6.q.t.u.u.u.i.i.i.i.i.i.i.i.i.i.i.i.i.i.",
"i.i.i.i.i.r.Y p s a k G K E E ~ ~ A k k B ~ *.>.3.q.e.q.6.6.q.e.t.t.t.y.u.u.u.i.i.i.i.i.i.i.i.i.i.i.",
"i.i.i.i.i.r.@.J j j N K ! K G G A f f k g B @.*.*.6.q.8.9.q.t.e.e.e.t.t.u.u.u.u.i.i.i.i.i.i.i.i.i.i.",
"i.i.i.i.i.i.u.,.b b H G J H l y p f f k j K $.-.*.-.-.3.8.e.e.e.t.y.t.y.y.y.y.y.u.i.i.i.i.i.i.i.i.i.",
"i.i.i.i.i.i.u.7.H C G k h k g a f f j k j K #.-.*.*.*.:.3.6.7.e.y.y.y.y.y.t.y.y.y.u.i.i.i.i.i.i.i.i.",
"i.i.i.i.i.i.u.2.M b n r r a y g j j k k j W o.-.*.-.-.:.-.>.3.8.q.q.e.y.y.y.y.t.t.u.u.i.i.i.i.i.i.i.",
"i.i.i.i.i.i.u.=.7 5 y r y g l l j k k k j K $.-.*.-.:.:.:.>.>.3.3.4.q.t.t.t.y.t.t.t.u.u.i.i.i.i.i.i.",
"i.i.i.i.i.i.u.&.3 # < u l l c c j k N N k W +.:.*.*.-.-.>.>.>.>.3.3.6.8.3.9.y.y.t.y.y.u.u.i.i.i.i.i.",
"i.i.i.i.i.i.u.=.3 # = q y g l v k k k N k W +.-.$.*.*.:.:.>.>.>.3.4.6.3.o.$.q.e.e.e.e.e.r.y.i.i.i.i.",
"i.i.i.i.i.i.u.=.5 # # = = 6 c N k k C C C W +.-.$.$.*.:.:.:.>.>.3.6.3.$.o.o.#.6.8.6.3.3.6.e.u.i.i.i.",
"i.i.i.i.i.i.i.2.) u # & * > 6 t j j j j j W +.:.$.$.*.*.-.:.>.3.3.$.#.o.X.X.X.6.7.3.,.:.:.e.u.i.i.i.",
"i.i.i.i.i.i.i.i.y.F & = > > @ > p s d d s V +.*.*.$.$.$.*.-.3.3.-.o. .X.X.| o.>.4.,.,.>.:.e.u.i.i.i.",
"i.i.i.i.i.i.i.i.u.F & : > > $ $ ; p j d s N +.$.$.$.$.$.*.>.3.#.o.X. .| | | | X.$.4.,.>.:.e.u.i.i.i.",
"i.i.i.i.i.i.i.i.y.L : > < > * @ - 4 p j d C o.$.#.*.-.-.3.3.3.@.|  .| | | | ( ( #.4.1.:.>.e.u.i.i.i.",
"i.i.i.i.i.i.i.i.y.P : > 2 > % @ - - 4 d j N +.$.#.:.3.3.3.4.4.@. .| | | | } ( ( o.:.>.:.:.w.u.i.i.i.",
"i.i.i.i.i.i.i.i.y.L : > , , $ @ $ - , , , d +.:.-.>.>.>.3.4.4.3.$.] ] ( ( ( ( ( ! ! #.:.:.e.u.i.i.i.",
"i.i.i.i.i.i.i.i.u.L * > 4 , $ $ $ - ; - $ 0 ` #.@.-.3.3.3.3.4.5.:.( / ( ( ( ^ W C V X.:.:.w.u.i.i.i.",
"i.i.i.i.i.i.i.i.y.U 2 2 , , $ @ $ - - ; ; q Y ^ ` @.;.>.3.3.4.4.-.] ^ ^ ^ ^ W V m m X.-.-.w.u.i.i.i.",
"i.i.i.i.i.i.i.i.i.<.) q , , $ o $ - - ; t V Q Q ! ~ ` | -.4.4.5.,.$.| ! ^ I N m l m X.:.-.w.u.i.i.i.",
"i.i.i.i.i.i.i.i.i.u.2.u : > @ @ @ $ @ * c R R R P P P R  .$.*.,.6.4.o.R P N c c g l I X.$.q.u.i.i.i.",
"i.i.i.i.i.i.i.i.i.u.2.r : > @ + @ @ @ * l I P P P C H H P R / #.4.,.[ H m l l c g g l S #.w.u.i.i.i.",
"i.i.i.i.i.i.i.i.i.u.2.r : > + O @ . = y m C C V V V V V V m z V P P V m c g s g s y e m @.e.u.i.i.i.",
"i.i.i.i.i.i.i.i.i.u.1.w * = O . O * 9 V V V V m M m z z z g t q 9 9 t y y y t t e t z R :.e.u.i.i.i.",
"i.i.i.i.i.i.i.i.i.u.2.w * & O . @ w x M m m z l z z g t w q 9 9 9 9 9 9 q 9 9 9 6 y O.r.r.i.i.i.i.i.",
"i.i.i.i.i.i.i.i.i.i.9.) i & X # 6 l m z z l l g y y q 9 9 9 6 6 4 6 3 y E [ ' ' ` ' 2.i.i.i.i.i.i.i.",
"i.i.i.i.i.i.i.i.i.i.i.u.T # . < l l l l h i g r 9 9 6 9 6 w h h h h u V 0.u.u.u.u.u.i.i.i.i.i.i.i.i.",
"i.i.i.i.i.i.i.i.i.i.i.u.T # . : i l i g r 9 0 6 9 6 3 4 2 M 1.7.6.6.6.5.i.i.i.i.i.i.i.i.i.i.i.i.i.i.",
"i.i.i.i.i.i.i.i.i.i.i.u.T # & 5 f u w 0 5 2 2 , 0 D E U U { u.u.u.u.u.i.i.i.i.i.i.i.i.i.i.i.i.i.i.i.",
"i.i.i.i.i.i.i.i.i.i.i.u.T = w i r 7 6 r w e w 0 z 5.u.u.u.u.i.i.i.i.i.i.i.i.i.i.i.i.i.i.i.i.i.i.i.i.",
"i.i.i.i.i.i.i.i.i.i.i.u._ 7 w 0 3 1 h %.>.;.;.;.;.i.i.i.i.i.i.i.i.i.i.i.i.i.i.i.i.i.i.i.i.i.i.i.i.i.",
"i.i.i.i.i.i.i.i.i.i.i.u.%.T U L D Z ) r.u.u.u.u.u.i.i.i.i.i.i.i.i.i.i.i.i.i.i.i.i.i.i.i.i.i.i.i.i.i.",
"i.i.i.i.i.i.i.i.i.i.i.i.r.r.r.r.r.r.r.i.i.i.i.i.i.i.i.i.i.i.i.i.i.i.i.i.i.i.i.i.i.i.i.i.i.i.i.i.i.i.",
"i.i.i.i.i.i.i.i.i.i.i.i.i.i.i.i.i.i.i.i.i.i.i.i.i.i.i.i.i.i.i.i.i.i.i.i.i.i.i.i.i.i.i.i.i.i.i.i.i.i.",
"i.i.i.i.i.i.i.i.i.i.i.i.i.i.i.i.i.i.i.i.i.i.i.i.i.i.i.i.i.i.i.i.i.i.i.i.i.i.i.i.i.i.i.i.i.i.i.i.i.i.",
"i.i.i.i.i.i.i.i.i.i.i.i.i.i.i.i.i.i.i.i.i.i.i.i.i.i.i.i.i.i.i.i.i.i.i.i.i.i.i.i.i.i.i.i.i.i.i.i.i.i.",
"i.i.i.i.i.i.i.i.i.i.i.i.i.i.i.i.i.i.i.i.i.i.i.i.i.i.i.i.i.i.i.i.i.i.i.i.i.i.i.i.i.i.i.i.i.i.i.i.i.i.",
"i.i.i.i.i.i.i.i.i.i.i.i.i.i.i.i.i.i.i.i.i.i.i.i.i.i.i.i.i.i.i.i.i.i.i.i.i.i.i.i.i.i.i.i.i.i.i.i.i.i."
};
