/* XPM */
static char *dwarf50[] = {
/* columns rows colors chars-per-pixel */
"50 50 204 2 ",
"   c #262A2C",
".  c #2E2E2D",
"X  c #272624",
"o  c #332F2B",
"O  c #352E26",
"+  c #34312D",
"@  c #3C332B",
"#  c #3F3625",
"$  c #302F30",
"%  c #333333",
"&  c #3C3632",
"*  c #343439",
"=  c #36393A",
"-  c #3B3B3C",
";  c #3C3738",
":  c #44362A",
">  c #483728",
",  c #4B3929",
"<  c #473526",
"1  c #553B25",
"2  c #583D26",
"3  c #533D29",
"4  c #433B34",
"5  c #4A3C33",
"6  c #423634",
"7  c #563F36",
"8  c #68411F",
"9  c #57412C",
"0  c #544339",
"q  c #59413D",
"w  c #5B4B39",
"e  c #554738",
"r  c #644124",
"t  c #6C4524",
"y  c #69472C",
"u  c #724826",
"i  c #6D4D32",
"p  c #654639",
"a  c #6B4A3B",
"s  c #634C39",
"d  c #744F3F",
"f  c #6F5034",
"g  c #795137",
"h  c #76543C",
"j  c #3B3B42",
"k  c #453A44",
"l  c #4B3C45",
"z  c #4B3E4A",
"x  c #473C49",
"c  c #3A424C",
"v  c #3A4349",
"b  c #3D4B5C",
"n  c #3C4657",
"m  c #3E4A61",
"M  c #4D404D",
"N  c #4D4D4D",
"B  c #594342",
"V  c #5C4941",
"C  c #4E4553",
"Z  c #4B4E54",
"A  c #464E51",
"S  c #584B51",
"D  c #504755",
"F  c #4C5156",
"G  c #48555C",
"H  c #565553",
"J  c #664B41",
"K  c #704E41",
"L  c #675B4E",
"P  c #695444",
"I  c #755242",
"U  c #7B5444",
"Y  c #765B46",
"T  c #685553",
"R  c #7F5E51",
"E  c #7C654A",
"W  c #64615F",
"Q  c #404C63",
"!  c #425263",
"~  c #465B66",
"^  c #485B66",
"/  c #46596D",
"(  c #585E6C",
")  c #4B5A73",
"_  c #4B5977",
"`  c #505B73",
"'  c #4B636E",
"]  c #4C6477",
"[  c #556A76",
"{  c #5B6E75",
"}  c #6B6866",
"|  c #6F767F",
" . c #767472",
".. c #796B61",
"X. c #845B49",
"o. c #865C4A",
"O. c #8D614E",
"+. c #846849",
"@. c #886E4E",
"#. c #91734F",
"$. c #8F6350",
"%. c #916451",
"&. c #947954",
"*. c #8F6C4F",
"=. c #AB7253",
"-. c #A87758",
";. c #B37854",
":. c #B17745",
">. c #897865",
",. c #9A7A66",
"<. c #85726D",
"1. c #A58258",
"2. c #AD885B",
"3. c #B7845B",
"4. c #8D8068",
"5. c #958F78",
"6. c #BE9361",
"7. c #B5896D",
"8. c #C8845C",
"9. c #C5935E",
"0. c #D38E60",
"q. c #CA9566",
"w. c #DA9361",
"e. c #C88F64",
"r. c #D4A369",
"t. c #E7A66C",
"y. c #FAAE70",
"u. c #EBB374",
"i. c #F3B974",
"p. c #FFBC76",
"a. c #F8BE7A",
"s. c #FEC379",
"d. c #4E6483",
"f. c #546C8C",
"g. c #536F80",
"h. c #577585",
"j. c #567393",
"k. c #5C7A94",
"l. c #5A7695",
"z. c #697E8A",
"x. c #63738B",
"c. c #717B86",
"v. c #617A96",
"b. c #5D839D",
"n. c #7B858B",
"m. c #63839B",
"M. c #66899C",
"N. c #6E8791",
"B. c #708A94",
"V. c #6C848D",
"C. c #648AA8",
"Z. c #748BA3",
"A. c #6C9BB6",
"S. c #6895B1",
"D. c #7399B2",
"F. c #7094AB",
"G. c #6FA1BC",
"H. c #78A4BC",
"J. c #6FA4C0",
"K. c #76A7C0",
"L. c #808183",
"P. c #90908F",
"I. c #8E8F92",
"U. c #989597",
"Y. c #AD9D8E",
"T. c #BB9F80",
"R. c #A0A499",
"E. c #879FB1",
"W. c #919BA3",
"Q. c #9BA1AB",
"!. c #8AA6B8",
"~. c #8DB0BC",
"^. c #AAAAAA",
"/. c #BFB1AD",
"(. c #AEAEB0",
"). c #BBBBBC",
"_. c #B8B8B7",
"`. c #D1B18D",
"'. c #C6B190",
"]. c #EFB980",
"[. c #85B1C6",
"{. c #8CB2C4",
"}. c #98BCCB",
"|. c #A5BBC0",
" X c #B4B8C1",
".X c #9EC0CC",
"XX c #9BC2D1",
"oX c #97C1D0",
"OX c #ACC9D2",
"+X c #ABCFD9",
"@X c #B7D4DA",
"#X c #AACAD4",
"$X c #B6D7E0",
"%X c #CBCBCD",
"&X c #C6C7C9",
"*X c #D9D9DC",
"=X c #D3D3D7",
"-X c #E9D7CB",
";X c #C1DFE4",
":X c #C8E4E5",
">X c #D2ECEB",
",X c #F9F9FA",
"<X c #E6E6E7",
"1X c None",
/* pixels */
"1X1X1X1X1X1X1X1X1X1X1X1X1X1X1X1X1X1X1X1X1X1X1X1X1X1X1X1X1X1X1X1X1X1X1X1X1X1X1X1X1X1X1X1X1X1X1X1X1X1X",
"1X1X1X1X1X1X1X1X1X1X1X1X1X1X1X1X1X1X1X1X1X1X1X1X1X1X1X1X1X1X1X1X1X1X1X1X1X1X1X1X1X1X1X1X1X1X1X1X1X1X",
"1X1X1X1X1X1X1X1X1X1X1X1X1X1X1X1X1X1X1X1X1X1X1X1X1X1X1X1X1X1X1X1X1X1X1X1X1X1X1X1X1X1X1X1X1X1X1X1X1X1X",
"1X1X1X1X1X1X1X1X1X1X1X1X1X1X1X1X1X1X1X1X1X1X1X1X1X1X1X1X1X1X1X1X1X1X1X1X1X1X1X1X1X1X1X1X1X1X1X1X1X1X",
"1X1X1X1X1X1X1X1X1X1X1X1X1X1X1X1X1X1X1X1X1X1X1X1X1X1X1X1X1X1X1X1X1X1X1X1X1X1X1X1X1X1X1X1X1X1X1X1X1X1X",
"1X1X1X1X1X1X1X1X1X1X1X1X1X1X1X1X1X1X1X1X1X1X1X1X1X1X1X1X1X1X1X1X1X1X1X1X1X1X1X1X1X1X1X1X1X1X1X1X1X1X",
"1X1X1X1X1X1X1X1X1X1X1X1X1X1X1X1X1X1X1X1X1X1X1X1X1X1X1X1X1X1X1X1X1X1X1X1X1X1X1X1X1X1X1X1X1X1X1X1X1X1X",
"1X1X1X1X1X1X1X1X1X1X1X1X1X1X1X1X1X1X1X1X1X1X1X1X1X1X1X1X1X1X1X1X1X1X1X1X1X1X1X1X1X1X1X1X1X1X1X1X1X1X",
"1X1X1X1X1X1X1X1X1X1X1X1X1X1X1X1X1X1X1X1X1X1X1X1X1X1X1X1X1X1X1X1X1X1X1X1X1X1X1X1X1X1X1X1X1X1X1X1X1X1X",
"1X1X1X1X1X1X1X1X1X1X1X1X1X1X1X1X1X1X1X1X1X. X X 1X1X1X1X1X1X1X1X1X1X1X1X1X1X1X1X1X1X1X1X1X1X1X1X1X1X",
"1X1X1X1X1X1X1X1X1X1X1X1X1X1X1X1X1X1X1X1X* v G n v 1X1X1X1X1X1X1X1X1X1X1X1X1X1X1X1X1X1X1X1X1X1X1X1X1X",
"1X1X1X1X1X1X1X1X1X1X1X1X1X1X1X1X1X. . % n x._.~.k.v . . 1X1X1X1X1X1X1X1X1X1X1X1X1X1X1X1X1X1X1X1X1X1X",
"1X1X1X1X1X1X1X1X1X1X1X1X1X1X1X1X% ~ { n.E.!.!..X}.h.m n * 1X1X1X1X1X1X1X1X1X1X1X1X1X1X1X1X1X1X1X1X1X",
"1X1X1X1X1X1X1X1X1X1X1X1X1X1X1X* c M.oX:X>X#Xx.E.OX[.C.d.c % 1X1X1X1X1X1X1X1X1X1X1X1X1X1X1X1X1X1X1X1X",
"1X1X1X1X1X1X1X1X1X1X1X1X1X1X. G M.XX;X:X>X@XD.b.Z.OX}.C.] n % 1X1X1X1X1X1X1X1X1X1X1X1X1X1X1X1X1X1X1X",
"1X1X1X1X1X1X1X1X1X1X1X1X1X1X. ~ K.@X>X:X@XoXH.j.x.@X+XA.C.) % 1X1X1X1X1X1X1X1X1X1X1X1X1X1X1X1X1X1X1X",
"1X1X1X1X1X1X1X1X1X1X1X1X1X1X. ~ H.+X:X@X{.A.A.j.x.OXXXA.A.g.% 1X1X1X1X1X1X+ + 1X1X1X1X1X1X1X1X1X1X1X",
"1X1X1X1X1X1X1X1X1X1X1X1X1X1X. ~ G.[.!.M.l.j.j.d.j.!.D.j.l./ % 1X1X1X1X1X. > 2 O 1X1X1X1X1X1X1X1X1X1X",
"1X1X1X1X1X1X1X1X1X1X1X1X1X1X. ^ G.J.b.! b b Q / f.S.j.m m c $ 1X1X1X1X1X- L >.} H 1X1X1X1X1X1X1X1X1X",
"1X1X1X1X1X1X1X1X1X1X1X1X1X1X. ^ S.G.k.= * = * n d.S.g.j % % $ 1X1X1X. % F I.&X%XP.- * ; 1X1X1X1X1X1X",
"1X1X1X1X1X1X1X1X1X1X1X1X1X1X. n j.k./ = n.U.e - c b c.W.L # . 1X1X1X. * Z n._.=XOXU.^.P.- 1X1X1X1X1X",
"1X1X1X1X1X1X1X1X1X1X1X1X1X1Xj m f.j./ = U./.E y w J Y.-X,.9 +   1X1X. * Z c.Q.%X*X-X,X_.4 1X1X1X1X1X",
"1X1X1X1X1X1X1X1X1X1X1X1X1X= ! j.S.A.h.= q R O.;.0.r.a.].-.J % . % 1X. = G c.Q.&X=X*X,X_.j 1X1X1X1X1X",
"1X1X1X1X1X1X1X1X1X1X1X1XY #.F m ' ' G 0 a X.O.=.8.q.q.3.-.U e +.@.+ 1X% j S .. .(.<X(. .1X1X1X1X1X1X",
"1X1X1X1X1X1X1X1X1X1X1Xe 2.u.Y & $ $ 6 p U $.%.%.%.%.%.$.O.I J q.r.P 1X1X+ , 1 O n.&X} X 1X1X1X1X1X1X",
"1X1X1X1X1X1X1X1X1X1Xw q.i.u.w.o.k k k l J U %.%.%.$.%.O.U 7 0 q.p.r.E o 1 , + 1XN H 1X1X1X1X1X1X1X1X",
"1X1X1X1X1X1X1X1X1XY 1.i.s.t.=.Y l z z l 7 K %.%.%.%.%.%.d 5 % 1.y.s.5.^ 2 < . 1X1X1X1X1X1X1X1X1X1X1X",
"1X1X1X1X1X1X1X1X% 1.s.s.y.8.e * z z z l l K o.%.%.%.%.o.d 5 @ =.t.u.R.V.Y , . 1X1X1X1X1X1X1X1X1X1X1X",
"1X1X1X1X1X1X1X1X% 1.s.s.y.8.7 * z C z z l l d o.%.%.o.K B ; & ;.q.L.W +.q.+.+ 1X1X1X1X1X1X1X1X1X1X1X",
"1X1X1X1X1X1X1X1X% >.'.T.7.O.5 * z z z z l l 7 K X.X.K q l * & U *._ T ;.i.&.. 1X1X1X1X1X1X1X1X1X1X1X",
"1X1X1X1X1X1X1X1X% { E.x.C + $ - D D D D D C z B a a B z C k o o v ` ,.w.u.#.. 1X1X1X1X1X1X1X1X1X1X1X",
"1X1X1X1X1X1X1X1X% >.`.7.L . o G v.m.m.m.m.k.` S p p S ) k.] %   - J P P Y s 1X1X1X1X1X1X1X1X1X1X1X1X",
"1X1X1X1X1X1X1X1X% #.9.;.d . . G N.B.B.B.B.z.` T d d T ( V.( % . @ 9 >     1X1X1X1X1X1X1X1X1X1X1X1X1X",
"1X1X1X1X1X1X1X1X1X4 4 4 % .   9 f f f f f i y h O.O.h i i 0 + 1X1X+ 1X1X1X1X1X1X1X1X1X1X1X1X1X1X1X1X",
"1X1X1X1X1X1X1X1X1X1X1X1X1X1X. , t t t t 8 8 8 u g g g t u 2 + 1X1X1X1X1X1X1X1X1X1X1X1X1X1X1X1X1X1X1X",
"1X1X1X1X1X1X1X1X1X1X1X1X1X1X$ : t u r 1 1 1 1 1 1 1 r t t 3 + 1X1X1X1X1X1X1X1X1X1X1X1X1X1X1X1X1X1X1X",
"1X1X1X1X1X1X1X1X1X1X1X1X1X1X$ : r r 1 @ + + @ + + @ , r r 3 + 1X1X1X1X1X1X1X1X1X1X1X1X1X1X1X1X1X1X1X",
"1X1X1X1X1X1X1X1X1X1X1X1X1X1X1X@ : > : . 1X1X1X1X1X1X@ > < : 1X1X1X1X1X1X1X1X1X1X1X1X1X1X1X1X1X1X1X1X",
"1X1X1X1X1X1X1X1X1X1X1X1X1X1X1X1X. % + 1X1X1X1X1X1X1X1X. . $ 1X1X1X1X1X1X1X1X1X1X1X1X1X1X1X1X1X1X1X1X",
"1X1X1X1X1X1X1X1X1X1X1X1X1X1X1X1X1X1X1X1X1X1X1X1X1X1X1X1X1X1X1X1X1X1X1X1X1X1X1X1X1X1X1X1X1X1X1X1X1X1X",
"1X1X1X1X1X1X1X1X1X1X1X1X1X1X1X1X1X1X1X1X1X1X1X1X1X1X1X1X1X1X1X1X1X1X1X1X1X1X1X1X1X1X1X1X1X1X1X1X1X1X",
"1X1X1X1X1X1X1X1X1X1X1X1X1X1X1X1X1X1X1X1X1X1X1X1X1X1X1X1X1X1X1X1X1X1X1X1X1X1X1X1X1X1X1X1X1X1X1X1X1X1X",
"1X1X1X1X1X1X1X1X1X1X1X1X1X1X1X1X1X1X1X1X1X1X1X1X1X1X1X1X1X1X1X1X1X1X1X1X1X1X1X1X1X1X1X1X1X1X1X1X1X1X",
"1X1X1X1X1X1X1X1X1X1X1X1X1X1X1X1X1X1X1X1X1X1X1X1X1X1X1X1X1X1X1X1X1X1X1X1X1X1X1X1X1X1X1X1X1X1X1X1X1X1X",
"1X1X1X1X1X1X1X1X1X1X1X1X1X1X1X1X1X1X1X1X1X1X1X1X1X1X1X1X1X1X1X1X1X1X1X1X1X1X1X1X1X1X1X1X1X1X1X1X1X1X",
"1X1X1X1X1X1X1X1X1X1X1X1X1X1X1X1X1X1X1X1X1X1X1X1X1X1X1X1X1X1X1X1X1X1X1X1X1X1X1X1X1X1X1X1X1X1X1X1X1X1X",
"1X1X1X1X1X1X1X1X1X1X1X1X1X1X1X1X1X1X1X1X1X1X1X1X1X1X1X1X1X1X1X1X1X1X1X1X1X1X1X1X1X1X1X1X1X1X1X1X1X1X",
"1X1X1X1X1X1X1X1X1X1X1X1X1X1X1X1X1X1X1X1X1X1X1X1X1X1X1X1X1X1X1X1X1X1X1X1X1X1X1X1X1X1X1X1X1X1X1X1X1X1X",
"1X1X1X1X1X1X1X1X1X1X1X1X1X1X1X1X1X1X1X1X1X1X1X1X1X1X1X1X1X1X1X1X1X1X1X1X1X1X1X1X1X1X1X1X1X1X1X1X1X1X",
"1X1X1X1X1X1X1X1X1X1X1X1X1X1X1X1X1X1X1X1X1X1X1X1X1X1X1X1X1X1X1X1X1X1X1X1X1X1X1X1X1X1X1X1X1X1X1X1X1X1X"
};
