/* XPM */
static char *dwarf_left50[] = {
/* columns rows colors chars-per-pixel */
"50 50 204 2 ",
"   c #262A2C",
".  c #2E2E2D",
"X  c #272624",
"o  c #332F2B",
"O  c #352E26",
"+  c #34312D",
"@  c #3C332B",
"#  c #3F3625",
"$  c #302F30",
"%  c #333333",
"&  c #3C3632",
"*  c #343439",
"=  c #36393A",
"-  c #3B3B3C",
";  c #3C3738",
":  c #44362A",
">  c #483728",
",  c #4B3929",
"<  c #473526",
"1  c #553B25",
"2  c #583D26",
"3  c #533D29",
"4  c #433B34",
"5  c #4A3C33",
"6  c #423634",
"7  c #563F36",
"8  c #68411F",
"9  c #57412C",
"0  c #544339",
"q  c #59413D",
"w  c #5B4B39",
"e  c #554738",
"r  c #644124",
"t  c #6C4524",
"y  c #69472C",
"u  c #724826",
"i  c #6D4D32",
"p  c #654639",
"a  c #6B4A3B",
"s  c #634C39",
"d  c #744F3F",
"f  c #6F5034",
"g  c #795137",
"h  c #76543C",
"j  c #3B3B42",
"k  c #453A44",
"l  c #4B3C45",
"z  c #4B3E4A",
"x  c #473C49",
"c  c #3A424C",
"v  c #3A4349",
"b  c #3D4B5C",
"n  c #3C4657",
"m  c #3E4A61",
"M  c #4D404D",
"N  c #4D4D4D",
"B  c #594342",
"V  c #5C4941",
"C  c #4E4553",
"Z  c #4B4E54",
"A  c #464E51",
"S  c #584B51",
"D  c #504755",
"F  c #4C5156",
"G  c #48555C",
"H  c #565553",
"J  c #664B41",
"K  c #704E41",
"L  c #675B4E",
"P  c #695444",
"I  c #755242",
"U  c #7B5444",
"Y  c #765B46",
"T  c #685553",
"R  c #7F5E51",
"E  c #7C654A",
"W  c #64615F",
"Q  c #404C63",
"!  c #425263",
"~  c #465B66",
"^  c #485B66",
"/  c #46596D",
"(  c #585E6C",
")  c #4B5A73",
"_  c #4B5977",
"`  c #505B73",
"'  c #4B636E",
"]  c #4C6477",
"[  c #556A76",
"{  c #5B6E75",
"}  c #6B6866",
"|  c #6F767F",
" . c #767472",
".. c #796B61",
"X. c #845B49",
"o. c #865C4A",
"O. c #8D614E",
"+. c #846849",
"@. c #886E4E",
"#. c #91734F",
"$. c #8F6350",
"%. c #916451",
"&. c #947954",
"*. c #8F6C4F",
"=. c #AB7253",
"-. c #A87758",
";. c #B37854",
":. c #B17745",
">. c #897865",
",. c #9A7A66",
"<. c #85726D",
"1. c #A58258",
"2. c #AD885B",
"3. c #B7845B",
"4. c #8D8068",
"5. c #958F78",
"6. c #BE9361",
"7. c #B5896D",
"8. c #C8845C",
"9. c #C5935E",
"0. c #D38E60",
"q. c #CA9566",
"w. c #DA9361",
"e. c #C88F64",
"r. c #D4A369",
"t. c #E7A66C",
"y. c #FAAE70",
"u. c #EBB374",
"i. c #F3B974",
"p. c #FFBC76",
"a. c #F8BE7A",
"s. c #FEC379",
"d. c #4E6483",
"f. c #546C8C",
"g. c #536F80",
"h. c #577585",
"j. c #567393",
"k. c #5C7A94",
"l. c #5A7695",
"z. c #697E8A",
"x. c #63738B",
"c. c #717B86",
"v. c #617A96",
"b. c #5D839D",
"n. c #7B858B",
"m. c #63839B",
"M. c #66899C",
"N. c #6E8791",
"B. c #708A94",
"V. c #6C848D",
"C. c #648AA8",
"Z. c #748BA3",
"A. c #6C9BB6",
"S. c #6895B1",
"D. c #7399B2",
"F. c #7094AB",
"G. c #6FA1BC",
"H. c #78A4BC",
"J. c #6FA4C0",
"K. c #76A7C0",
"L. c #808183",
"P. c #90908F",
"I. c #8E8F92",
"U. c #989597",
"Y. c #AD9D8E",
"T. c #BB9F80",
"R. c #A0A499",
"E. c #879FB1",
"W. c #919BA3",
"Q. c #9BA1AB",
"!. c #8AA6B8",
"~. c #8DB0BC",
"^. c #AAAAAA",
"/. c #BFB1AD",
"(. c #AEAEB0",
"). c #BBBBBC",
"_. c #B8B8B7",
"`. c #D1B18D",
"'. c #C6B190",
"]. c #EFB980",
"[. c #85B1C6",
"{. c #8CB2C4",
"}. c #98BCCB",
"|. c #A5BBC0",
" X c #B4B8C1",
".X c #9EC0CC",
"XX c #9BC2D1",
"oX c #97C1D0",
"OX c #ACC9D2",
"+X c #ABCFD9",
"@X c #B7D4DA",
"#X c #AACAD4",
"$X c #B6D7E0",
"%X c #CBCBCD",
"&X c #C6C7C9",
"*X c #D9D9DC",
"=X c #D3D3D7",
"-X c #E9D7CB",
";X c #C1DFE4",
":X c #C8E4E5",
">X c #D2ECEB",
",X c #F9F9FA",
"<X c #E6E6E7",
"1X c None",
/* pixels */
"1X1X1X1X1X1X1X1X1X1X1X1X1X1X1X1X1X1X1X1X1X1X1X1X1X1X1X1X1X1X1X1X1X1X1X1X1X1X1X1X1X1X1X1X1X1X1X1X1X1X",
"1X1X1X1X1X1X1X1X1X1X1X1X1X1X1X1X1X1X1X1X1X1X1X1X1X1X1X1X1X1X1X1X1X1X1X1X1X1X1X1X1X1X1X1X1X1X1X1X1X1X",
"1X1X1X1X1X1X1X1X1X1X1X1X1X1X1X1X1X1X1X1X1X1X1X1X1X1X1X1X1X1X1X1X1X1X1X1X1X1X1X1X1X1X1X1X1X1X1X1X1X1X",
"1X1X1X1X1X1X1X1X1X1X1X1X1X1X1X1X1X1X1X1X1X1X1X1X1X1X1X1X1X1X1X1X1X1X1X1X1X1X1X1X1X1X1X1X1X1X1X1X1X1X",
"1X1X1X1X1X1X1X1X1X1X1X1X1X1X1X1X1X1X1X1X1X1X1X1X1X1X1X1X1X1X1X1X1X1X1X1X1X1X1X1X1X1X1X1X1X1X1X1X1X1X",
"1X1X1X1X1X1X1X1X1X1X1X1X1X1X1X1X1X1X1X1X1X1X1X1X1X1X1X1X1X1X1X1X1X1X1X1X1X1X1X1X1X1X1X1X1X1X1X1X1X1X",
"1X1X1X1X1X1X1X1X1X1X1X1X1X1X1X1X1X1X1X1X1X1X1X1X1X1X1X1X1X1X1X1X1X1X1X1X1X1X1X1X1X1X1X1X1X1X1X1X1X1X",
"1X1X1X1X1X1X1X1X1X1X1X1X1X1X1X1X1X1X1X1X1X1X1X1X1X1X1X1X1X1X1X1X1X1X1X1X1X1X1X1X1X1X1X1X1X1X1X1X1X1X",
"1X1X1X1X1X1X1X1X1X1X1X1X1X1X1X1X1X1X1X1X1X1X1X1X1X1X1X1X1X1X1X1X1X1X1X1X1X1X1X1X1X1X1X1X1X1X1X1X1X1X",
"1X1X1X1X1X1X1X1X1X1X1X1X1X1X1X1X1X1X1X1X1X1X1X1X1X1XX X . 1X1X1X1X1X1X1X1X1X1X1X1X1X1X1X1X1X1X1X1X1X",
"1X1X1X1X1X1X1X1X1X1X1X1X1X1X1X1X1X1X1X1X1X1X1X1X1Xv A G v * 1X1X1X1X1X1X1X1X1X1X1X1X1X1X1X1X1X1X1X1X",
"1X1X1X1X1X1X1X1X1X1X1X1X1X1X1X1X1X1X1X1X1X1X. . v k.~._.x.n % . $ 1X1X1X1X1X1X1X1X1X1X1X1X1X1X1X1X1X",
"1X1X1X1X1X1X1X1X1X1X1X1X1X1X1X1X1X1X1X1X1X* c ! h.}.|.!.!.W.V.{ ~ + 1X1X1X1X1X1X1X1X1X1X1X1X1X1X1X1X",
"1X1X1X1X1X1X1X1X1X1X1X1X1X1X1X1X1X1X1X1X* c d.C.[.+X!.k.OX>X:X}.M.c % 1X1X1X1X1X1X1X1X1X1X1X1X1X1X1X",
"1X1X1X1X1X1X1X1X1X1X1X1X1X1X1X1X1X1X1X% n ] C.}.OXZ.b.D.@X>X:X$XoXM.G . 1X1X1X1X1X1X1X1X1X1X1X1X1X1X",
"1X1X1X1X1X1X1X1X1X1X1X1X1X1X1X1X1X1X1X% ) C.A.+X@Xx.j.K.oX@X>X>X$XH.~ . 1X1X1X1X1X1X1X1X1X1X1X1X1X1X",
"1X1X1X1X1X1X1X1X1X1X1X+ + 1X1X1X1X1X1X% g.A.A.XXOXv.j.A.A.{.$X;X+XH.~ . 1X1X1X1X1X1X1X1X1X1X1X1X1X1X",
"1X1X1X1X1X1X1X1X1X1XO 2 > . 1X1X1X1X1X% ) l.j.D.!.f.d.j.j.l.Z.!.[.A.~ . 1X1X1X1X1X1X1X1X1X1X1X1X1X1X",
"1X1X1X1X1X1X1X1X1XH } >.L - 1X1X1X1X1X$ j m Q k.S.f./ m m b m b.G.G.^ . 1X1X1X1X1X1X1X1X1X1X1X1X1X1X",
"1X1X1X1X1X1X- % - I.%X&XI.Z % . 1X1X1X$ % % - g.C.f.b * * * = l.G.S.^ . 1X1X1X1X1X1X1X1X1X1X1X1X1X1X",
"1X1X1X1X1X4 I.^.U.&X=X_.n.F % . 1X1X1X+ # L Q.c.b c ; w U.L.* / l.j.n   1X1X1X1X1X1X1X1X1X1X1X1X1X1X",
"1X1X1X1X1X- ).,X*X*X%XQ.c.F * o 1X1X  + 9 ,.-XY.w w y E /.U.- / j.j.! j 1X1X1X1X1X1X1X1X1X1X1X1X1X1X",
"1X1X1X1X1X- _.,X*X=X&XQ.| N = . 1X+ $ + s -.].].r.w.=.O.R q = h.A.S.j.! * 1X1X1X1X1X1X1X1X1X1X1X1X1X",
"1X1X1X1X1X1X .(.<X(. .} H v % 1X% @.+.e Y &.8.q.e.8.=.$.X.a 0 G ' ' m F @.E 1X1X1X1X1X1X1X1X1X1X1X1X",
"1X1X1X1X1X1XX } &XL.O 1 < @ 1X1Xs r.q.J K O.%.%.%.%.%.%.$.U V 6 $ + 6 Y u.2.e 1X1X1X1X1X1X1X1X1X1X1X",
"1X1X1X1X1X1X1X1XH N 1X@ < , @ E r.s.e.5 7 U $.%.$.%.%.$.I J l k j k o.w.i.i.q.w 1X1X1X1X1X1X1X1X1X1X",
"1X1X1X1X1X1X1X1X1X1X1X. < 9 G 5.s.s.;.& 5 I $.%.%.%.*.$.g l k x z z U =.t.p.u.1.Y 1X1X1X1X1X1X1X1X1X",
"1X1X1X1X1X1X1X1X1X1X1X$ 9 h V.R.u.t.=.6 5 K o.%.%.%.$.o.I 7 x z z C * 0 8.y.p.s.1.% 1X1X1X1X1X1X1X1X",
"1X1X1X1X1X1X1X1X1X1X1X$ +.e.+.} <.e.=.6 ; l I o.%.%.o.K l l z z C z * 0 e.i.s.s.1.% 1X1X1X1X1X1X1X1X",
"1X1X1X1X1X1X1X1X1X1X1X$ &.u.:.T d.<.U & ; l 7 I o.o.K 7 l z z z z z * 5 O.7.q.'.>.% 1X1X1X1X1X1X1X1X",
"1X1X1X1X1X1X1X1X1X1X1X$ &.u.w.,.` j o $ k C z l a a B z z C S D C C ; o % Z z.D.{ % 1X1X1X1X1X1X1X1X",
"1X1X1X1X1X1X1X1X1X1X1X1Xs Y P P J & . % [ v.` S a p S _ l.Z.m.m.m.v.G . . T 7.`.4.% 1X1X1X1X1X1X1X1X",
"1X1X1X1X1X1X1X1X1X1X1X1X1X    : 2 : . % [ z.( T U d T ( z.B.N.B.B.N.F . $ h ;.6.@.+ 1X1X1X1X1X1X1X1X",
"1X1X1X1X1X1X1X1X1X1X1X1X1X1X1X1X% 1X1X+ 9 i i h O.O.I r i i f f f i 5 . + % & 0 4 1X1X1X1X1X1X1X1X1X",
"1X1X1X1X1X1X1X1X1X1X1X1X1X1X1X1X1X1X1Xo 2 u t f g g u r 8 8 t t u t > $ 1X1X1X1X1X1X1X1X1X1X1X1X1X1X",
"1X1X1X1X1X1X1X1X1X1X1X1X1X1X1X1X1X1X1X+ 3 u t r 1 1 2 1 2 1 2 r u y : . 1X1X1X1X1X1X1X1X1X1X1X1X1X1X",
"1X1X1X1X1X1X1X1X1X1X1X1X1X1X1X1X1X1X1X+ 3 r r , o + + + @ + + 2 8 r : $ 1X1X1X1X1X1X1X1X1X1X1X1X1X1X",
"1X1X1X1X1X1X1X1X1X1X1X1X1X1X1X1X1X1X1X1X: > > @ 1X1X1X1X1X1X$ : : < @ 1X1X1X1X1X1X1X1X1X1X1X1X1X1X1X",
"1X1X1X1X1X1X1X1X1X1X1X1X1X1X1X1X1X1X1X1X. . . 1X1X1X1X1X1X1X1Xo $ $ 1X1X1X1X1X1X1X1X1X1X1X1X1X1X1X1X",
"1X1X1X1X1X1X1X1X1X1X1X1X1X1X1X1X1X1X1X1X1X1X1X1X1X1X1X1X1X1X1X1X1X1X1X1X1X1X1X1X1X1X1X1X1X1X1X1X1X1X",
"1X1X1X1X1X1X1X1X1X1X1X1X1X1X1X1X1X1X1X1X1X1X1X1X1X1X1X1X1X1X1X1X1X1X1X1X1X1X1X1X1X1X1X1X1X1X1X1X1X1X",
"1X1X1X1X1X1X1X1X1X1X1X1X1X1X1X1X1X1X1X1X1X1X1X1X1X1X1X1X1X1X1X1X1X1X1X1X1X1X1X1X1X1X1X1X1X1X1X1X1X1X",
"1X1X1X1X1X1X1X1X1X1X1X1X1X1X1X1X1X1X1X1X1X1X1X1X1X1X1X1X1X1X1X1X1X1X1X1X1X1X1X1X1X1X1X1X1X1X1X1X1X1X",
"1X1X1X1X1X1X1X1X1X1X1X1X1X1X1X1X1X1X1X1X1X1X1X1X1X1X1X1X1X1X1X1X1X1X1X1X1X1X1X1X1X1X1X1X1X1X1X1X1X1X",
"1X1X1X1X1X1X1X1X1X1X1X1X1X1X1X1X1X1X1X1X1X1X1X1X1X1X1X1X1X1X1X1X1X1X1X1X1X1X1X1X1X1X1X1X1X1X1X1X1X1X",
"1X1X1X1X1X1X1X1X1X1X1X1X1X1X1X1X1X1X1X1X1X1X1X1X1X1X1X1X1X1X1X1X1X1X1X1X1X1X1X1X1X1X1X1X1X1X1X1X1X1X",
"1X1X1X1X1X1X1X1X1X1X1X1X1X1X1X1X1X1X1X1X1X1X1X1X1X1X1X1X1X1X1X1X1X1X1X1X1X1X1X1X1X1X1X1X1X1X1X1X1X1X",
"1X1X1X1X1X1X1X1X1X1X1X1X1X1X1X1X1X1X1X1X1X1X1X1X1X1X1X1X1X1X1X1X1X1X1X1X1X1X1X1X1X1X1X1X1X1X1X1X1X1X",
"1X1X1X1X1X1X1X1X1X1X1X1X1X1X1X1X1X1X1X1X1X1X1X1X1X1X1X1X1X1X1X1X1X1X1X1X1X1X1X1X1X1X1X1X1X1X1X1X1X1X",
"1X1X1X1X1X1X1X1X1X1X1X1X1X1X1X1X1X1X1X1X1X1X1X1X1X1X1X1X1X1X1X1X1X1X1X1X1X1X1X1X1X1X1X1X1X1X1X1X1X1X"
};
