/* XPM */
static char *dwarf_left3[] = {
/* columns rows colors chars-per-pixel */
"32 32 17 1 ",
"  c #2F2F2E",
". c #624023",
"X c #6F4827",
"o c #69483A",
"O c #463A46",
"+ c #4D404D",
"@ c #50565D",
"# c #916451",
"$ c #E59363",
"% c #FFC078",
"& c #4C5F80",
"* c #6E9FBA",
"= c #9299A4",
"- c #D4D4D7",
"; c #CAE5E6",
": c white",
"> c None",
/* pixels */
">>>>>>>>>>>>>>>>>>>>>>>>>>>>>>>>",
">>>>>>>>>>>>>>>>>>>>>>>>>>>>>>>>",
">>>>>>>>>>>>>>>>>>>>>>>>>>>>>>>>",
">>>>>>>>>>>>>>>>>>>>>>>>>>>>>>>>",
">>>>>>>>>>>>>>>>>>>>>>>>>>>>>>>>",
">>>>>>>>>>>>>>>>>>>>>>>>>>>>>>>>",
">>>>>>>>>>>>>>>>>>>>>>>>>>>>>>>>",
">>>>>>>>>>>>>>>>   >>>>>>>>>>>>>",
">>>>>>>>>>>>>>  *;&  >>>>>>>>>>>",
">>>>>>>>>>>>> &*;&;;* >>>>>>>>>>",
">>>>>>> >>>> &*;&*;;;* >>>>>>>>>",
">>>>>> X >>> **;&**;;* >>>>>>>>>",
">>>>  --@ >> &&*&&&&** >>>>>>>>>",
">>> :--=@ >>   *&   ** >>>>>>>>>",
">>> :--=@ >  $$  $$ && >>>>>>>>>",
">>>> : . > % #%%$#o **&  >>>>>>>",
">>>>> > . %%o######o   %% >>>>>>",
">>>>>>> .*%$ o####oO++ $%% >>>>>",
">>>>>>> %.&$ o####o+++ $%% >>>>>",
">>>>>>> %$&  +o##o++++  &* >>>>>",
">>>>>>>>  X  *&oo&****  $% >>>>>",
">>>>>>>>>> > XXoo.XXXX    >>>>>>",
">>>>>>>>>>>> XX##...XX >>>>>>>>>",
">>>>>>>>>>>> ..     .. >>>>>>>>>",
">>>>>>>>>>>>>  >>>>>  >>>>>>>>>>",
">>>>>>>>>>>>>>>>>>>>>>>>>>>>>>>>",
">>>>>>>>>>>>>>>>>>>>>>>>>>>>>>>>",
">>>>>>>>>>>>>>>>>>>>>>>>>>>>>>>>",
">>>>>>>>>>>>>>>>>>>>>>>>>>>>>>>>",
">>>>>>>>>>>>>>>>>>>>>>>>>>>>>>>>",
">>>>>>>>>>>>>>>>>>>>>>>>>>>>>>>>",
">>>>>>>>>>>>>>>>>>>>>>>>>>>>>>>>"
};
