/* XPM */
static char *egyptwall50[] = {
/* columns rows colors chars-per-pixel */
"50 50 123 2 ",
"   c #743E39",
".  c #774039",
"X  c #7C453C",
"o  c #7D483F",
"O  c #81473D",
"+  c #844A3F",
"@  c #8C4F3F",
"#  c #92513E",
"$  c #9C553D",
"%  c #854D41",
"&  c #894E40",
"*  c #865145",
"=  c #8D5243",
"-  c #8B5648",
";  c #8C5A4C",
":  c #935543",
">  c #985743",
",  c #925847",
"<  c #9B5A46",
"1  c #955C4A",
"2  c #9C5E49",
"3  c #915F50",
"4  c #A25C43",
"5  c #A15F48",
"6  c #96614E",
"7  c #9D624D",
"8  c #956353",
"9  c #9A6553",
"0  c #9B6956",
"q  c #9B6D5B",
"w  c #9E705D",
"e  c #A5634B",
"r  c #AA654B",
"t  c #AD684E",
"y  c #B0674A",
"u  c #B46C4F",
"i  c #B86E4F",
"p  c #BD704C",
"a  c #A16651",
"s  c #A56B54",
"d  c #AB6D53",
"f  c #A36F59",
"g  c #B56E50",
"h  c #B86F50",
"j  c #AE7156",
"k  c #A6725C",
"l  c #AB745C",
"z  c #AE785F",
"x  c #B47355",
"c  c #BA7252",
"v  c #BD7856",
"b  c #B2765A",
"n  c #BA7758",
"m  c #B4785B",
"M  c #BD7C5B",
"N  c #A37662",
"B  c #A77962",
"V  c #AC7D65",
"C  c #B37C61",
"Z  c #B97F61",
"A  c #C17652",
"S  c #C17B57",
"D  c #C27E5B",
"F  c #AF8166",
"G  c #AE826A",
"H  c #B48265",
"J  c #BD8364",
"K  c #B38469",
"L  c #B9876A",
"P  c #B58A6E",
"I  c #BC8B6C",
"U  c #B58B70",
"Y  c #BB8E71",
"T  c #B59077",
"R  c #BD9174",
"E  c #BE9679",
"W  c #BF997C",
"Q  c #C3815E",
"!  c #CA855E",
"~  c #CA885F",
"^  c #C38563",
"/  c #C58966",
"(  c #CB8B65",
")  c #C68C6A",
"_  c #C88E6B",
"`  c #D08E63",
"'  c #C5906F",
"]  c #CA916E",
"[  c #D29165",
"{  c #C59473",
"}  c #CA9572",
"|  c #CD9A76",
" . c #C29778",
".. c #C49A7B",
"X. c #CD9C79",
"o. c #D49C73",
"O. c #DC9F71",
"+. c #D09E79",
"@. c #CCA17E",
"#. c #D9A377",
"$. c #D2A27D",
"%. c #DAA97F",
"&. c #C19E80",
"*. c #C3A283",
"=. c #C9A281",
"-. c #D3A681",
";. c #D6AA85",
":. c #D9AE87",
">. c #D7AE88",
",. c #D8AF88",
"<. c #D2B18E",
"1. c #DAB38C",
"2. c #D1B391",
"3. c #DDBC95",
"4. c #DDBF98",
"5. c #E5B98A",
"6. c #E0BE97",
"7. c #DCC09A",
"8. c #E2C39A",
"9. c #E7CEA4",
"0. c #E8CFA6",
"q. c #EBD5AA",
"w. c None",
/* pixels */
"w.h h h h h h i h h h h h h h h h h h h h h h h h h h h h h h h h h h h h h g h h h g h h h h h h h ",
"h h h h h h c c h c h g c h h h g h h h h h h h h g h h h h h h h h h h h h g g h h h h h h h u h h ",
"h h h h h h c ~ g ^ n & D h h u y h h h h h h h c g g h h h h h h h h h h S a < h h h h h h g 5 h h ",
"h h h h h h h u r h x % u h h h h h h h h h h h h t g h h h h h h h h h h n e 2 h h h h h h h g h h ",
"h h h h h h h i h < 2 % h h h h g h h h h h h h h g h h h h h h h h h h h h : < h h h h h h h h h h ",
"h h S S e r u h g = r % u h h h < g h h h h h h h y g h h h h h h h h h h 5 = r h h h h h h h h h h ",
"h h c c u u : e u 2 = % u h h r < u h h h h h h g > y h h h h h h h h h h 5 : g h g 5 h h h h h r g ",
"h h h h i h u u h h t & 5 h h 5 g g h h h h h h M g h g h h h h h h h S h 5 < < h g 5 h h h h h 5 h ",
"r u t r r r g u u h r X r h h < u h h g r u g g g r t h h g h h g g h h h 5 & > u h t g h h u d y h ",
"; 9 8 ; % * 8 8 8 s = & s 5 a 8 9 a f 2 - 0 s s 3 ; 3 s s s < , f s s s f 8 3 , , a 8 s 9 s 8 s 2 2 ",
") { } ) k Z '  .) _ A A ' S / ' C l ) D D { { ) } ) { ' ) } A 9 ) ) { ) } ] ) ) ` } ' H s ) } ' l C ",
"M X.1.d U | +.1.) 1.} +.>.) 6.} L C _ 3._ ;.>.) 3.) ;.;._ 6./ V -.' 3.) ,.=.} 6.+.5.+.) V ^ 1.| | 3.",
"V V G 3 9 L V V V V V V V V V V k q L V K G V V G V G V V G V 8 L V { ' K V V V V V V V 0 N V V V V ",
"g ) | x b x ) n ) Z J g Z ) y n n : L / S ' ' ) ) g ' } } } Z Z -.=.) h g ) ;.Z h u J g < x h J g / ",
"x } ;.M h +.q.4.,.n D / 9.9._ h g < X._ h ^ 4.3./ n } ,.1.+.^ Z 4.6.) n -.9.q.8.| M 1.J V ,.] 1.M ' ",
"x _ ;.D g >.| ,./ h ^ 6.0.9.9.' h < / X.n D 3.3.^ M | 1.0.| / ^ 6.,.h D ,.=.,.-.-.n +.2.U :.8.-.c M ",
"c } -.n e ) c ) c n ;.4.>.-.8.1.Z < ) ' h } / ^ } h / -.1.' n n ) X.n c ) c ) x ) u i M f ^ ^ x M ) ",
"k k z s , k k k k k k k C o.#.} l 3 a B f N f B B f f B B l l f l k s s s k k k l k f q 1 s 9 k k k ",
") | 3.' k 3.$.| 3.@.| 3.@.+.8.-.| &.C X.3.X.+.6.| X.3.X.X.3.X.B *.| } 1.} @.4.| =.3.| { G { { 3.| X.",
") ) { J 7 ) ' ' } _ ' ) J ) } ) ) 9 / ) } J g ^ ) ) } ) _ } Z C { ] ) } ) ) } ) _ } ) J 1 ) ) } ) ) ",
"G K H F 9 8 V H q q K V q H H K V f V K K B 2 d V H K V V K B s q q V H K K K H H H K F 6 0 N K K K ",
"S S D ` D g c ~ , 7 ! S h c S S h S S S S D D h n D D S D D S t : > D c S S S c v S S S [ a d S D S ",
"i v S c h c i v 7 < i i h h h h h h h h h h h h h h g h h h h g e : t h h c c h h h h h c 2 5 h i i ",
"c c c p h i c u 4 5 c i h h h h h h h h h h h h h h h h h h h g & : y c c c A h h h h h g = u h h h ",
"u c i h i i c u 4 < h h h h h h h h h h h h h h h h h h h h h u & = y h h h h h h h h c r O t h h c ",
"2 u y : e c h i < < h h h h h h h h h h h h h h h h h h h h h g & O y h h h h h h h h y : X r r e e ",
"i c c m x u i c , < S h h h h h h h A ( n h h h h h h h h h h u 5 < D c h h h h h h u d n : < g r e ",
"i i i c u u t 7 & > h t g h h h h h h c h h h h h h h h h h h u : < ! c h h h h i e a c h 2 2 c i i ",
"h c c c c c v 7 > t n e y h h h h h h h t h h h d v c c h c h c : = h x h t x n c t 5 h x r t h h i ",
"e e e e e e e < 4 2 x 1 : a r 5 t 1 2 5 , r r e e r d b r e e d * o 5 e < % & d r 1 2 e 2 % , r 1 & ",
"R R k K R v u I { Y { Y Y { V 1 Y Y Y 9 1 Y Y J I Y ' Y Y { Y 1 Z R I S L Y Y Y Y ' ' N H Y Y ' Y Y ",
"c ^ f x %.( ( $.M -.^ } +.M &.n } +.D -.D } [ D ;.D | o./ ;.D +.H b ;.^ o.} ^ ;.D $._ a ..D $._ / ;.",
"R U q U &.&.E &.R &.R &.&.R *.&.W &.R *. .I I R *.R E  .E *.R W 8 8 *.R &.W E *.R &...N T R &.W E *.",
"r x b d r r r r j P C t 5 u g x L x e b / b r Z j x j e r r j H d e e x m x d Z d e r 5 1 t r r r r ",
"h } } ^ ^ _ h ) >.>.,.+.c c ^ 1.q.8.) S / / i } _ +.+.c c ) 1.:.1./ c M ,.1.1.;.c D h u l _ x c v c ",
"h D } M ^ D h n _ ^ ' S h D X.| 1.| | ) M M i X.X.) ) i Q 1.1.3.1.1.n h } 3.3.^ x n D f H -.' c n c ",
"h ^ ) +./ +.S +.D ) D =.D S D | +.] Q D ) ( i | / +.| i } ) M 1.c } _ v | ,.;.] h D | B ) +.-.' c c ",
"e s l b j B s C k e r C f b b e a e e e s k e l s d ^ g l e j ' b ^ Z ` O.] x s s s C b s l B b s e ",
"{  .<.&. .<.&. .2.&. .2.&.&.V &...2...' <.....2.....8.@...2.....3.-.=.5.%.:.<. .&.1. .V N ..&.1. ...",
"^ / | ) / | ( / +._ ( +.( / a D / +._ / +._ / | / / +./ ) +./ / o./ / +./ / +./ / +.) D a / ) | ) ^ ",
"Y Y Y U U f K U Y P G Y Y V ; P P P G P P G Y P P Y P H Y I L H J J P P Y I U K P P U K - V U U Y Y ",
"M M S S 9 n D M M g % x n n M g M , * e e 7 M e j Q t M M M M M v M M d x ^ b > g d M n , = M 7 x M ",
"h h h h r u h h h h t i h h h h v j 2 t p h p c c p c h h h h h h h h h h c c c t g h h > r g 1 h h ",
"h h h h u h h h h h i t h h h h p u + e h h h h h x h h h h h c h h h h c c b h h h h h 2 y r t h h ",
"h h h h 2 u h h h h h g h h h h p j X r h h h h h h h h h h h u h h h h h h h h h h h g b u h h h h ",
"h h h c < u h h h h h h h h h h h r O e p u e g h h h h h h h g h h h h h h h h h h u < r c h h h h ",
"h h h h r g h h h h h h h h h h c x @ e t r t g h h h h h h u i h h h h h h h h h h t < < h h h h h ",
"h h h h h h h h h h h h h h h h p v 4 @ d h Q c h h h h h r < i h h h h h h h h h t 5 u < t h h h h ",
"h h h h h h h u u h g y h h h h g e $ 5 c h h u h h h h t > i u e h h Q v i h h y r u h 1 r c h h h ",
"h h h h h 2 u > O g = % g h h h =     & h h h & e h h h r   : u y h h c p h h y 7 u p u + t p i h h "
};
