/* XPM */
static char *exit3[] = {
/* columns rows colors chars-per-pixel */
"32 32 94 2 ",
"   c #14110F",
".  c #151210",
"X  c #191614",
"o  c #1A1917",
"O  c #1B1D19",
"+  c #211E1C",
"@  c #1E221D",
"#  c #24221F",
"$  c #28221F",
"%  c #232522",
"&  c #2B2522",
"*  c #252A24",
"=  c #2B2B26",
"-  c #22272C",
";  c #2C2D29",
":  c #302A27",
">  c #322C2A",
",  c #283027",
"<  c #2D322B",
"1  c #31342E",
"2  c #39312D",
"3  c #31392F",
"4  c #232C35",
"5  c #26313B",
"6  c #313431",
"7  c #353A34",
"8  c #393C36",
"9  c #3C3C3B",
"0  c #384437",
"q  c #3C443A",
"w  c #3F4C3D",
"e  c #40403F",
"r  c #253544",
"t  c #263847",
"y  c #273A4B",
"u  c #283D4E",
"i  c #293F52",
"p  c #294054",
"a  c #2B445B",
"s  c #2D485E",
"d  c #2C4760",
"f  c #2E4B65",
"g  c #2F4E69",
"h  c #304F6A",
"j  c #2F506C",
"k  c #31516D",
"l  c #325572",
"z  c #345875",
"x  c #345B7B",
"c  c #385D7A",
"v  c #444644",
"b  c #454A44",
"n  c #484847",
"m  c #4C4D4C",
"M  c #435140",
"N  c #4F504E",
"B  c #535453",
"V  c #575957",
"C  c #5C5C5B",
"Z  c #5E605E",
"A  c #60605F",
"S  c #646564",
"D  c #676867",
"F  c #6C6C6B",
"G  c #737473",
"H  c #7A7A7A",
"J  c #355F81",
"K  c #376184",
"L  c #396385",
"P  c #376489",
"I  c #39668A",
"U  c #3B688D",
"Y  c #3B6C93",
"T  c #3B6F98",
"R  c #3F7096",
"E  c #3D729C",
"W  c #3E75A0",
"Q  c #3F79A5",
"!  c #417195",
"~  c #41759C",
"^  c #4277A0",
"/  c #447AA4",
"(  c #487FA7",
")  c #457EA9",
"_  c #4681AD",
"`  c #4883AE",
"'  c #4684B1",
"]  c #4986B2",
"[  c #4B88B5",
"{  c #838383",
"}  c #8B8B8B",
"|  c #939393",
" . c #9B9B9B",
".. c None",
/* pixels */
"..................d J ) ' ] [ ! ( ] ] ] ) J d ..................",
"................z J W ) ^ E I J x I ~ ^ ) ~ I l ................",
"............k Y / ) Y J J x z z k z x J J ! ] ) Y g ............",
"..........g Y ' ) Y x l z l f i i f l l k J Y ) ' Y g ..........",
"........l Y ' E L z d i y 4 - + # - 4 u i d z J ^ ' Y k ........",
"........U ' ~ K h u & & & & > > > : & & % - i j K ^ ) I ........",
"......k ! ~ J g 5 & 2 2 > = & % & & & > 2 > $ r g K E U k ......",
"....K E L J l 4 : : + + X . . .     X X $ & : > 5 z J L W J ....",
"....Y ' U g 5 = > ; 9 O . . . . . . . X < 9 % > & r k Y ] Y ....",
"..k R ) J i % > = C C O O o . . . . o @ ; S m % > % a J ( / k ..",
"~ z I ^ z 5 $ & 7 C 8 # @ O . . . . O @ o v D ; % + r x ( ~ x ^ ",
"! ~ L ^ x r > = 7 % @ % * @ . . . . O @ o % 9 6 $ > t x ( U ^ Y ",
"x L x U l r : = @ 7 n % @ @ . . . . o @ @ 7 o < & : t l U x L x ",
"g c P K J r : ; * m C % O O . . . . O @ < n * 0 ; = r l x K P x ",
"f l k h h r # 3 , ; v V @ . . . . .   @ F ; O 7 = # t f g k l ..",
"..f z l h 5 + = * % v  .D 9 O . . . , S H v m q = # t g z x g ..",
"..l U L k r & = : D A  .{ V ;   . . 9 { H G Z e , $ 5 k P E z ..",
"..z T ^ c r : 3 : B } ! F B +   . . 9 H } H * 3 , : p z U _ c ..",
"..l W ) z r : 0 e + F } A B #   . X 9 G | A O , : : 0 l E Q z ..",
"..k T T k r & 8 Z : S  .{ A >     o V |  .e , 0 * & 5 l E E l ..",
"..k Y Y k r = 3 e e A A F D 6     o A F S v , e & = r l E E l ..",
"..k E E l r & 1 0 V F O O m >     O 7   v G 2 e * & y l T E l ..",
"..k W ^ z t > = = B { A 9 m ;     o n m  .{ 2 e ; > y x E W j ..",
"..k E ~ l 3 : 3 * 7 A F V m o   . . 9 F ! V & e ; = y l Y E l ..",
"..l Y J k r : 1 , @ , B B q #   . . q S B @ * 7 = > t k L T l ..",
"..h K l g t : ; * * # < Z V >   . o B F , @ * < = = t k z J h ..",
"..k c x z p & * # , * p C C 1   . o C D @ , , 0 = & a c x c z f ",
"..Y ] ] ` h $ < * * $ @ m C >   . X N b @ * * 0 = + k ` ` ` ^ l ",
"~ K K P L p $ = @ * * @ B V O   .   6 v # , # < & # i L K K J x ",
"` ` ` ] ] k : 1 * @ @ @ % 8 X . . . + n @ @ @ 0 ; : z ] ] ] ] ` ",
"c Y W W R s : 3 * < * % o O . . . . X O * , @ q ; > s T W T Y L ",
"x I U P c y & > < 3 % @ O O X . . . . @ @ < 0 M = & i x P U L J "
};
