/* XPM */
static char *exit6[] = {
/* columns rows colors chars-per-pixel */
"32 32 74 1 ",
"  c #14110F",
". c #151210",
"X c #191615",
"o c #171915",
"O c #1A1917",
"+ c #1D1C1A",
"@ c #201F1D",
"# c #1E221D",
"$ c #24211E",
"% c #28221F",
"& c #252523",
"* c #2A2522",
"= c #242823",
"- c #2E2825",
"; c #22272C",
": c #2C2D2A",
"> c #302A27",
", c #332C29",
"< c #2E312C",
"1 c #32332E",
"2 c #39312D",
"3 c #31392F",
"4 c #232C35",
"5 c #26313B",
"6 c #343432",
"7 c #393534",
"8 c #363932",
"9 c #393B36",
"0 c #3C3D3B",
"q c #253544",
"w c #263847",
"e c #273A4B",
"r c #283D4E",
"t c #293F52",
"y c #294054",
"u c #2B445B",
"i c #2D485E",
"p c #2C4760",
"a c #2E4B65",
"s c #2F4E69",
"d c #304F6A",
"f c #2F506C",
"g c #31516D",
"h c #325572",
"j c #345875",
"k c #345B7B",
"l c #385D7A",
"z c #434443",
"x c #474847",
"c c #4B4B4B",
"v c #355F81",
"b c #376184",
"n c #396385",
"m c #376489",
"M c #39668A",
"N c #3B688D",
"B c #3B6C93",
"V c #3B6F98",
"C c #3F7096",
"Z c #3D729C",
"A c #3E75A0",
"S c #3F79A5",
"D c #417195",
"F c #41759C",
"G c #4277A0",
"H c #447AA4",
"J c #487FA7",
"K c #457EA9",
"L c #4681AD",
"P c #4883AE",
"I c #4684B1",
"U c #4986B2",
"Y c #4B88B5",
"T c None",
/* pixels */
"TTTTTTTTTpvKIIYDJUUUKvpTTTTTTTTT",
"TTTTTTTTjvGKGZNvjMVGKDMhTTTTTTTT",
"TTTTTTgBHKNmvkjjdjvvvDUKBsTTTTTT",
"TTTTTsBIJBkgjhattdhjfvDKIBsTTTTT",
"TTTThBIZnjite4;@$;4rtpkvGIBgTTTT",
"TTTTNIFbgr&&&*>,,>*&&;tgvGKMTTTT",
"TTTgDFvs5*,2,-&*&*-,2>*5gbFMgTTT",
"TTbZnvh4>>*@XX    XX%*>>5hvmAvTT",
"TTBINd5-,O   .....    O,*qdBYBTT",
"TgCKkt&,O .......    X.O,&uvKSfT",
"FjMGjq@*O . ......    .X&&qkJZkG",
"DFnGkq,*@X........X . .#,,wkJMFD",
"knkNhq>@+O............#61,whNknk",
"slmbvq,Oo+..........  +81>qgknmk",
"ahgddq$@<..........   &z<&wssghT",
"Tajhd5$*z&.......... X9x<%wsjksT",
"TgMmhq&2c-X......... O6z>-wfmZjT",
"TjVHkq>7x*X... ..... O:q2,ejNLlT",
"TjAHjq>70-X..........@6x1>whZGjT",
"TgVVdq*17*X . ..... .@6c0-qhZZhT",
"TgVBhq*26*X.... .... X&00:whVZgT",
"TgZZhq*2:X... ... .....:9*ehVAhT",
"TgGGjw,::...... .... O,16,ejVAgT",
"TdZZhq-:0+.........  O0x8,whVAhT",
"ThBvsq>,x@  ..........<<8,wgbCfT",
"Tdbjsw,&y+  ..........#$3,wgjbsT",
"Thlkjy-$<+............<61-ylklja",
"TBUPPg$$#+.... .......==1%hPPPHh",
"Flbmny%$##.......... .$=1%ybbbll",
"YPPYUg>$#o..........  o#1>jIUUII",
"bNAZCi>$#+..........  o<3>iZZZBm",
"kMNmkr%%=+..........  o39-tlmNmk"
};
