/* XPM */
static char *exit4[] = {
/* columns rows colors chars-per-pixel */
"32 32 79 1 ",
"  c #14110F",
". c #151210",
"X c #191614",
"o c #161914",
"O c #1A1916",
"+ c #1C1C19",
"@ c #201F1D",
"# c #1E221D",
"$ c #24211F",
"% c #28221F",
"& c #252423",
"* c #2B2523",
"= c #252924",
"- c #2C2926",
"; c #22262B",
": c #21282F",
"> c #2B2C2A",
", c #312A26",
"< c #332C29",
"1 c #2D322B",
"2 c #32342E",
"3 c #39312D",
"4 c #232D35",
"5 c #25323D",
"6 c #333432",
"7 c #393734",
"8 c #353B34",
"9 c #3C3C3B",
"0 c #3D413D",
"q c #40403F",
"w c #404C3F",
"e c #263441",
"r c #273845",
"t c #273A4A",
"y c #283C4D",
"u c #293E52",
"i c #2A4155",
"p c #2B455B",
"a c #2E4B64",
"s c #2F4E69",
"d c #324E64",
"f c #304F6A",
"g c #2F506C",
"h c #30516D",
"j c #325573",
"k c #335876",
"l c #345B7B",
"z c #385E7A",
"x c #434442",
"c c #484B47",
"v c #4B4C4B",
"b c #4B514A",
"n c #535353",
"m c #5A5A5A",
"M c #355F81",
"N c #376285",
"B c #396385",
"V c #376489",
"C c #39668B",
"Z c #3B698D",
"A c #3B6C93",
"S c #3B6F98",
"D c #3F7197",
"F c #3D729B",
"G c #3E76A1",
"H c #3F78A4",
"J c #417196",
"K c #41749B",
"L c #44789F",
"P c #4277A0",
"I c #4379A3",
"U c #487DA3",
"Y c #457FA9",
"T c #4681AD",
"R c #4882AD",
"E c #4784B2",
"W c #4986B2",
"Q c #4B88B5",
"! c None",
/* pixels */
"!!!!!!!!!aMYEEQJYWWWIla!!!!!!!!!",
"!!!!!!!!kMKYPFZllCKPYKCj!!!!!!!!",
"!!!!!!jAYYAMMljkfklMMJWIZs!!!!!!",
"!!!!!gSTYZljkjauufjjhMAYECs!!!!!",
"!!!!jSTFBkput4;@$:4uualCPEA!!!!!",
"!!!!ATKNfy**&*,<<,**%;ujNPYB!!!!",
"!!!hJJMs4*33<,&****<3,*egNFCs!!!",
"!!NFBNh4,**@X.    XX$*,-5kMCGM!!",
"!!SEZh5-<O   .........+<*ejAWA!!",
"!jKIly$<9$ .... ......*3<&pMYPs!",
"KjCLk5%*c>O ...... ..Xiq*$tlYFlU",
"JJBLz5<*7=+.......  X$=6->tMUCLA",
"lBlZh5,+1=+........ o#6=*,tjZlBk",
"fMVNN5,@==o..........=b81-thlCVl",
"ahhff4&+o&o......... =$>>$tsfhj!",
"!skjf5%&v6;O........O00>2$tskls!",
"!jZBh5%@vx>@........&xn01*tjBF!!",
"!kSIz5<@6v>@........=nv1><ykZY!!",
"!kPIk5,7vv>@... ...O>nx$1-tjGI!!",
"!hSFh5*9xv<$.......+9mx8>*tkFF!!",
"!hSAh5,&6v>@.......@,qxc>-tjSS!!",
"!hFFj5,.;6O+. . ...OO,nb>*yjSG!!",
"!hPPk5<X<r;$.......X*qmw2>ukSF!!",
"!hFFj5<@7n6*... ...O2bv22,ykSG!!",
"!jSls5<O=06& ......O=0==>,thBF!!",
"!hNkge<O##>+ .. ....>1=1*,thkNs!",
"!hlkky*O#o:+  .....o18=1>-plllka",
"!JWWRd%O#o$.........6##2>$kRRRIh",
"KMNNBy%O#o+........ &##=&$iNNNlz",
"WWRWWd<O#+o......... ##=><zWWWWW",
"zAGGKi<O##X .. . .. o#112<sFFSAB",
"lCZBzr*@1@o ........ #1w2*ilVZNM"
};
