/* XPM */
static char *exit2[] = {
/* columns rows colors chars-per-pixel */
"32 32 95 2 ",
"   c #0E120D",
".  c #12120F",
"X  c #151412",
"o  c #171A16",
"O  c #1A1A16",
"+  c #1B1D1A",
"@  c #1E221D",
"#  c #23231F",
"$  c #242522",
"%  c #2B2523",
"&  c #252A24",
"*  c #2A2B26",
"=  c #21272E",
"-  c #2C2D29",
";  c #302A27",
":  c #332C29",
">  c #2D332B",
",  c #30372D",
"<  c #38312D",
"1  c #31392E",
"2  c #222B34",
"3  c #252F39",
"4  c #26323C",
"5  c #323432",
"6  c #343B33",
"7  c #3C3D3A",
"8  c #374135",
"9  c #394437",
"0  c #3C453B",
"q  c #3C483A",
"w  c #253644",
"e  c #263847",
"r  c #273A4B",
"t  c #283D4E",
"y  c #293E51",
"u  c #294155",
"i  c #2C475E",
"p  c #2C4760",
"a  c #2E4B65",
"s  c #2F4E69",
"d  c #304F6B",
"f  c #2F506C",
"g  c #31526E",
"h  c #325572",
"j  c #345876",
"k  c #345B7C",
"l  c #395F7D",
"z  c #38607F",
"x  c #454644",
"c  c #464846",
"v  c #4C4D4B",
"b  c #504F4E",
"n  c #465244",
"m  c #4F514E",
"M  c #4E5A4D",
"N  c #525351",
"B  c #5B5C5B",
"V  c #576255",
"C  c #60635F",
"Z  c #636362",
"A  c #6B6C6B",
"S  c #6F706F",
"D  c #747474",
"F  c #7A7B7A",
"G  c #355F81",
"H  c #376184",
"J  c #396486",
"K  c #376489",
"L  c #38668B",
"P  c #3C698D",
"I  c #3B6C93",
"U  c #3B6F99",
"Y  c #3D729C",
"T  c #3D75A1",
"R  c #3F79A6",
"E  c #437397",
"W  c #41759D",
"Q  c #45789D",
"!  c #447BA5",
"~  c #427CA8",
"^  c #4681AD",
"/  c #4983AE",
"(  c #4684B2",
")  c #4986B2",
"_  c #4B88B5",
"`  c #838483",
"'  c #8C8C8C",
"]  c #90908F",
"[  c #939393",
"{  c #9E9E9E",
"}  c #A4A4A4",
"|  c #ACACAD",
" . c #B3B3B3",
".. c #C3C3C3",
"X. c None",
/* pixels */
"X.X.X.X.X.X.X.X.X.p k ~ ( ) _ W ! / ) ) ~ k p X.X.X.X.X.X.X.X.X.",
"X.X.X.X.X.X.X.X.j G W ^ W Y P k j L W Q ~ E P j X.X.X.X.X.X.X.X.",
"X.X.X.X.X.X.g I ! ~ P J J k j j d j j H J E ) ~ I s X.X.X.X.X.X.",
"X.X.X.X.X.s I ^ / I k g h g a u y a h j g k I ~ ^ I s X.X.X.X.X.",
"X.X.X.X.g I ^ Y J j i y r 2 = # # = 2 r y p j J ! ~ I g X.X.X.X.",
"X.X.X.X.L ( W H g y = $ % % ; : : ; % % % = y h G ! ~ L X.X.X.X.",
"X.X.X.g I W H g 4 % : < : ; % # % % % : < : % 3 d H Y P h X.X.X.",
"X.X.H W J G h 3 ; ; % ; % $ O . . . O - ; % % : 3 h G J T G X.X.",
"X.X.I ( I g 4 % : + 5 N > @ o o X X + 7 m % + : % 4 h I ) I X.X.",
"X.f U ! H y $ : # 6 A c o @ @ o . o + = Z Z 6 @ : $ y G ! ! h X.",
"Q j J ! j e # % - N N % @ & @ O X o $ + 6 A N * % # w j ! Y j ! ",
"I Q z Q j e : % 6 7 & + @ & & O X @ @ + + - 0 > $ : w j ! P Q I ",
"j J j P j w ; * > @ b 6 + % # O X $ & & b - @ 6 * : w g P k J k ",
"s G K H G e ; - 6 + N r # @ # O X @ @ o B x @ 0 - % w h j J L G ",
"X.g g d d w # - q @ * B V + X X X . @ c 6 * O 7 * $ w a d h h X.",
"X.a j h d w # % 1 > 5 C } [ F 7 X m ] ` > x 5 q % # w s j j s X.",
"X.s J J h e % * > 5 B Z [ ....b + F  .' Z ] , q * # e f J Y j X.",
"X.h U ! k e ; : 0 + A ' ' { | v + F [ ' ] c + 1 : : e j L ^ z X.",
"X.h Y ~ j w ; , M - 7 ` ] ' ' c + D ' ] A O : q * : w h Y ! j X.",
"X.s I Y h w % * V c < ` } | { v + `  .} B @ c c % % w h Y Y h X.",
"X.d I U h w % - n 7 v C C S { b + ` ` Z C ; q 8 % - w h I T h X.",
"X.s Y Y h e % - 0 * C A +   b b + b X < ` x ; < * % w h I T h X.",
"X.d Y ! j r : * > @ B ] Z v D N + Z b ` ' c # 9 - - r j I T h X.",
"X.d Y W h e ; > 8 = v S F F { N + D F Q Z : # 9 - ; w j I T h X.",
"X.g I H f e % > 9 & & 8 M D A 6 . B D c & @ & > - : e d G U h X.",
"X.s H j g e ; * > & & o # S S 7 X Z S $ @ & @ > * ; e d j J d X.",
"X.h k j j u % $ & @ , @ q S D m + Z S n > > @ 1 * % u k j k j a ",
"X.P ) / / g # % 8 @ & & # m D m O Z n & & & @ 8 * # g / ) / ! j ",
"Q G H J J u # # , @ & & # v F v O Z b @ & & @ > % # y G G G G l ",
"/ ) / ) _ j ; < 8 o @ @ # c u 7 X 5 c $ @ @ @ > : : g ) _ ) ) / ",
"G P T T Y i ; , 8 @ & & # # > 1 o $ @ $ , & O 9 > : i U ! Y I H ",
"k L P J k t % % , 8 , @ # O > 1 X $ @ @ - q 1 0 - % t k G L J k "
};
