/* XPM */
static char *exit5[] = {
/* columns rows colors chars-per-pixel */
"32 32 79 1 ",
"  c #14110F",
". c #151210",
"X c #191614",
"o c #191916",
"O c #1C1D1A",
"+ c #201D1B",
"@ c #1E211D",
"# c #22221E",
"$ c #28221E",
"% c #252422",
"& c #2B2523",
"* c #252A24",
"= c #2C2926",
"- c #22272B",
"; c #21282F",
": c #2C2C2A",
"> c #312A26",
", c #332C29",
"< c #2F322C",
"1 c #32332E",
"2 c #39312D",
"3 c #242D35",
"4 c #232F3A",
"5 c #25313D",
"6 c #343533",
"7 c #363933",
"8 c #393C35",
"9 c #3C3C3B",
"0 c #354034",
"q c #3F403E",
"w c #273542",
"e c #273A4C",
"r c #283C4E",
"t c #283E52",
"y c #2A4155",
"u c #2B465C",
"i c #2C485F",
"p c #304A5E",
"a c #2E4B65",
"s c #2F4E69",
"d c #324D61",
"f c #304F6B",
"g c #31516E",
"h c #325573",
"j c #335877",
"k c #345B7B",
"l c #385D7A",
"z c #39617E",
"x c #444543",
"c c #464846",
"v c #4C4C4C",
"b c #525352",
"n c #5A5A5A",
"m c #646564",
"M c #355E80",
"N c #376184",
"B c #396385",
"V c #37658A",
"C c #39668A",
"Z c #3B688C",
"A c #3B6C93",
"S c #3B6F98",
"D c #3F7096",
"F c #3C729C",
"G c #3E76A1",
"H c #3F79A5",
"J c #417095",
"K c #41749B",
"L c #44789F",
"P c #4177A0",
"I c #4379A2",
"U c #497FA6",
"Y c #457EA9",
"T c #4581AE",
"R c #4882AD",
"E c #4684B1",
"W c #4986B2",
"Q c #4B88B5",
"! c None",
/* pixels */
"!!!!!!!!!aMYEWQJUEWEHj!!!!!!!!!!",
"!!!!!!!!jMPYPFZkkZKIQJZh!!!!!!!!",
"!!!!!!hAYYZMMkjhfjkBMJQIZs!!!!!!",
"!!!!!gSEYZkhhhattfhhgMAYEVs!!!!!",
"!!!!hSEFBjute3-+#;3ttaMVPEZ!!!!!",
"!!!dATFlfe%&%&>,,>&&$-thNPTB!!!!",
"!!!gJJMf3&22>=%&&&=22>%whNFCs!!!",
"!!VFBNf3>>&+X.    .X$$>>whMCGk!!",
"!!SECf3=>X... .... ...O,%whSEZ!!",
"!hKIle&>X..............O,%uBRGs!",
"JhZLj4%%..... .  .. ...%=%ekRSkU",
"KJBLj5,&#o...........Xo*,,eMUCPZ",
"lNkZg5>%9OX...... .. o#@1>ehZkBh",
"gMVNM5==c@.......... o#16=ehkCVl",
"ahsfs4$+x%..... ...   *::%esshg!",
"!sjhs4$X:6o. ... ...X%v<:$efjk!!",
"!hZMg4$#n6%X. ..... .6nx=&egVK!!",
"!kSIjw,:mq%X .. .....:b61>tjAY!!",
"!jIYh5>+9v%X ...... O:v-::ejGG!!",
"!hSAg4=,c9-X ...... O:x66=ejFF!!",
"!gSAf4>9v:-. ..  .  O=:99=ehSS!!",
"!hFSh4&1qoX..........O#x9&tjFF!!",
"!gPKhw,=c:X..........%6x7>tjFF!!",
"!hGJhw=&b6O...... . O:v17=tjSF!!",
"!hSkf5>%99#.........X:c*7>rgNF!!",
"!gNhf5>#*6%...... ...9q@7=egjNa!",
"!hlkje&#@6%..........9q*1=ilklh!",
"!JEERp$+@@#...... ...:@*1%lRRRIg",
"KzNNBe$O@oo ... .. .X#@*1%uMNNll",
"WWRQWp>#@OX  ....... o@@1>BWWWWE",
"lAGFKy>$@@X........  o@#1,sFGFAN",
"jVZNlw=#@@X .... ...Xo@08=ylVVNM"
};
