/* XPM */
static char *exit1[] = {
/* columns rows colors chars-per-pixel */
"32 32 99 2 ",
"   c #0B0F09",
".  c #0D110C",
"X  c #131712",
"o  c #161915",
"O  c #191C17",
"+  c #1B1E1A",
"@  c #1E221D",
"#  c #24221F",
"$  c #232521",
"%  c #2B2522",
"&  c #252A24",
"*  c #2B2A26",
"=  c #22272C",
"-  c #2C2E29",
";  c #302A27",
":  c #322C29",
">  c #293027",
",  c #2D322C",
"<  c #2F382D",
"1  c #30322F",
"2  c #38312D",
"3  c #30392F",
"4  c #232C35",
"5  c #26313B",
"6  c #343633",
"7  c #343C32",
"8  c #3A3D3A",
"9  c #374235",
"0  c #394437",
"q  c #3C443A",
"w  c #3C483A",
"e  c #40453E",
"r  c #253543",
"t  c #263847",
"y  c #273A4A",
"u  c #283D4E",
"i  c #283F53",
"p  c #2A4155",
"a  c #2C465C",
"s  c #2E4B64",
"d  c #2F4E69",
"f  c #304F6A",
"g  c #2F506C",
"h  c #325066",
"j  c #30516D",
"k  c #325573",
"l  c #345876",
"z  c #345B7B",
"x  c #385F7E",
"c  c #434443",
"v  c #454A45",
"b  c #484C47",
"n  c #4A4C4A",
"m  c #455043",
"M  c #4F504E",
"N  c #4D594B",
"B  c #50544F",
"V  c #515251",
"C  c #575856",
"Z  c #5C5D5C",
"A  c #556053",
"S  c #5F625E",
"D  c #636463",
"F  c #6B6B6B",
"G  c #70706F",
"H  c #747473",
"J  c #7A7A7A",
"K  c #355E80",
"L  c #366184",
"P  c #386283",
"I  c #376489",
"U  c #396689",
"Y  c #3B698E",
"T  c #3B6C93",
"R  c #3B6F98",
"E  c #3F7096",
"W  c #3D729B",
"Q  c #3D76A1",
"!  c #3F79A5",
"~  c #42759D",
"^  c #4177A0",
"/  c #447BA5",
"(  c #447EA9",
")  c #4681AD",
"_  c #4983AE",
"`  c #4684B1",
"'  c #4986B2",
"]  c #4B88B5",
"[  c #838483",
"{  c #8C8C8C",
"}  c #949494",
"|  c #9C9C9C",
" . c #A4A4A4",
".. c #AAAAAA",
"X. c #B2B2B2",
"o. c #BBBCBB",
"O. c #C7C7C8",
"+. c #CDCDCD",
"@. c None",
/* pixels */
"@.@.@.@.@.@.@.@.@.s l / ` ' ] ~ / ' ' ` / z s @.@.@.@.@.@.@.@.@.",
"@.@.@.@.@.@.@.@.l K R ` ^ ~ Y K l U ~ ~ / ~ Y k @.@.@.@.@.@.@.@.",
"@.@.@.@.@.@.g Y / ( ~ I K z l l f l z K I ~ ' / T j @.@.@.@.@.@.",
"@.@.@.@.@.d T ` ( Y l f k k d i i s k k j z Y ( ` T d @.@.@.@.@.",
"@.@.@.@.g T ) W L l s i i 4 = $ # = 4 y i s l I ~ ` T k @.@.@.@.",
"@.@.@.@.U ` ^ L k i = $ $ % % : : ; % $ % $ i f K W ) Y @.@.@.@.",
"@.@.@.j T ~ L j 5 % : 2 : ; - - ; * * : 2 : $ 5 d L ~ Y j @.@.@.",
"@.@.K ~ P L k 5 ; ; % * - % > 9 * , : , ; % ; ; 4 k K L Q L @.@.",
"@.@.T ` T j r % : + % n v & O @ O O > e B # + : % 5 f Y ` R @.@.",
"@.d T ( L p $ : # 6 S F > O @ @ O @ O & F D 7 # : $ i K / / k @.",
"~ l P / z t # % - V F 8 @ @ @ $ + $ @ O 2 F C % % # r l / ^ z ~ ",
"~ ~ x / z t : % < 8 * O @ $ & $ @ # # O # # p 1 $ : r l / U ~ ~ ",
"l P z Y l r * * , + * V @ $ & $ @ $ @ @ V - @ 7 * : r f U z P z ",
"s z U L L t ; * 7 @ c Z - O @ & @ @ O , C v + q - % r k z L Y K ",
"@.j j f f r # * w + & 6 H 8 X X X o 3 H 8 % + 7 * $ 5 d f k k s ",
"@.s l l f t # % < 1 c 1 [ ..[ H v J | [ 6 e 6 q * # r f k z f @.",
"@.j I I l t # % 3 1 H C H ..+.+.J O...H D } 1 w * # r j P ~ z @.",
"@.j R / x y : 1 q @ c { { { X.o.G  .{ { { n + 3 1 : r l Y ( P @.",
"@.j W ( l r ; * N 1 O Z } { { } D [ { } F @ 2 e * : 5 k W / l @.",
"@.d T W l t * * A n + C } ....| F  .X.| S # e e & % r j R W l @.",
"@.d R R k t % - m p ; Z Z D [  .F } G Z Z : e 7 $ ; r j T Q k @.",
"@.d R W k t % * 0 & e J n   $ F n - . e [ e > 2 * % r k T Q l @.",
"@.f W / l y : > < # b [ [ V Z [ C D C | } e % e - : t l R Q k @.",
"@.f W ~ l y ; * 9 # : S J H [ } S ~ J [ F 2 # 8 - * t j T Q l @.",
"@.j T K j t ; - 9 & @ & b S J M 6 J S n & @ $ , - : r f K W k @.",
"@.d L l j t * * < $ & @ o v J Z p J M o @ > $ > * : r f l K f @.",
"@.j z z l p % % > $ > > & C G H M G S & > > # < * % i x z z z d ",
"@.Y ' ' ) l # % < @ $ & $ > F G M F , $ & & @ 9 - $ f _ _ _ / l ",
"~ L L L P p # % , @ @ > & $ F H M G * # & # @ > * # u K K L K x ",
"_ _ _ ' ] l ; - 9 @ @ @ @ , v v 2 e 3 # @ @ @ < : : j ' ' ' ' ' ",
"P Y Q Q W s : , 0 @ < > & @ @ 9 > @ # # < & O 9 , : a R Q R T K ",
"z I Y I z u % * < < 9 $ $ @ @ 0 < @ @ # > w 3 q - % y z L Y U z "
};
