/* XPM */
static char *_710d35ebf1e4f05a251c0e10348e86dpgEPTGLVvcopAH1E[] = {
/* columns rows colors chars-per-pixel */
"16 16 3 1 ",
"  c #222222",
". c #483B3A",
"X c #775C55",
/* pixels */
"   .    ... .   ",
" ..............X",
"...............X",
"...............X",
" ..............X",
"...............X",
" ...............",
" ......XXX.....X",
" .....    X....X",
".......    .... ",
"........   .XX. ",
" ....XX...XX    ",
" ....  X..      ",
" .....  ..      ",
" ............   ",
"XXX..X.XXXX.X   "
};
