/* XPM */
static char *ghoul_right4[] = {
/* columns rows colors chars-per-pixel */
"32 32 10 1 ",
"  c #2F2F2E",
". c #741A33",
"X c #624023",
"o c #784F2C",
"O c #64636D",
"+ c #9E293B",
"@ c #807F89",
"# c #BAB8D5",
"$ c #F1F0FD",
"% c None",
/* pixels */
"%%%%%%%%%%%%%%%%%%%%%%%%%%%%%%%%",
"%%%%%%%%%%%%%%%%%%%%%%%%%%%%%%%%",
"%%%%%%%%%%%%%%%%%%%%%%%%%%%%%%%%",
"%%%%%%%%%%%%%%%%%%%%%%%%%%%%%%%%",
"%%%%%%%%%%%%%%%%     %%%%%%%%%%%",
"%%%%%%%%%%%%%%% @@### %%%%%%%%%%",
"%%%%%%%%%%%    @@##### %%%%%%%%%",
"%%%%%%%%%%% @###@ @#@@ %%%%%%%%%",
"%%%%%%%%%%%% @#@# +@@@ %%%%%%%%%",
"%%%%%%%%%%%    @##@@## %%%%%%%%%",
"%%%%%%%%%% @@@ @###@## %%%%%%%%%",
"%%%%%%%%% @###@ @#$  $  %%%%%%%%",
"%%%%%%%% ###### @# .+@ # %%%%%%%",
"%%%%%%% #######@ @ .+  # %%%%%%%",
"%%%%   ###@@##### @..+ ##   %%%%",
"%%% #####@ @######   + @@###  %%",
"%%  # @@@  O@##@###  +  @@ # @ %",
"%% @     %% OO@@@@@ %   @@@  @ %",
"%% @  # %%% O@##@@# %%%%   @   %",
"%%%  %  %%% O@@@@@ %%%%%%% @ %%%",
"%%%%%%%%%% O@@##@# %%%%%%%%  %%%",
"%%%%%%%%%% XXooooo %%%%%%%%%%%%%",
"%%%%%%%%% @#oXXXX  %%%%%%%%%%%%%",
"%%%%%%%%% @@ XXX @# %%%%%%%%%%%%",
"%%%%%%%% @#  Xoo @@# %%%%%%%%%%%",
"%%%%%%%% @#  XXo  @# %%%%%%%%%%%",
"%%%%%%%%   %%    %   %%%%%%%%%%%",
"%%%%%%%%%%%%%%%%%%%%%%%%%%%%%%%%",
"%%%%%%%%%%%%%%%%%%%%%%%%%%%%%%%%",
"%%%%%%%%%%%%%%%%%%%%%%%%%%%%%%%%",
"%%%%%%%%%%%%%%%%%%%%%%%%%%%%%%%%",
"%%%%%%%%%%%%%%%%%%%%%%%%%%%%%%%%"
};
