/* XPM */
static char *grass[] = {
/* columns rows colors chars-per-pixel */
"50 50 42 1 ",
"  c #72751B",
". c #76781E",
"X c #79791F",
"o c #737623",
"O c #767924",
"+ c #7C7A22",
"@ c #74762B",
"# c #76782D",
"$ c #797B2B",
"% c #757632",
"& c #767834",
"* c #7B7C33",
"= c #76773B",
"- c #77793A",
"; c #787A3C",
": c #767643",
"> c #777843",
", c #797A44",
"< c #77774A",
"1 c #777849",
"2 c #7A7A4C",
"3 c #787751",
"4 c #7B7B54",
"5 c #78775E",
"6 c #7C7B5B",
"7 c #787760",
"8 c #7D7C64",
"9 c #7E7D6B",
"0 c #7D7C71",
"q c #827C24",
"w c #807F73",
"e c #7F8039",
"r c #7F8053",
"t c #7F805B",
"y c #828342",
"u c #808157",
"i c #81815C",
"p c #818163",
"a c #84836C",
"s c #838273",
"d c #878678",
"f c #88877B",
/* pixels */
"                                                  ",
"                                                  ",
"                           oo         .e          ",
"                           o@          . O        ",
"                                   e    .ye    oe ",
"                                                # ",
"                                                  ",
"                                         ..       ",
"                           .o      ee    qq       ",
"                          oye      e.    e.       ",
"                          oy*                     ",
"                                                  ",
"                                                  ",
"          o                                       ",
"                                  e            .e ",
"                                         .        ",
"                          +q            e        o",
"       .                   .    eqe              %",
"                                 e                ",
"                                                  ",
"       .   .                    ee                ",
"                             OO    Xe           e ",
" .                       O$  Oo    e  @e      eee ",
"           .             O$*O          o          ",
"oooooooo@oo@    OOooOo     oo                     ",
"ttt4754tt487%  #aar893                            ",
"ttt70tttt890-  &dfiat8             @              ",
"900507306-57%  O9a4693    .   o o o%  oo  o o oo  ",
"ttt3005982aa#  @80687<  .uai254-tt3tttttr<t33<r7tr",
"ffstttttapdd;  &tt6904   pfa80960ttttt0trttt7tttt<",
"tft6t85t92ta*  @89359<   isp3852t0<tt7733tt7tt%507",
"tt63087tt,88#  @8<#68>.  286286175rtt5tt:7t355<ttt",
"twtttttffttf<  %tw7tw7  ottttttt00ttftft0tt007<<tt",
"0t690t5tttt8%o @t0t0tt   t0050070:<ft3t0:<t3<@ot3:",
"67%=5319t<56@  @07ttt5o  @=@o@@ @ o@@ o   @    @@ ",
"ttt309twf<3t=  %0tttft                            ",
"9tt5074tt3tt%  @005tt@    o                       ",
"5034tr1t3:77@  @70:3=o   =35o     @<:@            ",
"tf0tftt7t27t&  @wwt0tr   ttto     =ftr            ",
"7t9ttf2:t699&  &tt5ttt   <0to     :tt<      o     ",
"=33:t5=63:75@  o07=55=    %%      @=%@:<@      @3=",
"85<ttt2wtrft=  %ttt77r               :twr     otft",
"7t36wtttt5t3o  @t7ttt3o              =t0%     ottt",
"<73:70300<7>o  @53:t0<      @%=o@%   @:@       =<:",
"tf07tttfttft&  @7t7ttt      tttrrte o             ",
"tt5:7ttft60t-  %073tft      <twttt@o              ",
"5t% o=-r>@=3@  o=:<ttt    oo@55<tt@ @o            ",
"tt%      @:1%    o%ttt   %556ttttt@rt%            ",
"tt       o1t:     o<tt   707tttt0wttw=            ",
"-@        :5%       ==   <7<<05%<0<70%            "
};
