/* XPM */
static char *ground_50[] = {
/* columns rows colors chars-per-pixel */
"50 50 166 2 ",
"   c #2D2C2B",
".  c #2E2D2B",
"X  c #2E2D2C",
"o  c #2E2E2C",
"O  c #2F2E2C",
"+  c #302F2D",
"@  c #31302D",
"#  c #32312E",
"$  c #33322F",
"%  c #343330",
"&  c #353430",
"*  c #353431",
"=  c #363430",
"-  c #363431",
";  c #363531",
":  c #373531",
">  c #3A3934",
",  c #3C3A36",
"<  c #3C3B36",
"1  c #3D3B36",
"2  c #3D3B37",
"3  c #3D3C37",
"4  c #3E3C37",
"5  c #3F3D38",
"6  c #423F3A",
"7  c #42403A",
"8  c #43413B",
"9  c #46433B",
"0  c #46443D",
"q  c #48453C",
"w  c #48453E",
"e  c #49463E",
"r  c #494840",
"t  c #4B4840",
"y  c #4D4940",
"u  c #4C4941",
"i  c #4D4B42",
"p  c #4F4C42",
"a  c #4F4C43",
"s  c #4F4D44",
"d  c #504C42",
"f  c #504D44",
"g  c #504D45",
"h  c #504E45",
"j  c #514E45",
"k  c #524E45",
"l  c #524F45",
"z  c #534F45",
"x  c #524F46",
"c  c #534F46",
"v  c #535046",
"b  c #535047",
"n  c #545045",
"m  c #545146",
"M  c #545047",
"N  c #545147",
"B  c #555147",
"V  c #555248",
"C  c #565248",
"Z  c #565348",
"A  c #575349",
"S  c #575449",
"D  c #595448",
"F  c #58554A",
"G  c #59554A",
"H  c #5A554A",
"J  c #59564A",
"K  c #5A564A",
"L  c #5A564B",
"P  c #5B564B",
"I  c #5B574B",
"U  c #59574C",
"Y  c #5B574C",
"T  c #5C574C",
"R  c #5B584C",
"E  c #5B584D",
"W  c #5C584C",
"Q  c #5D584C",
"!  c #5D594D",
"~  c #5E594D",
"^  c #5E5A4D",
"/  c #5D5B4F",
"(  c #5F5A4E",
")  c #5F5B4E",
"_  c #605B4D",
"`  c #605B4E",
"'  c #605C4F",
"]  c #615C4F",
"[  c #615D4F",
"{  c #625D4F",
"}  c #635E50",
"|  c #635F50",
" . c #645E50",
".. c #645F50",
"X. c #645F51",
"o. c #655F51",
"O. c #636053",
"+. c #656051",
"@. c #666051",
"#. c #666052",
"$. c #666152",
"%. c #676152",
"&. c #676253",
"*. c #656255",
"=. c #676354",
"-. c #676456",
";. c #686253",
":. c #696253",
">. c #686353",
",. c #696353",
"<. c #696354",
"1. c #696454",
"2. c #6A6454",
"3. c #6B6555",
"4. c #6C6555",
"5. c #6C6655",
"6. c #6C6656",
"7. c #6D6656",
"8. c #6D6756",
"9. c #6E6756",
"0. c #6E6757",
"q. c #6E6857",
"w. c #6F6857",
"e. c #6F6957",
"r. c #6C695A",
"t. c #6D6B5B",
"y. c #706958",
"u. c #706A58",
"i. c #716A58",
"p. c #716A59",
"a. c #716B59",
"s. c #726B59",
"d. c #736B59",
"f. c #736C59",
"g. c #736C5A",
"h. c #716E5E",
"j. c #716F5E",
"k. c #726F5E",
"l. c #726F5F",
"z. c #72705F",
"x. c #73705F",
"c. c #747160",
"v. c #757361",
"b. c #767362",
"n. c #7A7460",
"m. c #7A7663",
"M. c #797764",
"N. c #7B7764",
"B. c #7C7864",
"V. c #7F7B67",
"C. c #7E7C69",
"Z. c #7F7C69",
"A. c #807C67",
"S. c #817C68",
"D. c #817D68",
"F. c #827D68",
"G. c #817E6A",
"H. c #84826D",
"J. c #85836E",
"K. c #8B8972",
"L. c #8C8A73",
"P. c #8C8B73",
"I. c #8D8B73",
"U. c #8C8B74",
"Y. c #8D8B74",
"T. c #8E8C75",
/* pixels */
"L.I.Y.Y.Y.Y.Y.Y.U.U.U.U.Y.J.3   + w O.L.Y.Y.Y.Y.Y.Y.Y.Y.Y.Y.K.r & s b.T.Y.Y.Y.Y.Y.L.n.:.x M.T.T.U   ",
"P.G.k.z.l.l.k.v.A.S.S.D.m.t.0 2 5 u E j.z.z.z.z.z.z.z.l.l.l.h.i 6 f *.x.l.l.l.l.z.k.=.~ l -.x.x.i . ",
"Y.k.f g j c x K u.s.a.s.{ x v b b v v c j g g g g g g h x c c v b v c c c c c c k g h j j h g h 4 X ",
"Y.z.g f J 3.3.8.a.s.s.s.w.3.4.4.4.4.4.3.J f h h h h g x $.5.4.4.4.4.4.4.5.5.5.5.] g h h j j j k 4 X ",
"Y.l.j J X.s.d.d.s.s.s.s.s.d.d.d.d.d.d.s.| T W W W W W ! 0.f.d.d.d.d.d.i.;.%.;.p.2.W W G j j j k 4 X ",
"Y.l.c 3.s.s.s.s.s.s.s.s.s.s.s.s.s.s.s.s.s.a.a.a.a.a.a.a.s.s.s.s.s.s.d.7.N j N 6.s.a.s.>.l j j k 4 X ",
"T.z.x 3.d.s.s.s.s.s.s.s.s.s.s.s.s.s.s.s.s.s.s.s.s.s.s.s.s.s.s.s.s.s.d.7.b h l F  .s.d.>.j j j k 4 X ",
"Z.t.L 8.d.s.s.s.s.s.s.s.s.s.s.s.s.s.s.s.s.s.s.s.s.s.s.s.s.s.s.s.s.s.s.q.I B j f ! s.d.3.J M j k 4 X ",
"v ' i.s.s.s.s.s.s.s.s.s.s.s.s.s.s.s.s.s.s.s.s.s.s.s.s.s.s.s.s.s.s.s.s.s.p.] h g ~ s.s.a.u.I h k 4 X ",
"> z f.s.s.s.s.s.s.s.s.s.s.s.s.s.s.s.s.s.s.s.s.s.s.s.s.s.s.s.s.s.s.s.s.s.s.4.+.o.2.s.s.s.s.W h k 4 X ",
"< m d.s.s.s.s.s.s.s.s.s.s.s.s.s.s.s.s.s.s.s.s.s.s.s.s.s.s.s.s.s.s.s.s.s.s.d.f.f.d.s.s.s.a.W h k 4 X ",
"H.B.s.s.s.s.s.s.s.s.s.s.s.s.s.s.s.s.s.s.s.s.s.s.s.s.s.s.s.s.s.s.s.s.s.s.s.s.s.s.s.d.d.d.a.Y f k 4 X ",
"Y.D.s.s.s.s.s.s.s.s.s.s.s.s.s.s.s.s.s.s.s.s.s.s.s.s.s.s.s.s.s.s.s.s.s.s.s.s.s.d.4.[ ] $.a.&.^ c 4 X ",
"U.V.w.a.s.s.s.s.s.s.s.s.s.s.s.s.s.s.s.s.s.s.s.s.s.s.s.s.s.s.s.s.s.s.s.s.s.s.s.f.+.h f G q.y.1.v 4 X ",
"Y.c.S 7.d.s.s.s.s.s.s.s.s.s.s.s.s.s.s.s.s.s.s.s.s.s.s.s.s.s.s.s.s.s.s.s.s.s.s.d.+.j j c C Z V l 4 X ",
"Y.k.x 3.d.s.s.s.s.s.s.s.s.s.s.s.s.s.s.s.s.s.s.s.s.s.s.s.s.s.s.s.s.s.s.s.s.s.s.f.+.j j j h h h k 4 X ",
"Y.l.c 4.d.s.s.s.s.s.s.s.s.s.s.s.s.s.s.s.s.s.s.s.s.s.s.s.s.s.s.s.s.s.s.s.s.s.s.d.#.x k j j j j k 4 X ",
"Y.l.c 5.f.s.s.s.s.s.s.s.s.s.s.s.s.s.s.s.s.s.s.s.s.s.s.s.s.s.s.s.s.s.s.s.s.s.s.s.w.<.Z f h h h k 4 X ",
"Y.l.l  .5.s.s.s.s.s.s.s.s.s.s.s.s.s.s.s.s.s.s.s.s.s.s.s.s.s.s.s.s.s.s.s.s.s.s.s.s.a.` L P P F l 4 X ",
"Y.z.h j Q a.s.s.s.s.s.s.s.s.s.s.s.s.s.s.s.s.s.s.s.s.s.s.s.s.s.s.s.s.s.s.s.s.s.s.s.s.a.p.p.a.3.b 4 X ",
"Y.z.g h W s.s.s.s.s.s.s.s.s.s.s.s.s.s.s.s.s.s.s.s.s.s.s.s.s.s.s.s.s.s.s.s.s.s.s.s.d.s.s.s.d.4.b 4 X ",
"Y.z.g h W s.s.s.s.s.s.s.s.s.s.s.s.s.s.s.s.s.s.s.s.s.s.s.s.s.s.s.s.s.s.s.s.s.s.s.e.5.u.s.s.d.4.b 4 X ",
"Y.z.g h W a.s.s.s.s.s.s.s.s.s.s.s.s.s.s.s.s.s.s.s.s.s.s.s.s.s.s.s.s.s.s.s.s.s.d.#.M 3.g.f.f.4.b 4 X ",
"Y.z.g h W a.s.s.s.s.s.s.s.s.s.s.s.s.s.s.s.s.s.s.s.s.s.s.s.s.s.s.s.s.s.s.s.s.s.s.6.} ' H y @.7.M 4 X ",
"Y.z.g h W s.s.s.s.s.s.s.s.s.s.s.s.s.s.s.s.s.s.s.s.s.s.s.s.s.s.s.s.s.s.s.s.s.s.s.s.p.W t : D o.a , o ",
"Y.z.g h W s.s.s.s.s.s.s.s.s.s.s.s.s.s.s.s.s.s.s.s.s.s.s.s.s.s.s.s.s.s.s.s.s.s.s.s.s.w.8.2.q % $ @ O ",
"Y.z.g h W a.s.s.s.s.s.s.s.s.s.s.s.s.s.s.s.s.s.s.s.s.s.s.s.s.s.s.s.s.s.s.s.s.s.s.s.s.d.q...n e 5 - O ",
"Y.z.g h W a.s.s.s.s.s.s.s.s.s.s.s.s.s.s.s.s.s.s.s.s.s.s.s.s.s.s.s.s.s.s.s.s.s.s.s.s.d.<.M >.7.M 4 X ",
"Y.z.g f R s.s.s.s.s.s.s.s.s.s.s.s.s.s.s.s.s.s.s.s.s.s.s.s.s.s.s.s.s.s.s.s.s.d.f.d.s.s.y.4.u.4.b 4 X ",
"Y.l.j J | s.s.s.s.s.s.s.s.s.s.s.s.s.s.s.s.s.s.s.s.s.s.s.s.s.s.s.s.s.s.s.s.6.%.%.3.s.s.s.d.d.4.b 4 X ",
"Y.l.c 3.s.s.s.s.s.s.s.s.s.s.s.s.s.s.s.s.s.s.s.s.s.s.s.s.s.s.s.s.s.s.s.s.s.] j h ^ s.s.s.s.d.4.b 4 X ",
"Y.l.c 4.d.s.s.s.s.s.s.s.s.s.s.s.s.s.s.s.s.s.s.s.s.s.s.s.s.s.s.s.s.s.s.q.Q C j f ! s.s.s.s.d.4.b 4 X ",
"Y.l.c 4.d.s.s.s.s.s.s.s.s.s.s.s.s.s.s.s.s.s.s.s.s.s.s.s.s.s.s.s.s.s.d.7.v h l A } s.s.s.s.d.4.b 4 X ",
"Y.l.c 4.d.s.s.s.s.s.s.s.s.s.s.s.s.s.s.s.s.s.s.s.s.s.s.s.s.s.s.s.s.s.d.7.M h M 4.a.s.s.s.s.d.4.b 4 X ",
"T.z.x 3.d.s.s.s.s.s.s.s.s.s.s.s.s.s.s.s.s.s.s.s.s.s.s.s.s.s.s.s.s.s.s.y.$.+.$.y.s.s.s.s.s.d.4.b 4 X ",
"C.r.S 7.d.s.s.s.s.s.s.s.s.s.s.s.s.s.s.s.s.s.s.s.s.s.s.s.s.s.s.s.s.s.s.s.d.f.d.s.s.s.s.s.s.d.4.b 4 X ",
"* p y.a.s.s.s.s.s.s.s.s.s.s.s.s.s.s.s.s.s.s.s.s.s.s.s.s.s.s.s.s.s.s.s.s.s.s.s.s.s.s.d.d.d.d.4.b 4 X ",
"/ =.d.s.s.s.s.s.s.s.s.s.s.s.s.s.s.s.s.s.s.s.s.s.s.s.s.s.s.s.s.s.s.s.s.s.s.s.s.s.s.p.+.] { 8.5.b 4 X ",
"T.F.a.s.s.s.s.s.s.s.s.s.s.s.s.s.s.s.s.s.s.s.s.s.s.s.s.s.s.s.s.s.s.s.s.s.s.s.s.s.s.u.F f j +.1.v 4 X ",
"U.D.s.s.s.s.s.s.s.s.s.s.s.s.s.s.s.s.s.s.s.s.s.s.s.s.s.s.s.s.s.s.s.s.s.s.s.s.s.s.s.u.G h j B V l 4 X ",
"U.N.@.e.s.s.s.s.s.s.s.s.s.s.s.s.s.s.s.s.s.s.s.s.s.s.s.s.s.s.s.s.s.s.s.s.s.s.s.s.s.u.F h j j h k 4 X ",
"Y.l.c 4.d.s.s.s.s.s.s.s.s.s.s.s.s.s.s.s.s.s.s.s.s.s.s.s.s.a.i.i.i.s.s.s.s.s.s.s.s.i.K k j j j k 4 X ",
"Y.l.c 5.f.s.s.s.s.s.s.s.s.s.d.d.s.s.s.s.s.s.s.s.s.s.s.d.g.2.G F ( a.s.s.s.s.s.s.s.a.6.} k j j k 4 X ",
"Y.l.l  .5.s.s.s.s.s.s.s.s.p.2.5.s.s.s.s.s.s.s.s.s.s.9.>.<.` h f Z ;.q.s.s.s.s.s.s.s.g.,.l j j k 4 X ",
"Y.z.h j Q a.a.s.s.s.s.s.s.w.C ~ s.s.s.s.s.s.s.s.a.s.} k l k j j j k +.d.s.s.s.s.a.a.s.>.l j j k 4 X ",
"Y.z.g j B W T [ a.d.d.d.g.9.7 d d.d.d.d.d.d.f.#.T W A j j j j j j j +.g.d.d.u.) W W W G j j j k 4 X ",
"Y.z.g j j h f A 2.4.4.4.:._ = 9 4.4.4.4.4.4.5.W f h h j j j j j j j ] 5.4.4.<.B f h h h j j j k 4 X ",
"T.x.j k k k k l b b b M 8 # O 1 b b b b b b b x k k k k k k k k k k c b b b v l k k k k k k k l 4 X ",
"U i 4 4 4 4 4 4 4 4 4 4 ; o O & 4 4 4 4 4 4 4 4 4 4 4 4 4 4 4 4 4 4 4 4 4 4 4 4 4 4 4 4 4 4 4 4 - O ",
"  . X X X X X X X X X X O O O O X X X X X X X X X X X X X X X X X X X X X X X X X X X X X X X X O O "
};
