/* XPM */
static char *ground[] = {
/* columns rows colors chars-per-pixel */
"32 32 106 2 ",
"   c #2F2E2C",
".  c #2F2F2C",
"X  c #302F2D",
"o  c #33322F",
"O  c #34322F",
"+  c #343230",
"@  c #353330",
"#  c #353430",
"$  c #363431",
"%  c #373532",
"&  c #393733",
"*  c #3B3A35",
"=  c #3D3B37",
"-  c #413E38",
";  c #403F39",
":  c #434039",
">  c #45433C",
",  c #48453D",
"<  c #49463F",
"1  c #4B4941",
"2  c #4C4A41",
"3  c #4D4A41",
"4  c #4C4A42",
"5  c #4D4A42",
"6  c #4E4B42",
"7  c #504D44",
"8  c #514D44",
"9  c #514E44",
"0  c #504E45",
"q  c #514E45",
"w  c #524E45",
"e  c #524F45",
"r  c #524F46",
"t  c #534F46",
"y  c #535047",
"u  c #535147",
"i  c #545147",
"p  c #555147",
"a  c #555148",
"s  c #555248",
"d  c #565348",
"f  c #575349",
"g  c #575449",
"h  c #585449",
"j  c #595549",
"k  c #58544A",
"l  c #58554A",
"z  c #58554B",
"x  c #58564B",
"c  c #59564B",
"v  c #5A574C",
"b  c #5B584C",
"n  c #5C584D",
"m  c #5C594D",
"M  c #5D594D",
"N  c #5E5A4D",
"B  c #5E5A4E",
"V  c #5F5B4E",
"C  c #5F5C4F",
"Z  c #5F5C50",
"A  c #615C4E",
"S  c #605C4F",
"D  c #625C4E",
"F  c #635E4F",
"G  c #645F50",
"H  c #676152",
"J  c #686253",
"K  c #696354",
"L  c #6A6454",
"P  c #6B6454",
"I  c #6B6555",
"U  c #6C6555",
"Y  c #6C6655",
"T  c #6D6756",
"R  c #6C6757",
"E  c #6E6756",
"W  c #6E6757",
"Q  c #6E6857",
"!  c #6F6857",
"~  c #6F6957",
"^  c #716A58",
"/  c #716B59",
"(  c #726B59",
")  c #736B59",
"_  c #736C5A",
"`  c #726C5B",
"'  c #736C5B",
"]  c #746E5B",
"[  c #746E5C",
"{  c #766F5D",
"}  c #797764",
"|  c #7A7865",
" . c #7B7866",
".. c #7E7B68",
"X. c #7E7C68",
"o. c #7F7C68",
"O. c #827F6A",
"+. c #84816C",
"@. c #84826C",
"#. c #84826D",
"$. c #85826D",
"%. c #85836D",
"&. c #85836E",
"*. c #88856F",
"=. c #898670",
"-. c #8B8972",
/* pixels */
"-.&.#.@.#.*.=.=. .= $ u X.$.#.#.#.#.$.| ; y ..#.@.#.O.R v X.| * ",
"%.Z x n C ` { ' B e 9 s b c z z z c m b t s n M M m x a t l u @ ",
"#.x d P Q ^ ( ^ Q Q Q Q P g i i i g P E Q Q T L L L h i w q 4 O ",
"#.n P ( ( ( ( ( ( ( ( ) ( Q W W W Q ( ) ( ) ! k h I Q P i q 5 O ",
"X.V Q ( ( ( ( ( ( ( ( ( ( ( ( ( ( ( ( ( ( ( Q h q h ~ ~ h w 5 O ",
"g I / ( ( ( ( ( ( ( ( ( ( ( ( ( ( ( ( ( ( ( / I h k Q ( I p 4 O ",
"> U ) ( ( ( ( ( ( ( ( ( ( ( ( ( ( ( ( ( ( ( ( / Q Q ( ) Q a 4 O ",
"o.] ( ( ( ( ( ( ( ( ( ( ( ( ( ( ( ( ( ( ( ( ( ( ( ( Q ! Q k 5 O ",
"=.' ^ ( ( ( ( ( ( ( ( ( ( ( ( ( ( ( ( ( ( ( ( ( ( Q k h P J 7 o ",
"#.C W ( ( ( ( ( ( ( ( ( ( ( ( ( ( ( ( ( ( ( ( ( ( W p q p a 6 O ",
"+.m E ) ( ( ( ( ( ( ( ( ( ( ( ( ( ( ( ( ( ( ( ( ( ! h q 0 q 5 O ",
"@.m P ( ( ( ( ( ( ( ( ( ( ( ( ( ( ( ( ( ( ( ( ( ( / I h p p 5 O ",
"#.c g ! ( ( ( ( ( ( ( ( ( ( ( ( ( ( ( ( ( ( ( ( ( ( ( ! Q I 7 o ",
"#.z i Q ( ( ( ( ( ( ( ( ( ( ( ( ( ( ( ( ( ( ( ( ( / ! ( _ ! 8 o ",
"#.z i Q ( ( ( ( ( ( ( ( ( ( ( ( ( ( ( ( ( ( ( ( ( ! N L U E 9 o ",
"#.z i Q ( ( ( ( ( ( ( ( ( ( ( ( ( ( ( ( ( ( ( ( ( / Y h , A 3 o ",
"#.z i Q ( ( ( ( ( ( ( ( ( ( ( ( ( ( ( ( ( ( ( ( ( ( ( E D : % X ",
"#.z i Q ( ( ( ( ( ( ( ( ( ( ( ( ( ( ( ( ( ( ( ( ( ( ( ~ N G 2 o ",
"#.c g ! ( ( ( ( ( ( ( ( ( ( ( ( ( ( ( ( ( ( ( / Q Q / / ~ Q 9 o ",
"@.m P ( ( ( ( ( ( ( ( ( ( ( ( ( ( ( ( ( ( ( / I h h Q ( ) Q 8 o ",
"@.M E ) ( ( ( ( ( ( ( ( ( ( ( ( ( ( ( ( ( ( Q h q h Q ( ( Q 8 o ",
"#.m E ( ( ( ( ( ( ( ( ( ( ( ( ( ( ( ( ( ( ( Q h h I / ( ( Q 8 o ",
"| B Q ( ( ( ( ( ( ( ( ( ( ( ( ( ( ( ( ( ( ( / Q Q / ( ( ) Q 8 o ",
"1 K ( ( ( ( ( ( ( ( ( ( ( ( ( ( ( ( ( ( ( ( ( ( ( ( / Q ! Q 8 o ",
"X.[ ( ( ( ( ( ( ( ( ( ( ( ( ( ( ( ( ( ( ( ( ( ( ( ( Q k h J 7 o ",
"=.' ^ ( ( ( ( ( ( ( ( ( ( ( ( ( ( ( ( ( ( ( ( ( ( ( W i q i 6 O ",
"#.S Q ( ( ( ( ( ( ( ( ( ( ( ( ( ( ( ( Q Q / ( ( ( ( Q h q q 5 O ",
"@.n P ( ( ( ( ( / ~ / ( ( ( ( ( / ! I h h I / ( ( ( ( I i q 5 O ",
"#.c f I ! ( ) ) Q j W ) ( ) ( ! I h i q q h ! ) ( Q Q P p q 5 O ",
"$.c q p k I ! Q F - H ! Q Q I k p w q q q p P ! I k s p w w 5 + ",
"} u 4 4 5 7 9 6 & O 2 9 8 8 7 5 4 5 5 5 5 5 7 8 7 5 4 4 5 5 < o ",
"* # O + O o o o   . o o o o o O + + O + O O o o o O + + + + o X "
};
