/* XPM */
static char *slime50[] = {
/* columns rows colors chars-per-pixel */
"50 50 208 2 ",
"   c #525C00",
".  c #4D5700",
"X  c #556201",
"o  c #596503",
"O  c #5E6C01",
"+  c #5D680E",
"@  c #5B6608",
"#  c #5B6312",
"$  c #606D03",
"%  c #616C0B",
"&  c #647302",
"*  c #697603",
"=  c #6B7A04",
"-  c #65730A",
";  c #69770B",
":  c #6C7B0C",
">  c #677801",
",  c #707F05",
"<  c #707F09",
"1  c #626C19",
"2  c #697516",
"3  c #6D7B12",
"4  c #677118",
"5  c #697319",
"6  c #6E7A19",
"7  c #6D7725",
"8  c #787F42",
"9  c #728106",
"0  c #75830A",
"q  c #79870C",
"w  c #7B8B0D",
"e  c #738313",
"r  c #7C8C12",
"t  c #74821B",
"y  c #788618",
"u  c #7B8A1B",
"i  c #798714",
"p  c #7F901B",
"a  c #7D8B22",
"s  c #7B8729",
"d  c #7B8437",
"f  c #7B8242",
"g  c #818E0D",
"h  c #84920F",
"j  c #808F12",
"k  c #849314",
"l  c #8C9A16",
"z  c #83921C",
"x  c #8A951B",
"c  c #8C9A1B",
"v  c #899613",
"b  c #929E1B",
"n  c #93A11D",
"m  c #93A117",
"M  c #808E22",
"N  c #859325",
"B  c #8A9624",
"V  c #8D9A23",
"C  c #8C9B2A",
"Z  c #929E24",
"A  c #929D2B",
"S  c #858F3F",
"D  c #8D9834",
"F  c #939E3D",
"G  c #919D37",
"H  c #96A123",
"J  c #99A522",
"K  c #9DA925",
"L  c #95A22B",
"P  c #9AA62B",
"I  c #9CAA2C",
"U  c #94A233",
"Y  c #9AA436",
"T  c #9FAD3D",
"R  c #9AA638",
"E  c #A0AB25",
"W  c #A3AD2A",
"Q  c #A6B12C",
"!  c #AAB42E",
"~  c #A7B327",
"^  c #A2AC32",
"/  c #A2AD39",
"(  c #ACB533",
")  c #AFB933",
"_  c #A5B23B",
"`  c #ACB53C",
"'  c #AFB93B",
"]  c #A7B334",
"[  c #B3BC34",
"{  c #B3BD3B",
"}  c #B0B739",
"|  c #B7C139",
" . c #878E4D",
".. c #899246",
"X. c #939B42",
"o. c #898F56",
"O. c #868B53",
"+. c #8E9557",
"@. c #949B58",
"#. c #9AA345",
"$. c #9CAC40",
"%. c #97A241",
"&. c #9BA45B",
"*. c #A1AD41",
"=. c #A3AD4A",
"-. c #ABB445",
";. c #ACB64A",
":. c #AEB84E",
">. c #AAB748",
",. c #B1BC44",
"<. c #B3BC4C",
"1. c #B8BF4D",
"2. c #A4AC57",
"3. c #AFBA52",
"4. c #B4BD52",
"5. c #B3BB5C",
"6. c #B0B65E",
"7. c #969B66",
"8. c #A4AC6B",
"9. c #ABB569",
"0. c #ABB573",
"q. c #B1BA74",
"w. c #ACB170",
"e. c #BBC443",
"r. c #BBC44B",
"t. c #BAC443",
"y. c #BCC353",
"u. c #BCC45B",
"i. c #B6C057",
"p. c #BEC761",
"a. c #BEC66C",
"s. c #BDC574",
"d. c #C3CC4B",
"f. c #C1C84B",
"g. c #C3CA54",
"h. c #C9CE57",
"j. c #C4CA5B",
"k. c #C9CE5B",
"l. c #C0C758",
"z. c #CCD353",
"x. c #CCD25C",
"c. c #D4D75C",
"v. c #D4D85E",
"b. c #C3CB64",
"n. c #C4CC6B",
"m. c #C8CF65",
"M. c #CCD364",
"N. c #CED46B",
"B. c #C7D06D",
"V. c #D5D963",
"C. c #D1D66C",
"Z. c #D5D96C",
"A. c #D4D867",
"S. c #CCD37B",
"D. c #CFD572",
"F. c #D0D772",
"G. c #D4DB75",
"H. c #D4DA7D",
"J. c #DADF7C",
"K. c #D8DC70",
"L. c #C5CB75",
"P. c #DCE17A",
"I. c #ABB186",
"U. c #B1B68C",
"Y. c #B4B892",
"T. c #BAC48D",
"R. c #BCC396",
"E. c #C5CB86",
"W. c #D4D988",
"Q. c #C5CA99",
"!. c #C7CD97",
"~. c #CDD194",
"^. c #D2D695",
"/. c #D6DB9A",
"(. c #DDE18B",
"). c #E0E49B",
"_. c #E0E584",
"`. c #C1C5A3",
"'. c #C6CAA9",
"]. c #CDD1A0",
"[. c #D5D9A7",
"{. c #CBCEB3",
"}. c #CDD2B6",
"|. c #D2D6B6",
" X c #D2D4BC",
".X c #D8DBB9",
"XX c #DFE5A6",
"oX c #DFE2BF",
"OX c #E6EBBB",
"+X c #E2E5BB",
"@X c #E0E5A7",
"#X c #DCDECA",
"$X c #D8DAC4",
"%X c #DDE0C4",
"&X c #E5EBC3",
"*X c #E5E8CA",
"=X c #EAECD2",
"-X c #ECEDDB",
";X c #E2E4D5",
":X c #EBECE2",
">X c #EEF2E2",
",X c #EFF5E9",
"<X c #F1F3E3",
"1X c #F3F4ED",
"2X c #F7F8EF",
"3X c #F9F9F5",
"4X c #FFFFFF",
"5X c None",
/* pixels */
"5X5X5X5X5X5X5X5X5X5X5X5X5X5X5X5X5X5X5X5X5X5X5X5X5X5X5X5X5X5X5X5X5X5X5X5X5X5X5X5X5X5X5X5X5X5X5X5X5X5X",
"5X5X5X5X5X5X5X5X5X5X5X5X5X5X5X5X5X5X5X5X5X5X5X5X5X5X5X5X5X5X5X5X5X5X5X5X5X5X5X5X5X5X5X5X5X5X5X5X5X5X",
"5X5X5X5X5X5X5X5X5X5X5X5X5X5X5X5X5X5X5X5X5X5X5X5X5X5X5X5X5X5X5X5X5X5X5X5X5X5X5X5X5X5X5X5X5X5X5X5X5X5X",
"5X5X5X5X5X5X5X5X5X5X5X5X5X5X5X5X5X5X5X5X5X5X5X5X5X5X5X5X5X5X5X5X5X5X5X5X5X5X5X5X5X5X5X5X5X5X5X5X5X5X",
"5X5X5X5X5X5X5X5X5X5X5X5X5X5X5X5X5X5X5X5X5X5X5X5X5X5X5X5X5X5X5X5X5X5X5X5X5X5X5X5X5X5X5X5X5X5X5X5X5X5X",
"5X5X5X5X5X5X5X5X5X5X5X5X5X5X5X5X5X5X5X5X5X5X5X5X5X5X5X5X5X5X5X5X5X5X5X5X5X5X5X5X5X5X5X5X5X5X5X5X5X5X",
"5X5X5X5X5X5X5X5X5X5X5X5X5X5X5X5X5X5X5X5X5X5X5X5X5X5X5X5X5X5X5X5X5X5X5X5X5X5X5X5X5X5X5X5X5X5X5X5X5X5X",
"5X5X5X5X5X5X5X5X5X5X5X5X5X5X5X5X5X5X5X5X5X5X5X5X5X5X5X5X5X5X5X5X5X5X5X5X5X5X5X5X5X5X5X5X5X5X5X5X5X5X",
"5X5X5X5X5X5X5X5X5X5X5X5X5X5X5X5X5X5X5X5X5X5X5X5X5X5X5X5X5X5X5X5X5X5X5X5X5X5X5X5X5X5X5X5X5X5X5X5X5X5X",
"5X5X5X5X5X5X5X5X5X5X5X5X5X5X5X5X5X5X5X5X5X5X5X5X4X4X4X4X4X4X4X5X5X5X5X5X5X5X5X5X5X5X5X5X5X5X5X5X5X5X",
"5X5X5X5X5X5X5X5X5X5X5X5X5X5X5X5X5X5X5X5X5X5X5X-X=X=X=X=X=X=X=X5X5X5X5X5X5X5X5X5X5X5X5X5X5X5X5X5X5X5X",
"5X5X5X5X5X5X5X5X5X5X5X5X5X5X5X5X5X5X5X5X4X4X4X~.-.-.-.;.,.-.4.+X4X4X5X5X5X5X5X5X5X5X5X5X5X5X5X5X5X5X",
"5X5X5X5X5X5X5X5X5X5X5X5X5X5X5X5X5X5X5X5X[.!.~.n.<.<.4.1.y.r.g.S.^.^.&X5X5X5X5X5X5X5X5X5X5X5X5X5X5X5X",
"5X5X5X5X5X5X5X5X5X5X5X5X5X5X5X5X5X5X5X-XL.I / y.D.H.H.H.H.W.H.r.( ` /.<X5X5X5X5X5X5X5X5X5X5X5X5X5X5X",
"5X5X5X5X5X5X5X5X5X5X5X5X5X5X5X5X5X4XoX5.5.b.b.b.b.m.M.N.N.C.C.F.F.D.b.L.<X5X5X5X5X5X5X5X5X5X5X5X5X5X",
"5X5X5X5X5X5X5X5X5X5X5X5X5X5X5X5X5X.XE.-.u.B.B.b.j.j.k.k.k.k.x.Z.J.J.k.j./.&X5X5X5X5X5X5X5X5X5X5X5X5X",
"5X5X5X5X5X5X5X5X5X5X5X5X5X5X5X5X1X5./ n.b.1.u.j.j.k.k.M.N.C.C.D.A.V.P.F.' ^.4X5X5X5X5X5X5X5X5X5X5X5X",
"5X5X5X5X5X5X5X5X5X5X5X5X5X5X5X5X1X6.^ n.b.1.l.l.j.k.k.N.XX&XOX&XXXA.P.F.! ^.4X5X5X5X5X5X5X5X5X5X5X5X",
"5X5X5X5X5X5X5X5X5X5X5X5X5X5X5X=X[.5.-.b.u.1.l.j.j.k.h.C.*X1X1X1XOXP.K.K.r.S.oX5X5X5X5X5X5X5X5X5X5X5X",
"5X5X5X5X5X5X5X5X5X5X5X5X5X5X4X].F 4.5.3.1.y.y.l.j.m.h.C.&X<X:X>XOXZ.c.Z.P.y.r.=X4X5X5X5X5X5X5X5X5X5X",
"5X5X5X5X5X5X5X5X5X5X5X5X5X5X4X].Z :.b.<.<.1.f.l.j.k.h.C.&X,X,X,XOXZ.c.Z._.e.| &X4X5X5X5X5X5X5X5X5X5X",
"5X5X5X5X5X5X5X5X5X5X5X5X5X5X*XE.F :.4.;.<.1.1.r.f.h.z.M.XX&XOXOX).V.c.V.P.y.i.[.-X5X5X5X5X5X5X5X5X5X",
"5X5X5X5X5X5X5X5X5X5X5X5X5X-X8./ <.;.-.;.<.,.} } { g.h.x.A.Z.Z.Z.V.V.c.c.V.K.C.t.E.3X5X5X5X5X5X5X5X5X",
"5X5X5X5X5X5X5X5X5X5X5X5X4X-XX.B 4.-./ -.-.( ( ( } t.e.f.z.z.z.z.V.(.).(.V.V.Z.r.u.E.=X5X5X5X5X5X5X5X",
"5X5X5X5X5X5X5X5X5X5X5X5X<XoX#.A *.` / / ] W ! ( ) [ [ { z.z.c.z.G.OX&X@Xx.r.e.x.r.] /.>X5X5X5X5X5X5X",
"5X5X5X5X5X5X5X5X5X5X5X4XQ.F R ^ Z Z A E W W W ] ) ! [ [ f.z.z.z.G.OX&X/.e.| | | r.j.*.s.2X5X5X5X5X5X",
"5X5X5X5X5X5X5X5X5X5X-X`.2.V A A b b Z E K W ~ Q ! ! ) [ | d.z.z.M.S.H.p.e.| | | | y._ >.E.*X5X5X5X5X",
"5X5X5X5X5X5X5X5X:X<X|.D B G c x Z Z Z J J W ~ ] ( ) ) ) [ | f.d.| | | | e.z.e.| ~ Q t._ Z !.1X5X5X5X",
"5X5X5X5X5X4X4X.X@.D X.Y A A x A =.Y b J K K E ( ,.,.{ ) ! ) [ [ | ~ | | t.t.t.| ] E E ^ T $.q.>X5X5X",
"5X5X5X5X#X`.'.0.t * i A A x h A *.A b J J K E ] ,.t.( K E E E E ~ ~ | t.t.t.r.a.i.n m I >.k %.>X5X5X",
"5X5X5X3XQ.2 + 3 N B B B B B x v x b b J J K K I / _ P l l l l l n ~ | | t._ r.^.s.n m I $.k #.<X5X5X",
"5X5X:Xw.d 3 3 3 6 < N &.6.2.x v v b b K I K l c V c l k v v v v l l l I ] ' ] i.T n I T T i X.:X5X5X",
"5X5X:Xf o a u e * > M 0.Q.q.Z g r l J I ^ I V p r k p v c c c k p v w m K W K m m n Z C C F q.>X5X5X",
"5X5X:Xf o t : & & > u 0.U.9.Z q w c L I I I I c w w w p A P L k w w w w h r p l Z U z 9 i Q.1X5X5X5X",
"5X5X:X8 X t y : & & < D F G r , w c L I I I I c 0 w w w V P L p w w w w w q w V c N q.Q.Q.%X5X5X5X5X",
"5X5X:X7.7 3 3 3 : , 9 , , , , = 9 p n L I I $.F p w w w z V z i 9 0 w w 0 9 i C u y |.4X4X5X5X5X5X5X",
"5X5X5X:XY.# X - u p r 9 = > > = 9 9 0 V C $.s.T.0.p 9 9 9 0 9 9 9 9 = 9 = = : a e t  X4X5X5X5X5X5X5X",
"5X5X5X5X$XI.I.@.3 - 9 0 w i * > 9 9 9 e r D R.}.T.a > 9 > & > > > > > > ; * * 3 : 6 &.Q.5X5X5X5X5X5X",
"5X5X5X5X5X4X4X Xd 7 s R U p < > 9 O & 9 9 t 0.R.0.t & & - : > ; > ; > & & & O & 3 6 o +.1X5X5X5X5X5X",
"5X5X5X5X5X5X5X5X#X%X;X*X8.* i i & O O & & ; t t t - O & e p u u u y ; O O O O 3 t 6   o.1X5X5X5X5X5X",
"5X5X5X5X5X5X5X5X4X4X4X4X'.&.a 9 9 e ; O O O O O O ; : : 3 : : ; ; ; ; - - - - % @ % O.Y.1X5X5X5X5X5X",
"5X5X5X5X5X5X5X5X5X5X5X5X5X;X..3 u p e & O & O O - e y t 6 5 5 4 4 4 2 3 2 2 4 1 # 7 {.4X5X5X5X5X5X5X",
"5X5X5X5X5X5X5X5X5X5X5X5X5X5X$X8.& O ; e e t e t 3 O o 3 U. X|.}. X{. .    . 1 Y.$X{.;X5X5X5X5X5X5X5X",
"5X5X5X5X5X5X5X5X5X5X5X5X5X5X4X'.@.+...3 9 ; - - 6  .+.7.$X4X4X4X4X3XU.o.o.O.7.#X4X4X5X5X5X5X5X5X5X5X",
"5X5X5X5X5X5X5X5X5X5X5X5X5X5X5X5X1X3X`.5 @ + + o d $X3X1X5X5X5X5X5X5X1X1X1X1X1X5X5X5X5X5X5X5X5X5X5X5X",
"5X5X5X5X5X5X5X5X5X5X5X5X5X5X5X5X5X5X#X`.`.`.`.`.'.5X5X5X5X5X5X5X5X5X5X5X5X5X5X5X5X5X5X5X5X5X5X5X5X5X",
"5X5X5X5X5X5X5X5X5X5X5X5X5X5X5X5X5X5X5X4X4X4X4X4X4X5X5X5X5X5X5X5X5X5X5X5X5X5X5X5X5X5X5X5X5X5X5X5X5X5X",
"5X5X5X5X5X5X5X5X5X5X5X5X5X5X5X5X5X5X5X5X5X5X5X5X5X5X5X5X5X5X5X5X5X5X5X5X5X5X5X5X5X5X5X5X5X5X5X5X5X5X",
"5X5X5X5X5X5X5X5X5X5X5X5X5X5X5X5X5X5X5X5X5X5X5X5X5X5X5X5X5X5X5X5X5X5X5X5X5X5X5X5X5X5X5X5X5X5X5X5X5X5X",
"5X5X5X5X5X5X5X5X5X5X5X5X5X5X5X5X5X5X5X5X5X5X5X5X5X5X5X5X5X5X5X5X5X5X5X5X5X5X5X5X5X5X5X5X5X5X5X5X5X5X"
};
