/* XPM */
static char *wallmid50[] = {
/* columns rows colors chars-per-pixel */
"50 50 251 2 ",
"   c #1D1F1F",
".  c #1E1F1F",
"X  c #1E1F20",
"o  c #1E2020",
"O  c #1F2020",
"+  c #202020",
"@  c #202121",
"#  c #212121",
"$  c #212122",
"%  c #212222",
"&  c #222222",
"*  c #232222",
"=  c #232322",
"-  c #232223",
";  c #232323",
":  c #242323",
">  c #242423",
",  c #242424",
"<  c #252424",
"1  c #262424",
"2  c #262524",
"3  c #262525",
"4  c #272525",
"5  c #272625",
"6  c #282625",
"7  c #282626",
"8  c #292626",
"9  c #292726",
"0  c #292727",
"q  c #2A2727",
"w  c #2A2827",
"e  c #2B2827",
"r  c #2B2828",
"t  c #2C2828",
"y  c #2C2928",
"u  c #2D2928",
"i  c #2C2929",
"p  c #2D2929",
"a  c #2D2A29",
"s  c #2E2A29",
"d  c #2E2A2A",
"f  c #2F2A2A",
"g  c #2F2B2A",
"h  c #2F2B2B",
"j  c #302B2A",
"k  c #302B2B",
"l  c #312B2B",
"z  c #302C2A",
"x  c #302C2B",
"c  c #312C2B",
"v  c #312D2B",
"b  c #322D2B",
"n  c #312C2C",
"m  c #322C2C",
"M  c #322D2C",
"N  c #332D2C",
"B  c #332D2D",
"V  c #332E2C",
"C  c #342D2D",
"Z  c #342E2C",
"A  c #342E2D",
"S  c #352E2D",
"D  c #352F2D",
"F  c #342E2E",
"G  c #352E2E",
"H  c #352F2E",
"J  c #362F2E",
"K  c #362F2F",
"L  c #36302E",
"P  c #37302F",
"I  c #37312F",
"U  c #38312F",
"Y  c #373030",
"T  c #383030",
"R  c #383130",
"E  c #393130",
"W  c #393131",
"Q  c #393230",
"!  c #3A3231",
"~  c #3A3331",
"^  c #3B3331",
"/  c #3B3232",
"(  c #3B3332",
")  c #3C3331",
"_  c #3C3332",
"`  c #3C3333",
"'  c #3D3333",
"]  c #3C3431",
"[  c #3C3432",
"{  c #3D3432",
"}  c #3D3433",
"|  c #3E3433",
" . c #3E3533",
".. c #3F3633",
"X. c #3E3434",
"o. c #3E3534",
"O. c #3F3534",
"+. c #3F3535",
"@. c #3F3634",
"#. c #403535",
"$. c #403635",
"%. c #413635",
"&. c #413735",
"*. c #413636",
"=. c #413736",
"-. c #423736",
";. c #423737",
":. c #433737",
">. c #423835",
",. c #433836",
"<. c #433936",
"1. c #433837",
"2. c #443936",
"3. c #443837",
"4. c #443937",
"5. c #453937",
"6. c #453A37",
"7. c #463A37",
"8. c #443838",
"9. c #443938",
"0. c #453938",
"q. c #463938",
"w. c #463939",
"e. c #463A38",
"r. c #463B38",
"t. c #473B38",
"y. c #463A39",
"u. c #473A39",
"i. c #473B39",
"p. c #473A3A",
"a. c #473B3A",
"s. c #483B3A",
"d. c #493B3A",
"f. c #493B3B",
"g. c #493C39",
"h. c #493C3A",
"j. c #493C3B",
"k. c #4A3D3A",
"l. c #4A3C3B",
"z. c #4A3D3B",
"x. c #4B3D3B",
"c. c #4B3E3A",
"v. c #4B3E3B",
"b. c #4C3E3B",
"n. c #4C3F3B",
"m. c #4B3D3C",
"M. c #4C3D3C",
"N. c #4C3E3C",
"B. c #4D3F3C",
"V. c #4C3E3D",
"C. c #4D3E3D",
"Z. c #4D3F3D",
"A. c #4E3F3D",
"S. c #4D403C",
"D. c #4E403C",
"F. c #4E403D",
"G. c #4F403D",
"H. c #4F413D",
"J. c #50413D",
"K. c #50413E",
"L. c #51413F",
"P. c #50423E",
"I. c #51423E",
"U. c #52423F",
"Y. c #53433F",
"T. c #524240",
"R. c #534340",
"E. c #534341",
"W. c #544340",
"Q. c #544341",
"!. c #544440",
"~. c #544441",
"^. c #554441",
"/. c #554541",
"(. c #564541",
"). c #564641",
"_. c #554442",
"`. c #564542",
"'. c #574642",
"]. c #584742",
"[. c #584643",
"{. c #584743",
"}. c #594743",
"|. c #5A4844",
" X c #5B4944",
".X c #5A4845",
"XX c #5B4845",
"oX c #5B4945",
"OX c #5C4945",
"+X c #5C4A45",
"@X c #5D4A45",
"#X c #5C4946",
"$X c #5D4946",
"%X c #5D4A46",
"&X c #5D4B46",
"*X c #5E4B46",
"=X c #5F4B46",
"-X c #5E4A47",
";X c #5F4B47",
":X c #604C47",
">X c #614D48",
",X c #624D49",
"<X c #624E48",
"1X c #634E49",
"2X c #644E4A",
"3X c #644F4A",
"4X c #654F4A",
"5X c #654F4B",
"6X c #65504B",
"7X c #66504B",
"8X c #66514B",
"9X c #67514B",
"0X c #66504C",
"qX c #67504C",
"wX c #67514C",
"eX c #68514C",
"rX c #68524C",
"tX c #69524C",
"yX c #69524D",
"uX c #69534D",
"iX c #6A534D",
"pX c #6A534E",
"aX c #6B534E",
"sX c #6B544E",
"dX c #6C554E",
"fX c #6C544F",
"gX c #6C554F",
"hX c #6D554F",
"jX c #6D5550",
"kX c #6E5550",
"lX c #6E5650",
"zX c #6F5650",
"xX c #6F5750",
"cX c #6F5751",
"vX c #705751",
"bX c #715851",
"nX c #715852",
"mX c #725852",
"MX c #725952",
"NX c #735953",
"BX c #745A53",
"VX c #755A54",
"CX c #755B54",
"ZX c #765B55",
"AX c #775C55",
"SX c #785C55",
"DX c #795E56",
"FX c #7A5E57",
"GX c #7B5F57",
"HX c #7B5F58",
"JX c #7C6058",
/* pixels */
"DXDXGXJXAX<X<.a V G.dXFXJXFXDXDXDXDXDXDXDXDXDXDXHXJXCX*X@.y J Y.zXGXJXFXFXJXFXdXG.V a <.<XAXJXGXDXDX",
"VXVXZXSXMX=X&.u M n.rXCXSXCXVXVXVXVXVXVXVXVXVXVXAXAXbX X .t D K.sXZXAXCXCXSXCXrXn.M u &.=XMXSXZXVXVX",
"iXiXsXfXeX'.{ r z t.;XaXfXpXiXpXpXaXpXiXiXiXiXiXsXfX8X!.~ w M k.>XsXfXpXaXhXsX:Xt.z r { '.eXfXsXiXiX",
"|.|.oX#X}.v.I 9 p o.U.XX#XXX.XXXoXoXXX.X|.|.|.|.OX#X[.g.D 8 f &.W.oX#X.XXX%X#XR.@.a 0 I v.}.#XoX|.|.",
"N.N.Z.A.m.*.M 5 q T e.C.A.C.N.M.m.m.M.N.N.V.N.N.Z.A.x.+.k 4 t W i.Z.A.V.V.Z.M.0.P q 5 M *.m.A.Z.N.N.",
"a.a.s.f.y.| k 4 0 H -.s.j.s.y.;.+.O.*.0.p.s.s.a.s.f.w._ f 3 w P 1.s.j.s.y.1.+.W h 4 4 x | y.f.s.a.a.",
"s.s.f.j.u.X.k 4 0 H ;.d.l.d.9.` G B W -.p.f.d.s.f.j.y.` f 3 e P 1.j.l.s.3.' G d 7 : 4 n o.u.j.f.s.s.",
"a.a.s.d.y.| k 4 0 H -.s.l.s.;.P p e B o.y.d.s.a.s.d.w._ f 3 w P 1.d.l.s.=.P i 1 & & 3 n X.y.d.s.a.a.",
"O.O.#.%.O.T p < 4 k ! #.=.$.( x 3 : t P X.$.+.O.#.$.| J r , 7 m ( $.=.$.! k 2 @ o @ , a Y X.$.+.O.O.",
"k l m B N d 4 % & 6 s n B B k 9 & @ , r k n x k x c j r < # - 8 d m B B j 8 % .   X # 3 t k n x k k ",
"6 6 7 7 5 3 : = ; < 4 7 7 6 4 < - * : 3 5 7 7 6 7 7 5 2 : = ; < 4 7 7 6 3 < - & % & * > 3 5 7 7 6 6 ",
"M x u 4 ; < w j M N v d 8 > : 8 s v M b v c c v c c v v v b b M c s 7 : > 9 f b M b b v v v c c v v ",
"H.c...g < q Q g.H.I.S.6.D 7 5 Z 2.S.H.D.B.B.B.B.B.B.B.S.D.D.G.H.n.,.V 5 8 L 7.F.J.G.D.D.B.B.B.B.B.B.",
"sX3XY.~ q v g.:XpXhXtX X>.a y @.{.wXsXuXrXrXrXrXrXrXrXrXrXrXuXsX9X].@.y s >. XrXsXuXrXrXrXrXrXrXrXrX",
"BXgX|.&.z U K.wXMXCXvX>Xr.g a ,.=XzXNXnXvXvXvXvXvXvXvXvXvXvXnXNXzX=X,.a g r.>XvXNXnXvXvXvXvXvXvXvXvX",
"wX,X`.5.W o.G.;X0XyX5X{.&.a t  .(.2XwX7X4X4X4X4X4X4X4X4X4X4X7XwX2X(. .t a &.{.5XeX0X7X6X5X5X4X4X4X4X",
"Q.T.Z.u.-.3.x.L.Q._.R.z.E w 9 P s.T.^.Q.R.R.R.R.R.R.R.R.R.R.Q.^.T.s.P 9 w E z.R._.~.Q.E.E.R.R.R.R.R.",
"h.d.d.s.s.s.s.d.j.l.h.=.A 8 7 M $.s.l.j.h.h.h.h.h.h.h.h.h.h.j.l.s.$.M 7 8 F =.s.s.q.0.y.s.d.h.h.h.h.",
"p.s.d.j.l.l.f.s.s.f.a.%.B 8 6 m O.u.f.s.a.a.a.a.a.a.a.a.a.a.s.f.u.O.m 6 8 A %.0.%.! E } 1.u.s.s.a.a.",
"s.s.d.j.j.j.h.d.d.l.s.*.A 8 6 M #.s.l.f.s.s.s.s.s.s.s.s.s.s.f.l.s.#.M 6 8 G =.3.( n f K %.a.j.f.s.s.",
"9.9.9.9.9.9.9.9.0.w.9.X.M 7 4 x } 3.w.0.9.9.9.9.9.9.9.9.9.9.0.w.3.} x 4 7 B o.+.H q 5 j _ 3.w.q.0.0.",
"T T T T T T T T T R T B r : ; q M Y R T T R W ! W R T T T T T R Y M q ; : t B A y : & 8 N W / ! ! ! ",
"w w w w w w w w r r q 8 , % $ : 7 q r w r r i p i r r q q w r r q 7 : $ % < 8 8 < $ # : 0 i s a p p ",
"0 0 0 0 0 0 0 0 0 0 0 9 8 7 7 8 9 9 0 0 8 4 < > 1 5 9 0 0 0 0 0 9 9 8 7 7 8 9 9 8 7 5 2 < : : : : : ",
" . . . . . . . . . . . ......... . .....^ M 8 : 9 Z ] .... . . . . ......... . .@.@.) N 8 % O + @ + ",
"OXOXOXOXOXOXOXOXOXOXOX+X+X+X+X+X+X+X&X@X).6.z 6 N t.].&X@X+XOXOXOX+X+X+X+X+X+X+X*X&X(.2.z * o O @ + ",
"xXxXxXxXxXxXxXxXxXxXxXxXxXxXxXxXxXcXmXnXrXP.L e Q !.iXmXnXxXxXxXxXxXxXxXxXxXxXvXmXbX8XH.H > @ & : : ",
"fXfXfXfXfXfXfXfXfXgXhXhXgXfXfXfXfXfXlXkX6XG.D w U U.wXlXlXfXfXfXfXfXfXfXfXfXfXgXlXjX1XB.S < : 8 i s ",
"OXOXOXOXOXOXOXOX#X$X%X%X$X#XOXOXOX#X-X%X`.5.c 8 V i.[.-X%X#XOXOXOXOXOXOXOXOXOX#X-X$X^.,.j 2 0 M E ( ",
"V.V.V.V.V.V.V.V.N.M.m.m.M.N.V.V.V.V.A.Z.d.( p 4 f } l.A.A.V.V.V.V.V.V.V.V.V.V.C.A.Z.i.! t 3 d ! 1.y.",
"a.a.a.a.a.s.s.p.q.=.O.O.-.q.a.s.s.s.d.d.8.R t 3 p ! 0.d.d.a.a.a.a.a.a.a.a.a.a.s.d.s.1.P w 4 k X.s.M.",
"s.s.s.s.s.d.f.s.:.! A F ( 3.s.f.s.s.j.h.9.E t 3 a / q.j.j.s.s.s.s.s.s.s.s.s.s.s.j.d.1.P w 4 l o.d.C.",
"a.a.a.a.a.s.d.u.$.F r t J *.a.d.s.a.d.s.3.R t 3 p ! 0.d.d.a.a.a.a.a.a.a.a.a.a.s.d.s.1.P w 3 h ` w.j.",
"O.O.O.O.O.#.%.+.E s < 1 f W O.$.+.O.#.#.` B 8 , q F } #.#.O.O.+.#.#.+.O.O.O.O.O.$.+.( m 7 , t K | %.",
"k k k k l m B N f 4 # # 3 p k n l l c x f 0 ; # : q h x x l n M B B m x k k k l c x d 8 - # < r h n ",
"6 6 6 6 6 7 7 5 3 : * = , 3 6 7 7 6 7 7 4 1 : * : 1 5 7 7 6 6 6 6 6 6 6 6 6 6 6 7 7 4 < ; = : 2 5 7 ",
"v v b b c a 6 : < q g b M v v c c v c c v v v b v v v v b c a 6 : < 0 g v b v c c c v v v b v v v c ",
"B.B.D.F.b.&.v 3 0 U t.F.H.S.B.B.B.B.B.B.B.S.D.D.D.S.B.D.F.b.&.v 3 9 I r.S.F.S.B.B.B.B.S.D.D.D.S.B.B.",
"rXrXuXpX8X/.[ e g 7.&XyXsXtXrXrXrXrXrXrXrXrXrXrXrXrXrXuXaX8X/.[ e g 7.@XtXpXtXrXrXrXrXrXrXrXrXrXrXrX",
"vXvXmXNXkX X@.y v k.3XbXNXbXvXvXvXvXvXvXvXvXvXvXvXvXvXmXNXkX X@.y v k.3XbXNXbXvXvXvXvXvXvXvXvXvXvXvX",
"4X4X7XqX1XR.^ e g 4.|.5XqX5X4X4X4X4X4X4X4X4X4X5X5X6X7XqXwX1XR.^ e g 4.|.6XeX0X7X5X5X4X4X4X4X4X4X4X4X",
"R.R.Q.^.T.e.S 8 t ^ M.Q.^.E.R.R.R.R.R.R.R.R.R.R.E.Q.Q.^._.T.e.S 8 t ^ M.Q._.Q.Q.E.R.R.R.R.R.R.R.R.R.",
"h.h.j.l.s.o.x 4 0 J 1.j.l.j.h.h.h.h.h.h.h.h.h.d.p.q.0.y.s.p.o.x 4 q K 1.s.s.q.0.y.s.d.h.h.h.h.h.h.h.",
"a.a.s.f.y.| k 4 0 H -.s.f.s.a.a.a.a.a.a.a.s.s.y.=._ R _ -.0.X.x 4 0 J -.0.#.! W X.3.p.s.s.a.a.a.a.a.",
"s.s.j.l.p.X.l 4 0 J ;.d.l.d.s.s.s.s.s.s.s.j.j.y.X.C d B X.9.O.n 4 q P ;.1.! k g P =.s.j.d.s.s.s.s.s.",
"9.9.q.w.3.( g 3 8 C +.0.w.0.9.9.9.9.9.9.0.q.q.;.E p 4 i R %.` k 4 9 G +.o.A 9 7 n } 8.w.0.9.9.9.9.9.",
"W W ! ! R B r < 3 d J W ! W W W W W W W W ! ! T x 7 ; 6 k K C t < 4 f J G p < > r A E ! ! W W W W W ",
"p p p p i q 2 ; : 5 r p p p p p p p p p p p p t 8 , * , 8 r q 3 ; : 7 r e 4 ; - 2 q i p p p p p p p ",
": : : : : ; * & * - : : : : : : : : : : : : : : ; * & * ; : ; = & * ; : : - * & = ; : : : : : : : : ",
"@ @ @ @ @ # $ & % # @ @ @ @ @ @ @ @ @ @ @ @ @ @ # % & % # @ # $ & % # @ @ $ & & $ # @ @ @ @ @ @ @ @ "
};
