/* XPM */
static char *wall50[] = {
/* columns rows colors chars-per-pixel */
"50 50 187 2 ",
"   c #1F1C37",
".  c #1F1C38",
"X  c #221C37",
"o  c #2D1F37",
"O  c #211E38",
"+  c #2A1F38",
"@  c #301F37",
"#  c #24223B",
"$  c #2A233B",
"%  c #28293F",
"&  c #262A3D",
"*  c #342037",
"=  c #33233A",
"-  c #3C263B",
";  c #3D293D",
":  c #3D333E",
">  c #462437",
",  c #452639",
"<  c #48273A",
"1  c #432A3B",
"2  c #492A3C",
"3  c #44313F",
"4  c #2D2A42",
"5  c #322C42",
"6  c #3E2D43",
"7  c #2A3342",
"8  c #2B3B44",
"9  c #343246",
"0  c #3D3644",
"q  c #3C3A44",
"w  c #383649",
"e  c #3D3A4A",
"r  c #363E43",
"t  c #4E2F41",
"y  c #453242",
"u  c #4D3344",
"i  c #413944",
"p  c #4E3B45",
"a  c #4E3649",
"s  c #413D4E",
"d  c #4C3F4B",
"f  c #513346",
"g  c #523B46",
"h  c #543B4C",
"j  c #543F50",
"k  c #2F4647",
"l  c #2F4847",
"z  c #324446",
"x  c #3B4146",
"c  c #33464A",
"v  c #3C444A",
"b  c #334A4A",
"n  c #3E4A4D",
"m  c #3B4E50",
"M  c #3C5052",
"N  c #46424A",
"B  c #48424B",
"V  c #434D4D",
"C  c #4A4B4E",
"Z  c #55444B",
"A  c #58434D",
"S  c #534B4E",
"D  c #594A4F",
"F  c #44504E",
"G  c #444251",
"H  c #4B4553",
"J  c #464F55",
"K  c #4A4A56",
"L  c #4E4D59",
"P  c #564450",
"I  c #5B4553",
"U  c #544C51",
"Y  c #5B4D52",
"T  c #524D5A",
"R  c #594A5A",
"E  c #435256",
"W  c #4D5352",
"Q  c #4C5658",
"!  c #4B5A5A",
"~  c #555353",
"^  c #5B5354",
"/  c #5E5957",
"(  c #54535D",
")  c #5B545C",
"_  c #545C5C",
"`  c #5F5A5D",
"'  c #614658",
"]  c #634B5C",
"[  c #615656",
"{  c #605957",
"}  c #62535C",
"|  c #655E5C",
" . c #57605F",
".. c #67605E",
"X. c #68615F",
"o. c #575761",
"O. c #5A5661",
"+. c #525E63",
"@. c #5C5B62",
"#. c #5F5F6D",
"$. c #684F60",
"%. c #645462",
"&. c #695061",
"*. c #655C63",
"=. c #6B5965",
"-. c #665A6B",
";. c #6D5B6A",
":. c #735E6F",
">. c #665C70",
",. c #6A5D70",
"<. c #755F70",
"1. c #576160",
"2. c #5A6263",
"3. c #5D6972",
"4. c #636265",
"5. c #696462",
"6. c #6D6867",
"7. c #646269",
"8. c #6B646A",
"9. c #6E6A69",
"0. c #706D6D",
"q. c #72706F",
"w. c #656572",
"e. c #6E6672",
"r. c #676A74",
"t. c #6C6B74",
"y. c #736271",
"u. c #7A6676",
"i. c #736C73",
"p. c #786D74",
"a. c #7C6778",
"s. c #746F7B",
"d. c #7B6C7A",
"f. c #6C727C",
"g. c #767676",
"h. c #787677",
"j. c #787877",
"k. c #75737B",
"l. c #797779",
"z. c #7A797B",
"x. c #76797B",
"c. c #81767E",
"v. c #6F7B83",
"b. c #747383",
"n. c #7D7183",
"m. c #7F7880",
"M. c #7B7F8E",
"N. c #777D82",
"B. c #847383",
"V. c #887686",
"C. c #837D83",
"Z. c #857D89",
"A. c #8B7D8D",
"S. c #6B858C",
"D. c #7C8285",
"F. c #728189",
"G. c #7C858C",
"H. c #7B8190",
"J. c #7F98A2",
"K. c #868086",
"L. c #84848B",
"P. c #8B838C",
"I. c #838A8F",
"U. c #8D8390",
"Y. c #838E93",
"T. c #8B8B94",
"R. c #8C8C9B",
"E. c #928693",
"W. c #958896",
"Q. c #978A98",
"!. c #849095",
"~. c #86949A",
"^. c #88969C",
"/. c #88989F",
"(. c #94909E",
"). c #8C93A1",
"_. c #8A9BA4",
"`. c #8A9CA9",
"'. c #9596A3",
"]. c #9298A6",
"[. c #969CAA",
"{. c #8DA1AC",
"}. c #94A2AE",
"|. c #91A7B1",
" X c #92AAB4",
".X c #94ADB9",
"XX c #95B0BC",
/* pixels */
"Q.Q.E.z.L # 7.Y.XX[.W.W.Q.Q.W.Q.Q.Q.Q.Q.c.7.# Q N. X}.Q.Q.Q.Q.Q.Q.Q.Q.Q.Q.Q.W.C.@.# _ D..X[.W.Q.Q.Q.",
"C.C.C.P.%.; G.^.G.L.K.C.K.C.K.C.C.C.C.C.P.d.- w._.!.I.C.C.C.C.C.C.C.C.C.C.C.C.P.y.= f._.!.L.C.K.C.C.",
"g.g.z.E.;.t )._.g.g.g.g.g.g.g.g.g.g.h.h.P.c.2 k.|.x.h.g.g.g.h.h.g.g.g.g.l.g.l.P.d.2 M.}.j.g.g.g.g.g.",
"g.g.g.z.} 2 V.T.h.g.g.g.g.g.g.g.g.g.g.h.l.e.< y.Q.z.h.g.g.g.h.h.g.j.g.g.g.g.g.z.;.< d.E.j.g.h.h.g.g.",
"g.g.g.9.U i V.T.g.g.h.g.h.g.g.h.g.g.g.g.0.| i e.E.z.g.g.g.g.g.g.g.g.g.g.g.g.g.0./ 0 s.W.z.g.h.g.g.g.",
"g.g.i.| W b V.P.x.g.g.g.g.g.h.g.g.h.g.g.5.~ l r.W.z.g.g.h.g.h.g.g.j.j.g.g.g.g.X.~ l k.E.h.g.g.h.h.g.",
"g.h.g.| W b Z.T.g.g.g.g.g.g.g.g.g.g.q...| ~ b r.Q.l.g.g.g.h.g.g.g.g.g.g.g.g.g...D 1 a.E.z.g.g.g.g.h.",
"g.h.g.| C v V.P.j.g.g.h.g.g.g.g.g.q.9.5.| ^ x t.E.z.g.g.g.g.g.g.g.j.g.g.g.g.g.5.^ 3 p.E.g.g.g.g.h.g.",
"g.h.g.| Z 2 V.P.j.j.j.g.g.g.g.g.g...5.g.5.Y , <.W.z.h.h.g.g.g.g.j.g.g.j.g.g.g.| ~ c k.E.z.g.g.g.g.g.",
"X.5.| g ; $ i.K.U.z.g.5.5.5.5.5...| | 5.A y o O.K.U.C.h.h.h.l.9.5.g.9.5.5.5...Z : & 7.K.P.C.g.g.j.h.",
"~ ^ Z 1 * # ( t.B.t.4.U U U U ~ ~ ~ ^ D 2 * O G 8.c.a.5.8.4.4.) Y 7.{ Y Y ^ ~ 1 @ O K w.B.p.8.7.7.2.",
"l : , X X . # = 2 r k # O # . 7 b b r 1 * X . O $ 1 2 1 2 - # # # # = 1 1 : z & X X . $ < 2 1 $ # # ",
"S.k.y.>.>.>.-.,.:.i.r.( 9 # K 3.S.f.t.y.;.>.>.>.-.| =.y.:.;.( % 4 K w.b.y.y.t.>.>.>.>.>.y.=.^ $ 9 ( ",
" X'.W.E.W.W.W.E.W.W.E.z.H % g.~. X(.W.E.W.W.W.W.P.l.c.W.E.U.z.s 9 x._.|.(.W.W.W.W.W.W.W.E.K.g.= G j.",
"x.z.z.j.z.z.z.z.l.z.m.E.] u `./.z.l.l.l.l.l.z.0...| 9.l.z.c.E.' h {.~.z.z.z.z.z.l.z.l.z.z.P.A.f P g.",
"h.h.h.g.g.g.g.g.g.g.z.K.] f ).T.g.g.h.l.g.g.9.0.p.9.0.h.h.c.Z.A h ].I.g.g.g.g.g.g.g.g.g.g.c.c.f I g.",
"g.g.g.h.g.g.g.g.g.g.g.g.U u A.P.g.g.h.g.h.q.| c.E.z.g.g.g.g.q.Z h E.C.h.g.g.g.g.g.g.g.g.g.g.0.3 I g.",
"h.h.g.g.g.g.l.g.g.g.g...C G P.K.g.h.g.g.5.8.A.C.z.l.g.g.l.q...V K E.Z.h.h.g.g.g.g.l.g.g.l.9.| z Q g.",
"g.g.h.g.g.g.g.g.g.g.q.| F M P.A.g.g.h.g.9.0.P.z.h.g.g.g.g.0.{ N K E.Z.g.g.g.g.h.g.g.g.h.g.6./ b ! g.",
"g.h.g.g.h.g.g.g.g.g.q.| F M P.P.g.g.h.g.g.g.g.g.h.g.g.h.g.q...3 f E.C.g.g.g.g.g.h.h.g.g.g.6./ b ! h.",
"g.h.g.h.l.h.g.l.g.g.0.| V M U.K.g.g.g.h.g.g.g.g.g.g.g.g.g.q.| 3 h E.Z.g.5.9.h.h.g.h.g.g.l.6./ b ! g.",
"z.z.g.q.q.h.q.q.q.g.8.^ v n Z.P.z.j.h.h.g.g.g.q.q.q.q.q.q.6.[ 2 a Z.C.z.5.6.q.q.q.q.q.q.g...D 8 W j.",
"W.C.q...9.h.X.| | | [ 2 * % t.Z.W.z.l.h.h.g.| | ..........D 2 * 9 g.P.E.z.9.| | ..| | | | Z > + G j.",
"] _ ! Z B G e 0 0 p 3 * X # s T } ' Y I H v 0 0 i 3 3 Z C x * X # N R %.! Q V e q 0 q 0 p ; o X 4 G ",
"f N V u 6 $ O O 4 0 y 4 4 4 4 6 f t t t 4 4 . # ; p f f V c 4 4 4 4 6 u n m n 7 # . # 4 a 6 4 4 4 4 ",
"A.P.U.A.z.8.4 w 9.~.`.A.A.A.A.A.A.A.A.A.p.@.O K f._.^.A.A.A.A.A.A.A.A.A.U.P.A.k.o.O ( k.`.R.A.Z.A.A.",
"P.P.Z.K.K.V.6 K !.~.^.L.A.P.P.K.P.A.P.P.Z.i.= #.~./.!.P.P.P.P.Z.P.K.P.L.P.K.P.K.8.= r.~._.Y.P.P.L.P.",
"g.g.h.g.K.A.a %..XL.g.g.k.g.g.g.g.h.g.j.P.B.2 b. Xz.h.h.g.g.g.j.g.g.g.g.g.g.j.U.d.< M.|.j.g.g.g.g.j.",
"h.g.h.g.x.l.f ' (.K.g.h.g.g.g.h.g.h.g.g.z.9.< <.(.x.g.g.g.g.g.g.g.g.g.h.g.g.l.z.8.< d.Q.z.g.g.g.g.g.",
"g.h.g.g.g.6.t ' W.z.g.g.h.h.g.g.g.g.g.g.g.5.3 e.W.x.g.g.g.g.g.g.h.g.g.g.h.g.g.q.%.< d.E.g.k.g.g.g.g.",
"h.g.g.h.9.{ 2 ' W.K.g.g.g.g.h.g.h.g.g.g.5.~ z t.W.z.g.g.g.g.g.g.g.g.h.g.h.g.g.X.D 1 a.W.j.j.g.g.g.g.",
"g.h.g.g.9.{ x o.W.z.g.g.g.h.g.h.g.g.h.g.5.^ 3 y.W.z.g.j.g.j.g.g.g.h.g.h.g.h.g.X.~ q s.E.j.g.g.j.g.g.",
"g.h.g.g.9.{ b +.W.C.g.g.h.g.g.g.g.g.h.g.5.^ 3 y.E.z.g.g.g.g.g.g.g.g.g.g.g.g.g.5.~ l k.W.j.g.g.g.g.h.",
"g.g.g.g.6.{ b 1.W.c.g.h.g.g.g.h.h.g.g.g.5.~ z r.E.z.g.l.g.j.j.g.j.g.g.j.g.g.g.| ~ l g.E.j.g.g.j.g.g.",
"g.g.h.g.6.{ i R Q.z.h.h.g.g.g.g.h.h.g.g.5.^ l r.W.z.g.g.g.g.g.g.g.g.g.g.g.g.g.5.^ : s.E.l.q.8.g.g.g.",
"g.q.g.g.8.[ 2 R E.C.z.h.g.q.g.g.q.g.q.g...~ k t.E.z.l.g.g.j.g.g.g.q.g.g.g.q.g.| Z , u.E.z.6...t.g.g.",
"........D 2 + s z.U.U.l.6.....| 5.| | ..g 1 # ( C.E.K.g.j.j.g.5.| | ..| ..| | u 1 O @.m.E.C.q.X.| X.",
"Z Z A A 3 * O 5 T ;.;.o.K N N C W W K Z ; * O e _ 9.8.} } ) ( H N N K W W S D ; o O v o.r.8.} D B N ",
"1 2 2 2 - # # # # 1 , O # . X 7 b b x 2 = # # # # l e 1 2 ; + . . O 8 b b q 2 $ 4 O # & b i 2 2 - # ",
"B.B.B.B.p.7.k.n.n.B.z.7.w # @.v.J.G.V.V.n.n.n.m.n.Z.V.B.B.d.7.9 4 @.F.J.L.B.B.n.n.n.n.n.V.B.B.B.B.n.",
"U.P.U.P.c.q.P.U.U.U.P.K.H 5 N.^.{.T.P.U.U.U.P.U.E.P.P.U.P.P.m.d w D.~.{.E.P.P.T.U.U.U.U.U.P.E.P.P.E.",
"j.j.j.j.9...q.l.j.j.z.W.$.a {.^.g.h.h.h.g.j.l.j.g.g.z.j.g.C.W.I h |.!.g.h.h.h.h.g.l.g.j.h.h.g.l.g.g.",
"j.g.j.g.g.9.5.9.g.g.j.m.Y f R.T.g.g.g.g.g.g.g.g.g.g.g.g.g.z.z.A h (.I.g.h.h.g.g.g.g.g.j.g.g.g.g.g.g.",
"g.g.g.g.g.g.X.8.g.j.g.i.D f A.Z.g.h.g.g.g.l.g.g.g.h.g.g.g.g.0.Z h E.K.g.g.g.h.g.g.j.g.g.h.h.g.g.g.g.",
"g.g.g.g.g.g.g.g.g.h.q.| V m U.P.g.h.g.g.g.g.g.g.h.h.g.h.g.q.| V E U.Z.g.g.h.g.g.h.g.g.g.g.g.h.g.g.g.",
"g.j.g.g.g.g.g.h.g.h.q.| V M P.A.h.h.g.h.g.g.g.g.g.h.h.g.g.0.| n E W.K.g.g.g.g.g.g.h.g.g.h.h.h.h.g.g.",
"g.g.g.g.g.g.g.g.g.g.0.[ n n P.P.z.h.g.g.g.g.g.g.g.g.g.g.q.0.^ n M U.C.z.h.g.g.g.g.g.g.g.g.g.g.g.g.g.",
"j.g.g.X.6.g.X...| | [ 3 = 4 g.C.E.x.h.g.g.g...9.g.....| ..[ 2 $ 9 g.P.E.z.h.h.h.0...9.g.| ..| | ..| ",
"{ 2. .W _ 2.D Z A S C * + # K *.y.%.| +.2. .W _ _ D A Z ~ N * + 4 L -.y.2.2.2.2._ ~ _ 1.W S Z ~ C N ",
"< : l l l z 1 > > z k   X . . * > > : l z l l l z 1 < > z 8 X . . . * 1 z z l l l l l l l : 1 z 8 . "
};
